<svg id="_24x24-Question-Circle" data-name="24x24-Question-Circle" xmlns="http://www.w3.org/2000/svg" width="24" height="24" viewBox="0 0 24 24">
  <rect id="Frame24" width="24" height="24" fill="#fff" opacity="0"/>
  <path id="question-circle" d="M13.2,12.255a.722.722,0,0,0-.45.675.75.75,0,1,1-1.5,0,2.309,2.309,0,0,1,1.35-2.1,1.477,1.477,0,0,0-1.2-2.7,1.481,1.481,0,0,0-.9,1.35.75.75,0,0,1-1.5,0,3,3,0,0,1,6,0,2.951,2.951,0,0,1-1.8,2.775ZM12,17.53a1.3,1.3,0,1,1,1.3-1.3A1.334,1.334,0,0,1,12,17.53ZM12,2A10,10,0,1,0,22,12,10.029,10.029,0,0,0,12,2" fill="#1D9EC9"/>
<style type="text/css" media="screen">path{vector-effect:non-scaling-stroke}</style></svg>
