<svg id="_24x24-Phone" data-name="24x24-Phone" xmlns="http://www.w3.org/2000/svg" width="24" height="24" viewBox="0 0 24 24">
  <rect id="Frame24" width="24" height="24" fill="#fff" opacity="0"/>
  <path id="phone" d="M17.965,13.806a2.082,2.082,0,0,0-2.947,0L13.7,15.127A39.1,39.1,0,0,1,8.872,10.3l1.322-1.322a2.085,2.085,0,0,0,0-2.948L8.425,4.262a2.129,2.129,0,0,0-2.946,0l-.97.971A2.926,2.926,0,0,0,4.142,8.9,39.132,39.132,0,0,0,15.092,19.862a2.956,2.956,0,0,0,3.667-.369l.97-.971a2.085,2.085,0,0,0,0-2.948l-1.764-1.769Z" transform="translate(0.021 0.33)" fill="#21262C"/>
<style type="text/css" media="screen">path{vector-effect:non-scaling-stroke}</style></svg>
