<svg id="_24x24-Email" data-name="24x24-Email" xmlns="http://www.w3.org/2000/svg" width="24" height="24" viewBox="0 0 24 24">
  <rect id="Frame24" width="24" height="24" fill="#fff" opacity="0"/>
  <path id="email" d="M11.262,14.127,3.192,6.055a.417.417,0,0,1,.234-.707,1.668,1.668,0,0,1,.241-.018H20.333a1.629,1.629,0,0,1,.239.017.426.426,0,0,1,.236.118.417.417,0,0,1,0,.589l-8.073,8.072a1.044,1.044,0,0,1-1.473,0ZM21.741,6.889A.152.152,0,0,1,22,7V17a1.667,1.667,0,0,1-1.667,1.667H3.667A1.667,1.667,0,0,1,2,17V7a.152.152,0,0,1,.093-.138.15.15,0,0,1,.167.032l5.168,5.167a.21.21,0,0,1,0,.3l-3.2,3.2a.625.625,0,0,0,.882.884l3.2-3.2a.21.21,0,0,1,.3,0l1.776,1.773a2.293,2.293,0,0,0,3.241,0L15.4,13.235a.209.209,0,0,1,.294,0l3.2,3.2.016.016a.625.625,0,0,0,.868-.9l-3.2-3.2a.208.208,0,0,1,0-.295L21.741,6.89Z" transform="translate(0 -0.33)" fill="#21262C"/>
<style type="text/css" media="screen">path{vector-effect:non-scaling-stroke}</style></svg>
