<svg id="_24x24-Information-Circle" data-name="24x24-Information-Circle" xmlns="http://www.w3.org/2000/svg" width="24" height="24" viewBox="0 0 24 24">
  <rect id="Frame24" width="24" height="24" fill="#fff" opacity="0"/>
  <path id="information-circle" d="M14.167,17H10.833a.788.788,0,1,1,0-1.573H11.5a.175.175,0,0,0,.167-.157V11.73a.175.175,0,0,0-.167-.157h-.667a.788.788,0,1,1,0-1.573h.833a1.627,1.627,0,0,1,1.667,1.573v3.775a.174.174,0,0,0,.167.157h.667a.766.766,0,0,1,.833.786c0,.472-.333.708-.833.708ZM12.3,6a1.333,1.333,0,0,1,1.3,1.3,1.3,1.3,0,1,1-2.6,0A1.333,1.333,0,0,1,12.3,6ZM12,2A10,10,0,1,0,22,12,10.029,10.029,0,0,0,12,2" fill="#1D9EC9"/>
<style type="text/css" media="screen">path{vector-effect:non-scaling-stroke}</style></svg>
