<svg id="_24x24-Download" data-name="24x24-Download" xmlns="http://www.w3.org/2000/svg" width="24" height="24" viewBox="0 0 24 24">
  <rect id="Frame24" width="24" height="24" fill="#fff" opacity="0"/>
  <path id="download" d="M20.884,16.112a1.01,1.01,0,0,1,1.014,1.01v1.546A3.333,3.333,0,0,1,18.566,22H5.429A3.333,3.333,0,0,1,2.1,18.667V17.122a1.01,1.01,0,0,1,2.02,0v1.546a1.31,1.31,0,0,0,1.309,1.308H18.566a1.31,1.31,0,0,0,1.309-1.308V17.122a1.01,1.01,0,0,1,1.01-1.01ZM12,2a1.616,1.616,0,0,1,1.616,1.615v7.553a.208.208,0,0,0,.208.208h2.215a.808.808,0,0,1,.61,1.338l-4.039,4.646a.807.807,0,0,1-1.22,0L7.348,12.715a.808.808,0,0,1,.61-1.338h2.215a.208.208,0,0,0,.208-.208V3.615A1.616,1.616,0,0,1,12,2Z" fill="#1D9EC9"/>
<style type="text/css" media="screen">path{vector-effect:non-scaling-stroke}</style></svg>
