<svg xmlns="http://www.w3.org/2000/svg" width="104" height="52" viewBox="0 0 104 52">
  <g id="bidc" transform="translate(-2679 6298)">
    <g id="boundingbox" transform="translate(2679 -6298)" fill="rgba(255,0,0,0.1)" stroke="red" stroke-width="1" stroke-dasharray="4 4" opacity="0">
      <rect width="104" height="52" stroke="none"/>
      <rect x="0.5" y="0.5" width="103" height="51" fill="none"/>
    </g>
    <g id="bidc-2" data-name="bidc">
      <rect id="Rectangle_5869" data-name="Rectangle 5869" width="4.057" height="18.214" transform="translate(2719.128 -6281.875)" fill="#243f8e"/>
      <path id="Path_45700" data-name="Path 45700" d="M102.619,27.821c-.551-.006-1.134,0-1.682-.051a14.991,14.991,0,0,1-3.243-.536,7.284,7.284,0,0,1-2.307-1.222,7.4,7.4,0,0,1-.6-.544,2.922,2.922,0,0,1-.278-.3,8.1,8.1,0,0,1-1.766-3.75,12.1,12.1,0,0,1,.542-6.928,4.645,4.645,0,0,1,.272-.558,7.228,7.228,0,0,1,2.623-2.76c.239-.149.495-.268.747-.4a.351.351,0,0,1,.051-.016c.238-.088.471-.186.712-.264A15.1,15.1,0,0,1,101,9.928c.074-.006.147,0,.221,0,.192-.008.384-.033.577-.033,1.442-.01,2.887,0,4.329,0-.759.759-1.755,1.847-2.647,2.783a10.254,10.254,0,0,0-4.278.536,2.226,2.226,0,0,0-.679.407,2.763,2.763,0,0,0-.581.548,5.534,5.534,0,0,0-.956,1.651,4.31,4.31,0,0,0-.272.916,9.211,9.211,0,0,0,.256,5.041,5.485,5.485,0,0,0,.407.882,3.383,3.383,0,0,0,.364.526l.018.019a4.265,4.265,0,0,0,2.545,1.553,8.461,8.461,0,0,0,1.7.28c1.856.016,3.711,0,5.567,0v2.784c-1.651,0-3.3.012-4.955,0" transform="translate(2649.323 -6291.633)" fill="#ed1b23" fill-rule="evenodd"/>
      <path id="Path_45701" data-name="Path 45701" d="M53.911,27.789c1.986,0,3.973.014,5.96,0,.276,0,.554-.012.831-.033a14.043,14.043,0,0,0,3.31-.569,6.894,6.894,0,0,0,.714-.272,8.117,8.117,0,0,0,2.035-1.35.107.107,0,0,0,.019-.016,8.705,8.705,0,0,0,1.078-1.34,6.721,6.721,0,0,0,.407-.749A8.765,8.765,0,0,0,68.807,22a12.536,12.536,0,0,0-.135-7.095,7.661,7.661,0,0,0-1.358-2.48c-.164-.2-.356-.385-.534-.577a.129.129,0,0,0-.019-.016,10.383,10.383,0,0,0-1.782-1.24.179.179,0,0,0-.033-.016c-.227-.094-.45-.2-.679-.28a13.221,13.221,0,0,0-3.531-.671c-.44-.033-.884-.047-1.324-.051-1.833-.015-3.668,0-5.5,0ZM63.96,23.02A.15.15,0,0,0,63.979,23a5.942,5.942,0,0,0,.687-1.289,9.116,9.116,0,0,0-.119-6.4,4.524,4.524,0,0,0-.272-.561,4.46,4.46,0,0,0-1.52-1.62,2.743,2.743,0,0,0-.542-.272,12.047,12.047,0,0,0-4.262-.45V24.972a9.872,9.872,0,0,0,4.719-.79A3.914,3.914,0,0,0,63.96,23.02" transform="translate(2671.293 -6291.45)" fill="#243f8e" fill-rule="evenodd"/>
      <path id="Path_45702" data-name="Path 45702" d="M11.052,23.442A2.263,2.263,0,0,1,9.1,24.895a32.4,32.4,0,0,1-5.041.111V20.3a28.751,28.751,0,0,1,5.127.229,2.534,2.534,0,0,1,1.51.747,1.393,1.393,0,0,1,.358.655.2.2,0,0,0,.016.068s.017-.006.017,0a3.544,3.544,0,0,1,0,1.375c0,.006-.015,0-.017,0a.43.43,0,0,0-.016.068M4.057,16.873V12.46c1.262,0,2.525-.028,3.785.008a2.863,2.863,0,0,1,2.5.96,1.993,1.993,0,0,1,.016,2.291,2.051,2.051,0,0,1-1.332.857,22.427,22.427,0,0,1-4.973.3m3.259-7.3c.419,0,.839.026,1.256.059A9,9,0,0,1,12.7,10.719a3.791,3.791,0,0,1,1.4,1.4,4.435,4.435,0,0,1,.084,4.5,3.221,3.221,0,0,1-.788.89,5.387,5.387,0,0,1-1.7.884,2.4,2.4,0,0,0-.3.1,8.254,8.254,0,0,1,1.815.679,3.913,3.913,0,0,1,.986.749,3.536,3.536,0,0,1,.823,1.348,4.2,4.2,0,0,1,.2,1.749,4.512,4.512,0,0,1-.747,2.257,3.081,3.081,0,0,1-.27.356A5.049,5.049,0,0,1,12.6,26.9a7.952,7.952,0,0,1-2.564.747,14.466,14.466,0,0,1-1.782.143c-2.749.033-5.5,0-8.251,0V9.573c2.439,0,4.877-.016,7.316,0" transform="translate(2702 -6291.449)" fill="#243f8e" fill-rule="evenodd"/>
      <path id="Path_45703" data-name="Path 45703" d="M124.9,8.666c0-.182.006-.362.008-.544a1.067,1.067,0,0,1,.636.189c.227.237.452.475.679.712.012.02.012.02.027-.933A8.436,8.436,0,0,1,127.662,6.9a.735.735,0,0,1,.722.11c.417.338.81.7,1.209,1.056.008.325.015.649.023.972q.288-.313.577-.628a1.01,1.01,0,0,1,.739-.289c0,.137,0,.272.008.407a2.983,2.983,0,0,1-.188.876c-.162.307-.325.614-.487.921,0,.041,0,.084,0,.125l.135.006v1.307h-4.939V10.456c.045,0,.092-.006.137-.01,0-.039-.006-.08-.008-.119a5.347,5.347,0,0,1-.677-1.368c-.006-.1-.014-.195-.02-.293m4.846.051c-.006-.229-.012-.458-.016-.687a6.613,6.613,0,0,0-1.614-1.3,2.339,2.339,0,0,0-.288-.016c-.016.016-.016.016-.195.068a9.5,9.5,0,0,0-1.5,1.248h-.016v.679h-.017l-.116-.119a3.267,3.267,0,0,1-.6-1.393V6.706a.933.933,0,0,1,.579.186c.18.194.36.391.542.585.006-.266.012-.532.016-.8a6.939,6.939,0,0,1,1.24-1.027c.4-.082.62.166.916.407l.663.612c0,.268,0,.538.008.806l.025-.025c.24-.266.516-.722.917-.722.019-.016.019-.016.166-.019a2.564,2.564,0,0,1-.207,1.191,3.072,3.072,0,0,1-.5.814m-3.124-2.6c.006-.245.012-.491.016-.739a6.442,6.442,0,0,1,1.1-.925c.368-.072.524.082.823.323l.655.6c0,.247.01.493.016.739l.522-.565a.852.852,0,0,1,.493-.133V5.81a2.264,2.264,0,0,1-.276.861c-.064.047-.125.1-.189.143s-.268.3-.313.34c-.006-.178-.012-.356-.016-.534a6.537,6.537,0,0,0-1.342-1.095,2.469,2.469,0,0,0-.3-.016c-.016.016-.068.016-.309.147-.389.3-.741.628-1.1.964,0,.178-.01.356-.016.534a1.506,1.506,0,0,1-.3-.307,1.565,1.565,0,0,1-.493-1.43.876.876,0,0,1,.485.133c.18.19.362.38.542.569m-.7-1.3V4.4a2.34,2.34,0,0,1,.3.043,6.763,6.763,0,0,1,.569.538c0-.207.006-.415.008-.624.27-.233.54-.467.812-.7.311-.18.432-.084.716.1.137.124.565.511.679.6,0,.207.008.413.01.62.319-.327.432-.548.863-.585a3.93,3.93,0,0,1-.047.64,3.34,3.34,0,0,1-.223.5c-.088.09-.176.18-.264.272-.006-.155-.012-.311-.016-.467l-.765-.7c-.385-.294-.581-.44-1.043-.194a12.5,12.5,0,0,0-.993.873.2.2,0,0,1-.035.008c0,.164-.006.33-.008.493a1.676,1.676,0,0,1-.569-.993m2.445-1.207a.793.793,0,0,0-.612-.178,8.046,8.046,0,0,0-1.078.865v.154h-.025a4.128,4.128,0,0,1-.328-.708c0-.133,0-.264,0-.395.352,0,.452.207.687.466,0,.016,0,.016.033.016V3.318a5.455,5.455,0,0,1,.782-.644.494.494,0,0,1,.356.094c.34.288.34.288.616.546.008.172.014.342.022.513a3.192,3.192,0,0,1,.467-.458c.067,0,.083-.016.229-.016,0,.123-.008.245-.012.368a4.062,4.062,0,0,1-.335.786h-.019V4.3c-.082-.063-.681-.6-.779-.687m-1.2-.771c.012.021.012.021.025-.391a1.941,1.941,0,0,1,.683-.513c.293.035.518.336.726.522.006.127.01.256.017.383.184-.19.282-.356.552-.356a1.252,1.252,0,0,1-.241.81,5.428,5.428,0,0,0-.6-.565.565.565,0,0,0-.835.021c-.192.168-.383.335-.573.5-.006.045-.014.09-.022.137a2.1,2.1,0,0,1-.288-.563c0-.115,0-.229,0-.344.266,0,.372.18.56.356m1.418-.542a4.411,4.411,0,0,0-.5-.4.446.446,0,0,0-.522.067c-.178.143-.319.282-.348.3a1.081,1.081,0,0,0-.192-.43,1.765,1.765,0,0,1-.02-.3c.223,0,.223.151.4.254,0-.088.006-.176.01-.264a1.809,1.809,0,0,1,.5-.38,1.869,1.869,0,0,1,.5.38c0,.088.006.176.01.264.133-.125.2-.254.4-.254-.008.108-.018.215-.027.323a1.352,1.352,0,0,0-.186.442Zm-.832,12.908a1.59,1.59,0,0,1-.51-.313q-1.764-1.762-3.531-3.523l-.407-.407-2.793-2.8a.892.892,0,0,1-.051-1.052q1.424-1.427,2.844-2.852a.2.2,0,0,1,.019-.016c2.171-2.165,3.267-3.278,4.106-4.1A1.922,1.922,0,0,1,127.792,0h.254a1.555,1.555,0,0,1,.323.127q.6.592,1.205,1.18a.054.054,0,0,0,.016.016l3.82,3.82q.979.985,1.96,1.97a1.563,1.563,0,0,1,.161.424v.137a1.187,1.187,0,0,1-.262.542q-1.577,1.571-3.151,3.14a.059.059,0,0,1-.016.016q-1.255,1.258-2.512,2.512a.155.155,0,0,0-.016.019q-.577.571-1.154,1.146a1.808,1.808,0,0,1-.34.16Z" transform="translate(2633.469 -6286)" fill="#ef1921" fill-rule="evenodd"/>
    </g>
  </g>
</svg>
