<svg width="360" height="136" viewBox="0 0 360 136" fill="none" xmlns="http://www.w3.org/2000/svg">
<g clip-path="url(#clip0_4890_20096)">
<path d="M198.188 118.03C197.294 117.421 196.212 117.093 194.988 117.093C193.764 117.093 192.776 117.374 191.976 117.983C191.505 118.357 191.082 118.732 190.752 119.2V111.991H187.928V131.044H190.799V129.031C191.176 129.499 191.599 129.967 192.07 130.342C192.87 130.95 193.858 131.231 195.082 131.231C196.306 131.231 197.341 130.904 198.235 130.295C199.082 129.686 199.788 128.797 200.212 127.767C200.636 126.737 200.871 125.52 200.871 124.209C200.871 122.898 200.636 121.681 200.212 120.651C199.741 119.481 199.035 118.638 198.188 118.03ZM197.953 124.116C197.953 125.426 197.623 126.55 197.012 127.393C196.4 128.235 195.553 128.656 194.376 128.656C193.199 128.656 192.352 128.235 191.74 127.393C191.129 126.503 190.799 125.426 190.799 124.116C190.799 122.805 191.129 121.728 191.74 120.839C192.352 119.996 193.199 119.575 194.376 119.575C195.553 119.575 196.447 119.996 197.012 120.839C197.623 121.728 197.953 122.852 197.953 124.116Z" fill="#2D2E77"/>
<path d="M207.698 126.921L204.263 117.418H201.298L206.24 130.057L205.722 131.368C205.487 131.977 205.251 132.445 205.063 132.773C204.922 133.054 204.686 133.288 204.404 133.428C203.98 133.709 203.322 133.756 202.286 133.568L201.863 133.522V135.769L202.145 135.816C202.71 135.956 203.227 136.003 203.698 136.003C204.639 136.003 205.392 135.816 206.004 135.394C206.569 135.02 206.993 134.598 207.275 134.13C207.51 133.709 207.793 133.194 208.028 132.539L214.287 117.371H211.322L207.698 126.921Z" fill="#2D2E77"/>
<path d="M227.749 127.69L222.714 113.177H219.796L226.055 131.06H229.491L235.703 113.177H232.832L227.749 127.69Z" fill="#2D2E77"/>
<path d="M247.134 114.067C246.193 113.458 244.969 113.177 243.51 113.177H237.298V131.013H240.075V125.115H243.51C244.969 125.115 246.193 124.834 247.134 124.225C248.075 123.664 248.781 122.915 249.205 121.978C249.629 121.089 249.817 120.153 249.817 119.169C249.817 118.186 249.629 117.203 249.205 116.314C248.781 115.424 248.075 114.675 247.134 114.067ZM247.04 119.169C247.04 120.433 246.711 121.276 246.005 121.791C245.252 122.306 244.357 122.587 243.228 122.587H240.075V115.799H243.228C244.31 115.799 245.252 116.08 246.005 116.595C246.711 117.063 247.04 117.952 247.04 119.169Z" fill="#2D2E77"/>
<path d="M262.995 121.931C262.759 121.838 262.524 121.744 262.336 121.651C262.477 121.557 262.665 121.463 262.806 121.37C263.277 121.042 263.701 120.574 264.03 120.012C264.36 119.403 264.548 118.701 264.548 117.905C264.548 117.156 264.36 116.407 264.03 115.705C263.701 115.003 263.136 114.394 262.336 113.879C261.536 113.411 260.547 113.177 259.324 113.177H252.076V131.013H259.7C260.924 131.013 262.006 130.732 262.854 130.218C263.701 129.703 264.312 129.047 264.736 128.251C265.113 127.455 265.348 126.613 265.348 125.77C265.348 124.787 265.113 123.944 264.642 123.289C264.171 122.68 263.607 122.212 262.995 121.931ZM254.9 120.714V115.705H258.759C259.653 115.705 260.406 115.892 261.018 116.314C261.583 116.688 261.818 117.297 261.818 118.14C261.818 119.029 261.536 119.684 260.971 120.106C260.359 120.527 259.653 120.761 258.759 120.761H254.9V120.714ZM262.571 125.77C262.571 126.753 262.289 127.456 261.677 127.877C261.018 128.345 260.218 128.532 259.23 128.532H254.9V123.055H259.23C260.218 123.055 261.065 123.289 261.677 123.71C262.289 124.132 262.571 124.787 262.571 125.77Z" fill="#2D2E77"/>
<path d="M276.881 119.204C276.552 118.735 276.128 118.361 275.657 117.986C274.904 117.425 273.869 117.097 272.645 117.097C271.422 117.097 270.386 117.425 269.492 118.033C268.598 118.642 267.939 119.484 267.468 120.561C266.998 121.638 266.809 122.808 266.809 124.119C266.809 125.43 267.045 126.647 267.468 127.677C267.939 128.754 268.598 129.596 269.445 130.205C270.339 130.813 271.375 131.141 272.598 131.141C273.822 131.141 274.81 130.813 275.61 130.252C276.128 129.877 276.552 129.456 276.881 128.941V130.954H279.752V117.331H276.881V119.204ZM276.834 124.119C276.834 125.43 276.505 126.553 275.893 127.396C275.281 128.239 274.434 128.66 273.257 128.66C272.081 128.66 271.186 128.239 270.622 127.396C270.01 126.507 269.68 125.43 269.68 124.072C269.68 122.761 270.01 121.685 270.622 120.795C271.233 119.953 272.081 119.531 273.257 119.531C274.434 119.531 275.281 119.953 275.893 120.795C276.505 121.732 276.834 122.855 276.834 124.119Z" fill="#2D2E77"/>
<path d="M292.709 117.894C291.909 117.332 290.921 117.051 289.744 117.051C288.614 117.051 287.626 117.332 286.826 117.894C286.308 118.222 285.932 118.643 285.602 119.111V117.426H282.779V131.049H285.602V123.231C285.602 122.154 285.885 121.311 286.497 120.656C287.108 120.001 287.908 119.673 288.944 119.673C289.932 119.673 290.685 119.954 291.297 120.562C291.909 121.171 292.191 122.06 292.191 123.231V131.049H295.015V122.997C295.015 121.967 294.827 121.03 294.45 120.141C294.074 119.205 293.509 118.456 292.709 117.894Z" fill="#2D2E77"/>
<path d="M302.622 123.605L308.74 117.425H305.352L300.833 121.919V112.042H297.963V131.048H300.833V125.243L305.54 131.048H308.881L302.622 123.605Z" fill="#2D2E77"/>
<path d="M83.6846 62.5634C85.0494 62.5634 86.3672 62.9379 87.4967 63.5465C89.3322 64.4828 91.3559 64.9977 93.5679 64.9977C100.957 64.9977 106.934 59.0523 106.934 51.7025C106.934 46.5998 104.063 42.1993 99.8744 39.9523C95.0739 37.3775 89.5675 35.9263 83.7316 35.9263C64.7179 35.9263 49.3281 51.2344 49.3281 70.1472C49.3281 89.0601 64.7179 104.368 83.7316 104.368C89.5675 104.368 95.0739 102.917 99.8744 100.342C104.063 98.0952 106.934 93.6947 106.934 88.5919C106.934 81.2422 100.957 75.2968 93.5679 75.2968C91.403 75.2968 89.3322 75.8117 87.4967 76.748C86.3672 77.4034 85.0965 77.7311 83.6846 77.7311C79.4488 77.7311 76.0132 74.3137 76.0132 70.1004C76.0603 65.9808 79.4959 62.5634 83.6846 62.5634Z" fill="#EE4599"/>
<path d="M156.87 43.6962C154.752 39.1553 150.092 35.9719 144.727 35.9719C139.362 35.9719 134.703 39.1553 132.585 43.6962L113.006 85.5011C109.9 92.1487 112.771 100.06 119.454 103.197C126.137 106.286 134.091 103.431 137.244 96.7364L144.727 80.7729L152.21 96.7364C155.316 103.384 163.27 106.286 170 103.197C176.683 100.107 179.601 92.1955 176.448 85.5011L156.87 43.6962Z" fill="#EE4599"/>
<path d="M296.37 81.2878H282.016C286.911 79.9302 290.488 75.4829 290.488 70.1929C290.488 64.9029 286.911 60.4556 282.016 59.098H296.37C302.771 59.098 307.995 53.9017 307.995 47.535C307.995 41.1683 302.771 35.9719 296.37 35.9719H265.167C257.778 35.9719 251.801 41.9173 251.801 49.2671V91.1188C251.801 98.4685 257.778 104.414 265.167 104.414H296.37C302.771 104.414 307.995 99.2175 307.995 92.8509C307.995 86.4842 302.818 81.2878 296.37 81.2878Z" fill="#EE4599"/>
<path d="M236.883 37.752C230.482 34.1005 222.293 36.254 218.622 42.6207L210.716 56.2435V49.0342C210.716 41.778 204.738 35.9263 197.349 35.9263C189.96 35.9263 183.983 41.778 183.983 49.0342V91.0731C183.983 98.4229 189.96 104.368 197.349 104.368C204.738 104.368 210.716 98.4229 210.716 91.0731V83.9105L218.622 97.5334C222.293 103.9 230.482 106.054 236.883 102.402C243.284 98.7506 245.448 90.6049 241.778 84.2382L233.588 70.1004L241.778 55.9627C245.448 49.596 243.284 41.4503 236.883 37.752Z" fill="#EE4599"/>
<path d="M60.7188 18.8833L51.965 5.82227H49V23.6584H51.8238V10.7377L60.5776 23.6584H63.5427V5.82227H60.7188V18.8833Z" fill="#2D2E77"/>
<path d="M75.9685 11.7989C75.1684 10.6286 73.7565 9.64551 71.6857 9.64551C68.2971 9.64551 65.8969 12.4543 65.8969 16.5271C65.8969 20.5999 68.2971 23.4088 71.6857 23.4088C73.7094 23.4088 75.1213 22.4257 75.9685 21.3022V22.6598C75.9685 24.0174 75.4978 26.2645 72.4387 26.2645C71.7327 26.2645 70.9327 26.124 70.6032 26.0304L70.1326 25.8899V28.137L70.1796 28.3711L70.415 28.4647C70.7915 28.6051 71.4033 28.8392 72.5799 28.8392H72.6269C74.4624 28.8392 75.9214 28.2775 77.0509 27.2007C78.6511 25.6091 78.7923 23.5024 78.7923 22.6598V10.0668H75.9214V11.7989H75.9685ZM75.9214 16.4803C75.9214 18.6806 74.8389 20.8809 72.3916 20.8809C69.9443 20.8809 68.8619 18.6806 68.8619 16.4803C68.8619 14.5141 69.8031 12.1734 72.3916 12.1734C74.8389 12.1734 75.9214 14.3269 75.9214 16.4803Z" fill="#2D2E77"/>
<path d="M91.3582 11.8129C90.6052 10.7362 89.2874 9.7063 87.1696 9.7063C83.6398 9.7063 81.2866 12.5619 81.2866 16.7752C81.2866 21.0821 83.5457 23.8441 87.0754 23.8441C89.2874 23.8441 90.6052 22.6738 91.3582 21.6439V23.6568H94.1821V10.034H91.3582V11.8129ZM91.3112 16.7752C91.3112 18.8818 90.3699 21.3161 87.7343 21.3161C85.0988 21.3161 84.1575 18.9755 84.1575 16.7284C84.1575 14.5281 85.0988 12.1874 87.7343 12.1874C90.3699 12.2342 91.3112 14.6686 91.3112 16.7752Z" fill="#2D2E77"/>
<path d="M88.0196 7.03376L89.9022 9.14038H92.9613L89.1491 4.8335H86.9842L83.125 9.14038H86.1371L88.0196 7.03376Z" fill="#2D2E77"/>
<path d="M104.207 9.7063C101.947 9.7063 100.677 10.9235 100.065 11.7661V10.034H97.2411V23.6568H100.065V15.8857C100.065 13.7323 101.383 12.3279 103.406 12.3279C105.43 12.3279 106.654 13.6387 106.654 15.8857V23.6568H109.478V15.6048C109.478 12.8896 108.113 9.7063 104.207 9.7063Z" fill="#2D2E77"/>
<path d="M124.96 9.71142C122.701 9.71142 121.43 10.9286 120.818 11.7712V4.65552H117.994V23.662H120.818V15.8909C120.818 13.7374 122.136 12.333 124.113 12.333C126.183 12.333 127.407 13.6438 127.407 15.8909V23.662H130.231V15.5632C130.231 12.8948 128.819 9.71142 124.96 9.71142Z" fill="#2D2E77"/>
<path d="M140.541 9.00312L137.717 3.90039H134.611L138 9.00312H140.541Z" fill="#2D2E77"/>
<path d="M142.472 11.8129C141.719 10.7362 140.402 9.7063 138.284 9.7063C134.754 9.7063 132.401 12.5619 132.401 16.7752C132.401 21.0821 134.66 23.8441 138.19 23.8441C140.402 23.8441 141.719 22.6738 142.472 21.6439V23.6568H145.296V10.034H142.472V11.8129V11.8129ZM142.425 16.7752C142.425 18.8818 141.484 21.3161 138.849 21.3161C136.213 21.3161 135.272 18.9755 135.272 16.7284C135.272 14.5281 136.213 12.1874 138.849 12.1874C141.484 12.2342 142.425 14.6686 142.425 16.7752Z" fill="#2D2E77"/>
<path d="M155.319 9.7063C153.06 9.7063 151.79 10.9235 151.178 11.7661V10.034H148.354V23.6568H151.178V15.8857C151.178 13.7323 152.496 12.3279 154.519 12.3279C156.543 12.3279 157.767 13.6387 157.767 15.8857V23.6568H160.591V15.6048C160.591 12.8896 159.226 9.7063 155.319 9.7063Z" fill="#2D2E77"/>
<path d="M172.975 11.7989C172.175 10.6286 170.763 9.64551 168.692 9.64551C165.304 9.64551 162.903 12.4543 162.903 16.5271C162.903 20.5999 165.304 23.4088 168.692 23.4088C170.716 23.4088 172.128 22.4257 172.975 21.3022V22.6598C172.975 24.0174 172.504 26.2645 169.445 26.2645C168.739 26.2645 167.939 26.124 167.61 26.0304L167.139 25.8899V28.137V28.3711L167.374 28.4647C167.751 28.6051 168.363 28.8392 169.539 28.8392H169.586C171.422 28.8392 172.881 28.2775 174.01 27.2007C175.61 25.6091 175.752 23.5024 175.752 22.6598V10.0668H172.881V11.7989H172.975ZM172.928 16.4803C172.928 18.6806 171.845 20.8809 169.398 20.8809C166.951 20.8809 165.868 18.6806 165.868 16.4803C165.868 14.5141 166.81 12.1734 169.398 12.1734C171.845 12.1734 172.928 14.3269 172.928 16.4803Z" fill="#2D2E77"/>
<path d="M190.279 15.6048L188.444 15.324C188.067 15.2772 186.75 14.9495 186.75 13.7791C186.75 12.7492 187.644 12.047 189.009 12.047C190.891 12.047 191.362 13.3578 191.362 14.06V14.4813H194.186V14.0132C194.186 11.8597 192.444 9.7063 189.056 9.7063C186.044 9.7063 184.114 11.3448 184.114 13.8259C184.114 15.9325 185.573 17.337 188.161 17.7115L189.856 17.9455C190.421 18.0392 191.691 18.3669 191.691 19.5372C191.691 20.848 190.421 21.3161 189.291 21.3161C187.314 21.3161 186.608 20.0054 186.608 19.1159V18.6477H183.785V19.1159C183.785 21.363 185.714 23.7505 189.244 23.7505C192.303 23.7505 194.468 22.0184 194.468 19.4904C194.421 17.4306 192.962 16.0262 190.279 15.6048Z" fill="#2D2E77"/>
<path d="M210.802 1H207.695L204.824 6.0559H207.366L210.802 1Z" fill="#2D2E77"/>
<path d="M202.479 9.7063C198.055 9.7063 196.032 13.3578 196.032 16.7752C196.032 20.1926 198.055 23.8441 202.479 23.8441C206.903 23.8441 208.88 20.1926 208.88 16.7752C208.927 13.3578 206.903 9.7063 202.479 9.7063ZM206.103 16.7284C206.103 19.0223 204.974 21.3161 202.527 21.3161C200.032 21.3161 198.903 19.0223 198.903 16.7284C198.903 14.4813 200.032 12.1874 202.527 12.1874C204.974 12.1874 206.103 14.4813 206.103 16.7284Z" fill="#2D2E77"/>
<path d="M202.48 7.03376L204.41 9.14038H207.469L203.61 4.8335H201.445L197.586 9.14038H200.598L202.48 7.03376Z" fill="#2D2E77"/>
</g>
<defs>
<clipPath id="clip0_4890_20096">
<rect width="360" height="136" fill="white"/>
</clipPath>
</defs>
</svg>
