<?xml version="1.0" encoding="utf-8"?>
<!-- Generator: Adobe Illustrator 25.4.1, SVG Export Plug-In . SVG Version: 6.00 Build 0)  -->
<svg version="1.1" id="Layer_1" xmlns="http://www.w3.org/2000/svg" xmlns:xlink="http://www.w3.org/1999/xlink" x="0px" y="0px"
	 viewBox="0 0 206.04 136" style="enable-background:new 0 0 206.04 136;" xml:space="preserve">
<style type="text/css">
	.st0{fill:#0961AD;}
	.st1{fill:url(#SVGID_1_);}
	.st2{fill:url(#SVGID_00000178204696236920556100000001068445132129260729_);}
	.st3{opacity:0.31;fill:url(#SVGID_00000148633082608257301080000005813909982211267727_);}
	.st4{opacity:0.31;fill:url(#SVGID_00000093880364116201553250000013502072295545969825_);}
</style>
<g>
	<g>
		<path class="st0" d="M22.1,128.25h-3.79v-11.07l-4.18,11.07h-3.28L6.6,117.19v11.07H2.81v-16.59h4.14c0.26,0,0.52,0.04,0.76,0.11
			c0.25,0.07,0.47,0.17,0.68,0.3c0.2,0.13,0.38,0.28,0.54,0.46c0.15,0.18,0.27,0.38,0.35,0.6l2.91,8.3
			c0.04,0.12,0.08,0.26,0.11,0.42c0.03,0.15,0.07,0.3,0.1,0.44c0.03,0.16,0.06,0.33,0.08,0.51c0.01-0.17,0.03-0.34,0.06-0.5
			c0.02-0.14,0.05-0.29,0.09-0.45c0.03-0.16,0.08-0.3,0.13-0.42l2.88-8.3c0.08-0.23,0.2-0.44,0.36-0.63
			c0.16-0.19,0.35-0.34,0.56-0.46c0.21-0.12,0.44-0.22,0.68-0.28c0.25-0.07,0.49-0.1,0.74-0.1h4.12V128.25z"/>
		<path class="st0" d="M24.94,122.18c0-0.86,0.16-1.67,0.49-2.43c0.33-0.76,0.78-1.42,1.34-1.99c0.57-0.57,1.23-1.01,1.99-1.34
			c0.76-0.33,1.57-0.49,2.43-0.49c0.86,0,1.67,0.16,2.43,0.49c0.76,0.33,1.42,0.78,1.99,1.34s1.01,1.23,1.34,1.99
			c0.33,0.76,0.49,1.57,0.49,2.43s-0.16,1.67-0.49,2.43c-0.33,0.76-0.78,1.42-1.34,1.99c-0.57,0.57-1.23,1.02-1.99,1.34
			c-0.76,0.33-1.57,0.49-2.43,0.49c-0.86,0-1.67-0.16-2.43-0.49c-0.76-0.33-1.42-0.78-1.99-1.34c-0.57-0.57-1.01-1.23-1.34-1.99
			C25.1,123.84,24.94,123.03,24.94,122.18z M28.73,122.19c0,0.33,0.06,0.65,0.19,0.94c0.13,0.3,0.3,0.56,0.52,0.78
			c0.22,0.22,0.48,0.39,0.78,0.52c0.3,0.13,0.61,0.19,0.94,0.19c0.33,0,0.65-0.06,0.94-0.19c0.3-0.13,0.56-0.3,0.78-0.52
			c0.22-0.22,0.4-0.48,0.53-0.78c0.13-0.3,0.19-0.61,0.19-0.94s-0.06-0.65-0.19-0.94c-0.13-0.3-0.3-0.56-0.53-0.78
			c-0.22-0.22-0.48-0.4-0.78-0.53c-0.3-0.13-0.61-0.19-0.94-0.19c-0.33,0-0.65,0.06-0.94,0.19c-0.3,0.13-0.56,0.3-0.78,0.53
			c-0.22,0.22-0.39,0.48-0.52,0.78C28.8,121.54,28.73,121.86,28.73,122.19z"/>
		<path class="st0" d="M40.07,111.67h3.79v5.02c0.29-0.21,0.63-0.39,1.02-0.54c0.39-0.15,0.79-0.23,1.21-0.23
			c0.86,0,1.67,0.16,2.43,0.49c0.76,0.33,1.42,0.78,1.99,1.34c0.57,0.57,1.01,1.23,1.34,1.99c0.33,0.76,0.49,1.57,0.49,2.43
			c0,0.85-0.16,1.65-0.49,2.41c-0.32,0.76-0.77,1.42-1.33,1.99c-0.56,0.57-1.21,1.02-1.96,1.35c-0.75,0.33-1.55,0.5-2.4,0.5h-0.08
			c-0.25,0-0.52-0.04-0.78-0.11c-0.27-0.07-0.52-0.17-0.75-0.28c-0.24-0.11-0.45-0.24-0.63-0.38c-0.19-0.14-0.33-0.28-0.43-0.42
			l-0.09-0.07c-0.02,0.19-0.04,0.36-0.08,0.49c-0.04,0.14-0.08,0.25-0.12,0.33c-0.05,0.1-0.09,0.19-0.14,0.25h-3V111.67z
			 M46.07,124.62c0.33,0,0.65-0.06,0.94-0.19c0.3-0.13,0.56-0.3,0.78-0.52c0.22-0.22,0.4-0.48,0.53-0.78
			c0.13-0.3,0.19-0.61,0.19-0.94s-0.06-0.65-0.19-0.94c-0.13-0.3-0.3-0.56-0.53-0.78c-0.22-0.22-0.48-0.4-0.78-0.53
			c-0.3-0.13-0.61-0.19-0.94-0.19c-0.49,0-0.92,0.13-1.31,0.39c-0.39,0.26-0.69,0.6-0.89,1.02v2.06c0.2,0.42,0.5,0.75,0.89,1.01
			C45.14,124.49,45.58,124.62,46.07,124.62z"/>
		<path class="st0" d="M54.75,112.8c0-0.3,0.06-0.57,0.18-0.82c0.12-0.24,0.28-0.45,0.48-0.62c0.2-0.17,0.44-0.3,0.71-0.39
			c0.27-0.09,0.57-0.14,0.87-0.14c0.31,0,0.6,0.05,0.87,0.14c0.27,0.09,0.51,0.22,0.71,0.39c0.2,0.17,0.36,0.38,0.48,0.62
			c0.12,0.24,0.18,0.52,0.18,0.82c0,0.3-0.06,0.57-0.18,0.82c-0.12,0.24-0.28,0.45-0.48,0.62c-0.2,0.17-0.44,0.3-0.71,0.39
			c-0.27,0.09-0.57,0.14-0.87,0.14c-0.31,0-0.6-0.05-0.87-0.14c-0.27-0.09-0.51-0.22-0.71-0.39c-0.2-0.17-0.36-0.38-0.48-0.62
			C54.81,113.37,54.75,113.1,54.75,112.8z M58.89,116.1v12.16h-3.8V116.1H58.89z"/>
		<path class="st0" d="M72.66,118.4v3.54h-6.08v6.31h-3.79v-16.59h11.04v3.54h-7.26v3.2H72.66z"/>
		<path class="st0" d="M74.54,122.18c0-0.86,0.16-1.67,0.49-2.43c0.33-0.76,0.78-1.42,1.34-1.99c0.57-0.57,1.23-1.01,1.99-1.34
			c0.76-0.33,1.57-0.49,2.43-0.49c0.86,0,1.67,0.16,2.43,0.49s1.42,0.78,1.99,1.34c0.57,0.57,1.01,1.23,1.34,1.99
			c0.33,0.76,0.49,1.57,0.49,2.43s-0.16,1.67-0.49,2.43c-0.33,0.76-0.78,1.42-1.34,1.99c-0.57,0.57-1.23,1.02-1.99,1.34
			s-1.57,0.49-2.43,0.49c-0.86,0-1.67-0.16-2.43-0.49c-0.76-0.33-1.42-0.78-1.99-1.34c-0.57-0.57-1.01-1.23-1.34-1.99
			C74.71,123.84,74.54,123.03,74.54,122.18z M78.34,122.19c0,0.33,0.06,0.65,0.19,0.94c0.13,0.3,0.3,0.56,0.52,0.78
			c0.22,0.22,0.48,0.39,0.78,0.52c0.3,0.13,0.61,0.19,0.94,0.19c0.33,0,0.65-0.06,0.94-0.19c0.3-0.13,0.56-0.3,0.78-0.52
			c0.22-0.22,0.4-0.48,0.53-0.78c0.13-0.3,0.19-0.61,0.19-0.94s-0.06-0.65-0.19-0.94c-0.13-0.3-0.3-0.56-0.53-0.78
			c-0.22-0.22-0.48-0.4-0.78-0.53c-0.3-0.13-0.61-0.19-0.94-0.19c-0.33,0-0.65,0.06-0.94,0.19c-0.3,0.13-0.56,0.3-0.78,0.53
			c-0.22,0.22-0.39,0.48-0.52,0.78C78.4,121.54,78.34,121.86,78.34,122.19z"/>
		<path class="st0" d="M92.46,116.1c0.19,0.21,0.33,0.48,0.4,0.82c0.07,0.34,0.09,0.68,0.06,1.02c0.09-0.26,0.25-0.52,0.48-0.76
			c0.23-0.24,0.5-0.46,0.8-0.64c0.31-0.19,0.65-0.33,1.01-0.45c0.37-0.11,0.74-0.17,1.12-0.17c0.73,0,1.37,0.13,1.94,0.39
			c0.57,0.26,1.05,0.63,1.44,1.11c0.39,0.48,0.69,1.06,0.9,1.74c0.21,0.68,0.31,1.45,0.31,2.29v6.8h-3.79v-6.62
			c0-0.43-0.04-0.78-0.12-1.04c-0.08-0.26-0.19-0.46-0.31-0.59c-0.13-0.14-0.26-0.22-0.41-0.27c-0.15-0.04-0.28-0.06-0.41-0.06
			c-0.33,0-0.65,0.04-0.96,0.12c-0.31,0.08-0.57,0.19-0.8,0.33c-0.23,0.14-0.42,0.31-0.56,0.52c-0.14,0.2-0.21,0.43-0.21,0.68v6.93
			h-3.79V116.1H92.46z"/>
		<path class="st0" d="M115.75,121.53c0,0.36-0.07,0.67-0.22,0.93c-0.15,0.26-0.33,0.47-0.56,0.63c-0.22,0.16-0.47,0.28-0.74,0.35
			s-0.52,0.11-0.77,0.11h-6c0.08,0.28,0.22,0.52,0.41,0.74c0.15,0.19,0.36,0.36,0.63,0.51c0.27,0.15,0.61,0.23,1.04,0.23
			c0.22,0,0.44-0.03,0.64-0.1c0.2-0.07,0.41-0.14,0.61-0.23c0.2-0.08,0.41-0.16,0.62-0.23c0.21-0.07,0.44-0.1,0.69-0.1
			c0.36,0,0.68,0.06,0.95,0.18c0.27,0.12,0.52,0.3,0.75,0.53l0.96,0.96c-0.73,0.79-1.54,1.39-2.43,1.79c-0.89,0.4-1.79,0.6-2.72,0.6
			c-0.86,0-1.68-0.16-2.44-0.49c-0.76-0.33-1.43-0.78-2-1.34c-0.57-0.57-1.02-1.23-1.35-1.99c-0.33-0.76-0.5-1.57-0.5-2.43
			s0.17-1.67,0.5-2.43c0.33-0.76,0.78-1.42,1.35-1.99c0.57-0.57,1.23-1.01,2-1.34c0.76-0.33,1.58-0.49,2.44-0.49
			c0.72,0,1.41,0.13,2.07,0.39c0.66,0.26,1.27,0.61,1.81,1.05c0.54,0.44,1,0.96,1.39,1.55c0.39,0.59,0.66,1.21,0.81,1.87
			c0.03,0.12,0.05,0.26,0.05,0.41C115.74,121.34,115.75,121.45,115.75,121.53z M111.86,120.85c-0.14-0.29-0.31-0.54-0.52-0.76
			c-0.18-0.19-0.41-0.37-0.7-0.53c-0.29-0.16-0.64-0.24-1.06-0.24c-0.44,0-0.81,0.09-1.1,0.27c-0.29,0.18-0.53,0.38-0.71,0.6
			c-0.2,0.25-0.36,0.54-0.47,0.86c0.05-0.03,0.1-0.06,0.16-0.09c0.05-0.02,0.12-0.05,0.19-0.07c0.07-0.02,0.15-0.03,0.23-0.03
			H111.86z"/>
		<path class="st0" d="M145.06,128.25h-3.79v-11.07l-4.18,11.07h-3.28l-4.26-11.07v11.07h-3.79v-16.59h4.14
			c0.26,0,0.52,0.04,0.76,0.11c0.25,0.07,0.47,0.17,0.68,0.3c0.2,0.13,0.38,0.28,0.54,0.46c0.15,0.18,0.27,0.38,0.35,0.6l2.91,8.3
			c0.04,0.12,0.08,0.26,0.11,0.42c0.03,0.15,0.07,0.3,0.1,0.44c0.03,0.16,0.06,0.33,0.08,0.51c0.01-0.17,0.03-0.34,0.06-0.5
			c0.02-0.14,0.05-0.29,0.09-0.45c0.03-0.16,0.08-0.3,0.13-0.42l2.88-8.3c0.08-0.23,0.2-0.44,0.36-0.63
			c0.16-0.19,0.35-0.34,0.56-0.46c0.21-0.12,0.44-0.22,0.68-0.28c0.25-0.07,0.49-0.1,0.74-0.1h4.12V128.25z"/>
		<path class="st0" d="M147.89,122.18c0-0.86,0.16-1.67,0.49-2.43c0.33-0.76,0.78-1.42,1.34-1.99c0.57-0.57,1.23-1.01,1.99-1.34
			c0.76-0.33,1.57-0.49,2.43-0.49c0.86,0,1.67,0.16,2.43,0.49s1.42,0.78,1.99,1.34c0.57,0.57,1.01,1.23,1.34,1.99
			c0.33,0.76,0.49,1.57,0.49,2.43s-0.16,1.67-0.49,2.43c-0.33,0.76-0.78,1.42-1.34,1.99c-0.57,0.57-1.23,1.02-1.99,1.34
			s-1.57,0.49-2.43,0.49c-0.86,0-1.67-0.16-2.43-0.49c-0.76-0.33-1.42-0.78-1.99-1.34c-0.57-0.57-1.01-1.23-1.34-1.99
			C148.06,123.84,147.89,123.03,147.89,122.18z M151.69,122.19c0,0.33,0.06,0.65,0.19,0.94c0.13,0.3,0.3,0.56,0.52,0.78
			c0.22,0.22,0.48,0.39,0.78,0.52c0.3,0.13,0.61,0.19,0.94,0.19c0.33,0,0.65-0.06,0.94-0.19c0.3-0.13,0.56-0.3,0.78-0.52
			c0.22-0.22,0.4-0.48,0.53-0.78c0.13-0.3,0.19-0.61,0.19-0.94s-0.06-0.65-0.19-0.94c-0.13-0.3-0.3-0.56-0.53-0.78
			c-0.22-0.22-0.48-0.4-0.78-0.53c-0.3-0.13-0.61-0.19-0.94-0.19c-0.33,0-0.65,0.06-0.94,0.19c-0.3,0.13-0.56,0.3-0.78,0.53
			c-0.22,0.22-0.39,0.48-0.52,0.78C151.75,121.54,151.69,121.86,151.69,122.19z"/>
		<path class="st0" d="M165.81,116.1c0.19,0.21,0.33,0.48,0.4,0.82c0.07,0.34,0.09,0.68,0.06,1.02c0.09-0.26,0.25-0.52,0.48-0.76
			c0.23-0.24,0.5-0.46,0.8-0.64c0.31-0.19,0.65-0.33,1.01-0.45c0.37-0.11,0.74-0.17,1.12-0.17c0.73,0,1.37,0.13,1.94,0.39
			c0.57,0.26,1.05,0.63,1.44,1.11c0.39,0.48,0.69,1.06,0.9,1.74c0.21,0.68,0.31,1.45,0.31,2.29v6.8h-3.79v-6.62
			c0-0.43-0.04-0.78-0.12-1.04c-0.08-0.26-0.19-0.46-0.31-0.59c-0.13-0.14-0.26-0.22-0.41-0.27c-0.15-0.04-0.28-0.06-0.41-0.06
			c-0.33,0-0.65,0.04-0.96,0.12c-0.31,0.08-0.57,0.19-0.8,0.33c-0.23,0.14-0.42,0.31-0.56,0.52c-0.14,0.2-0.21,0.43-0.21,0.68v6.93
			h-3.79V116.1H165.81z"/>
		<path class="st0" d="M189.1,121.53c0,0.36-0.07,0.67-0.22,0.93c-0.15,0.26-0.33,0.47-0.56,0.63c-0.22,0.16-0.47,0.28-0.74,0.35
			s-0.52,0.11-0.77,0.11h-6c0.08,0.28,0.22,0.52,0.41,0.74c0.15,0.19,0.36,0.36,0.63,0.51c0.27,0.15,0.61,0.23,1.04,0.23
			c0.22,0,0.44-0.03,0.64-0.1c0.2-0.07,0.41-0.14,0.61-0.23c0.2-0.08,0.41-0.16,0.62-0.23c0.21-0.07,0.44-0.1,0.69-0.1
			c0.36,0,0.68,0.06,0.95,0.18c0.27,0.12,0.52,0.3,0.75,0.53l0.96,0.96c-0.73,0.79-1.54,1.39-2.43,1.79c-0.89,0.4-1.79,0.6-2.72,0.6
			c-0.86,0-1.68-0.16-2.44-0.49c-0.76-0.33-1.43-0.78-2-1.34c-0.57-0.57-1.02-1.23-1.35-1.99c-0.33-0.76-0.5-1.57-0.5-2.43
			s0.17-1.67,0.5-2.43c0.33-0.76,0.78-1.42,1.35-1.99c0.57-0.57,1.23-1.01,2-1.34c0.76-0.33,1.58-0.49,2.44-0.49
			c0.72,0,1.41,0.13,2.07,0.39c0.66,0.26,1.27,0.61,1.81,1.05c0.54,0.44,1,0.96,1.39,1.55c0.39,0.59,0.66,1.21,0.81,1.87
			c0.03,0.12,0.05,0.26,0.05,0.41C189.09,121.34,189.1,121.45,189.1,121.53z M185.21,120.85c-0.14-0.29-0.31-0.54-0.52-0.76
			c-0.18-0.19-0.41-0.37-0.7-0.53c-0.29-0.16-0.64-0.24-1.06-0.24c-0.44,0-0.81,0.09-1.1,0.27c-0.29,0.18-0.53,0.38-0.71,0.6
			c-0.2,0.25-0.36,0.54-0.47,0.86c0.05-0.03,0.1-0.06,0.16-0.09c0.05-0.02,0.12-0.05,0.19-0.07s0.15-0.03,0.23-0.03H185.21z"/>
		<path class="st0" d="M189.77,116.1h2.49c0.25,0,0.49,0.03,0.72,0.1c0.24,0.07,0.46,0.17,0.66,0.3c0.2,0.13,0.38,0.28,0.53,0.46
			c0.15,0.18,0.26,0.38,0.34,0.61l1.49,3.8c0.13,0.33,0.22,0.62,0.26,0.85c0.04,0.24,0.06,0.43,0.06,0.57c0,0.11-0.01,0.2-0.02,0.28
			c-0.01,0.03-0.02,0.06-0.02,0.09l2.19-5.63c0.18-0.45,0.47-0.8,0.89-1.05c0.41-0.25,0.87-0.38,1.36-0.38h2.51l-6.62,15.17
			c-0.08,0.23-0.2,0.44-0.36,0.63c-0.15,0.19-0.33,0.34-0.53,0.47c-0.2,0.13-0.42,0.23-0.66,0.3c-0.24,0.07-0.48,0.1-0.72,0.1h-2.5
			l2.58-5.96L189.77,116.1z"/>
	</g>
	<g>
		<g>
			<linearGradient id="SVGID_1_" gradientUnits="userSpaceOnUse" x1="112.3073" y1="4.1038" x2="93.7376" y2="102.6266">
				<stop  offset="0" style="stop-color:#0961AD"/>
				<stop  offset="0.0992" style="stop-color:#0E60AA"/>
				<stop  offset="0.2167" style="stop-color:#1C5BA1"/>
				<stop  offset="0.3434" style="stop-color:#345493"/>
				<stop  offset="0.4766" style="stop-color:#564B7F"/>
				<stop  offset="0.615" style="stop-color:#803E66"/>
				<stop  offset="0.7556" style="stop-color:#B42F47"/>
				<stop  offset="0.8842" style="stop-color:#EA1F27"/>
			</linearGradient>
			<path class="st1" d="M103.02,103.49C75.38,103.49,52.9,81,52.9,53.37c0-27.64,22.49-50.12,50.12-50.12
				c27.64,0,50.12,22.49,50.12,50.12C153.15,81,130.66,103.49,103.02,103.49z M103.02,6.44c-25.87,0-46.92,21.05-46.92,46.92
				c0,25.87,21.05,46.92,46.92,46.92c25.87,0,46.92-21.05,46.92-46.92C149.95,27.49,128.9,6.44,103.02,6.44z"/>
		</g>
		<g>
			<g>
				
					<linearGradient id="SVGID_00000069398048448317280600000016777902417309530000_" gradientUnits="userSpaceOnUse" x1="140.4319" y1="23.7198" x2="75.0107" y2="75.6648">
					<stop  offset="1.615344e-07" style="stop-color:#0961AD"/>
					<stop  offset="0.0992" style="stop-color:#0E60AA"/>
					<stop  offset="0.2167" style="stop-color:#1C5BA1"/>
					<stop  offset="0.3434" style="stop-color:#345493"/>
					<stop  offset="0.4766" style="stop-color:#564B7F"/>
					<stop  offset="0.615" style="stop-color:#803E66"/>
					<stop  offset="0.7556" style="stop-color:#B42F47"/>
					<stop  offset="0.8842" style="stop-color:#EA1F27"/>
				</linearGradient>
				<path style="fill:url(#SVGID_00000069398048448317280600000016777902417309530000_);" d="M127.93,79.99
					c-6.03,0-10.94-4.91-10.94-10.94v-4.96l-6.12,6.12c-2.07,2.07-4.81,3.2-7.73,3.2c-0.03,0-0.06,0-0.09,0
					c-2.9,0-5.64-1.14-7.71-3.2l-6.12-6.12v4.96c0,6.03-4.91,10.94-10.94,10.94c-6.03,0-10.94-4.91-10.94-10.94V37.68
					c0-0.35,0.02-0.72,0.05-1.08c0.01-0.14,0.03-0.28,0.06-0.42l0.02-0.14c0.02-0.17,0.05-0.33,0.08-0.5
					c0.03-0.15,0.07-0.31,0.11-0.46l0.04-0.15c0.03-0.14,0.07-0.28,0.11-0.42c0.05-0.16,0.1-0.31,0.15-0.45L68,33.92
					c0.05-0.14,0.1-0.28,0.16-0.42c0.06-0.14,0.12-0.27,0.19-0.41l0.06-0.13c0.07-0.14,0.14-0.29,0.21-0.43
					c0.07-0.13,0.14-0.26,0.22-0.38l0.08-0.13c0.08-0.14,0.16-0.27,0.25-0.41c0.1-0.14,0.2-0.28,0.3-0.41l0.09-0.12
					c0.08-0.11,0.17-0.23,0.26-0.34c0.45-0.55,0.97-1.07,1.52-1.52c0.11-0.09,0.22-0.17,0.34-0.26l0.12-0.09
					c0.13-0.1,0.27-0.2,0.4-0.29c0.14-0.09,0.28-0.17,0.41-0.26l0.13-0.08c0.12-0.08,0.25-0.15,0.38-0.22
					c0.14-0.07,0.28-0.14,0.43-0.21l0.13-0.06c0.14-0.07,0.27-0.13,0.41-0.19c0.14-0.06,0.28-0.11,0.42-0.16l0.14-0.05
					c0.15-0.05,0.3-0.11,0.45-0.15c0.15-0.04,0.29-0.08,0.43-0.11l0.15-0.04c0.15-0.04,0.31-0.08,0.47-0.11
					c0.16-0.03,0.33-0.06,0.5-0.08l0.14-0.02c0.14-0.02,0.28-0.04,0.42-0.06c0.71-0.07,1.44-0.07,2.15,0
					c0.14,0.01,0.28,0.03,0.42,0.06l0.14,0.02c0.17,0.02,0.33,0.05,0.5,0.08c0.16,0.03,0.31,0.07,0.46,0.11l0.15,0.04
					c0.14,0.03,0.28,0.07,0.42,0.11c0.16,0.05,0.3,0.1,0.45,0.15l0.14,0.05c0.14,0.05,0.28,0.1,0.42,0.16
					c0.14,0.06,0.28,0.12,0.41,0.19L83,27.82c0.14,0.07,0.28,0.13,0.42,0.21c0.13,0.07,0.26,0.15,0.38,0.22l0.13,0.08
					c0.14,0.08,0.28,0.16,0.41,0.25c0.14,0.09,0.27,0.19,0.41,0.3l0.11,0.08c0.11,0.08,0.23,0.17,0.34,0.26
					c0.28,0.23,0.55,0.48,0.8,0.72l17.09,17.09l17.09-17.09c0.25-0.25,0.52-0.49,0.8-0.72c0.11-0.09,0.22-0.17,0.34-0.26l0.11-0.08
					c0.13-0.1,0.27-0.2,0.41-0.3c0.14-0.09,0.27-0.17,0.41-0.25l0.13-0.08c0.12-0.08,0.25-0.15,0.38-0.22
					c0.14-0.07,0.28-0.14,0.43-0.21l0.13-0.06c0.14-0.07,0.27-0.13,0.41-0.19c0.14-0.06,0.28-0.11,0.42-0.16l0.14-0.05
					c0.15-0.05,0.3-0.11,0.45-0.15c0.14-0.04,0.28-0.08,0.42-0.11l0.15-0.04c0.15-0.04,0.31-0.08,0.46-0.11
					c0.16-0.03,0.33-0.06,0.5-0.08l0.14-0.02c0.14-0.02,0.28-0.04,0.42-0.06c0.72-0.07,1.43-0.07,2.15,0
					c0.14,0.01,0.28,0.03,0.42,0.06l0.14,0.02c0.17,0.02,0.33,0.05,0.5,0.08c0.15,0.03,0.31,0.07,0.46,0.11l0.15,0.04
					c0.14,0.03,0.28,0.07,0.42,0.11c0.16,0.05,0.3,0.1,0.45,0.15l0.14,0.05c0.14,0.05,0.28,0.1,0.42,0.16
					c0.14,0.06,0.28,0.12,0.41,0.19l0.13,0.06c0.14,0.07,0.29,0.14,0.43,0.21c0.13,0.07,0.25,0.14,0.38,0.22l0.13,0.08
					c0.14,0.08,0.27,0.16,0.41,0.25c0.14,0.09,0.28,0.19,0.41,0.3l0.11,0.08c0.11,0.08,0.23,0.17,0.34,0.26
					c0.55,0.45,1.07,0.97,1.52,1.52c0.09,0.11,0.17,0.22,0.26,0.33l0.09,0.12c0.1,0.13,0.2,0.27,0.3,0.41
					c0.09,0.13,0.17,0.27,0.25,0.41l0.08,0.13c0.08,0.12,0.15,0.25,0.22,0.38c0.08,0.14,0.15,0.29,0.21,0.43l0.06,0.13
					c0.07,0.14,0.13,0.27,0.19,0.41c0.06,0.14,0.11,0.28,0.16,0.42l0.05,0.14c0.06,0.15,0.11,0.3,0.16,0.45
					c0.04,0.14,0.08,0.28,0.11,0.43l0.04,0.14c0.04,0.16,0.08,0.31,0.11,0.47c0.03,0.16,0.06,0.33,0.08,0.5l0.02,0.14
					c0.02,0.14,0.04,0.28,0.06,0.42c0.04,0.36,0.05,0.72,0.05,1.07v31.38C138.87,75.08,133.96,79.99,127.93,79.99z M123.46,56.41
					v12.52c0,2.33,1.72,4.36,4.04,4.58c2.66,0.25,4.9-1.84,4.9-4.45V37.68c0-0.14-0.01-0.28-0.02-0.42l-0.05-0.34
					c-0.01-0.04-0.01-0.08-0.02-0.12c-0.01-0.02-0.02-0.06-0.02-0.09l-0.09-0.34c-0.01-0.01-0.02-0.05-0.03-0.09l-0.25-0.61
					c-0.02-0.04-0.05-0.1-0.07-0.14l-0.15-0.24c-0.02-0.03-0.04-0.06-0.06-0.09c-0.01-0.02-0.04-0.05-0.06-0.08l-0.21-0.28
					c-0.18-0.22-0.38-0.42-0.59-0.59l-0.27-0.2c-0.03-0.03-0.07-0.05-0.1-0.08c-0.02-0.01-0.05-0.03-0.08-0.05l-0.3-0.18
					c-0.01-0.01-0.05-0.02-0.08-0.04l-0.61-0.25c-0.04-0.01-0.11-0.04-0.15-0.05l-0.28-0.07c-0.03-0.01-0.07-0.02-0.1-0.03
					c-0.02,0-0.06-0.01-0.1-0.01l-0.34-0.05c-0.29-0.03-0.55-0.03-0.84,0l-0.34,0.05c-0.04,0.01-0.08,0.01-0.12,0.02
					c-0.02,0-0.05,0.01-0.09,0.02l-0.34,0.09c-0.01,0-0.05,0.02-0.08,0.03l-0.65,0.27c-0.02,0.01-0.04,0.02-0.06,0.03l-0.28,0.17
					c-0.03,0.02-0.06,0.04-0.09,0.06c-0.02,0.01-0.05,0.04-0.09,0.07l-0.27,0.2c-0.11,0.09-0.22,0.19-0.31,0.28l-17.23,17.23
					c-2.45,2.45-6.42,2.45-8.87,0L81.43,34.52c-0.09-0.09-0.2-0.19-0.31-0.28l-0.28-0.2c-0.03-0.03-0.07-0.05-0.1-0.08
					c-0.02-0.01-0.05-0.03-0.08-0.05l-0.3-0.18c-0.01,0-0.04-0.02-0.08-0.04l-0.65-0.27c-0.02-0.01-0.05-0.02-0.07-0.02l-0.32-0.08
					c-0.04-0.01-0.07-0.02-0.11-0.03c-0.02,0-0.06-0.01-0.1-0.01l-0.34-0.05c-0.28-0.03-0.56-0.03-0.84,0l-0.34,0.05
					c-0.04,0.01-0.08,0.01-0.12,0.02c-0.02,0-0.05,0.01-0.09,0.02l-0.34,0.09c-0.01,0-0.05,0.02-0.08,0.03l-0.65,0.27
					c-0.02,0.01-0.04,0.02-0.06,0.03l-0.28,0.17c-0.03,0.02-0.06,0.04-0.09,0.06c-0.02,0.01-0.05,0.04-0.09,0.07l-0.28,0.2
					c-0.22,0.18-0.42,0.38-0.59,0.59l-0.21,0.28c-0.03,0.03-0.05,0.07-0.07,0.1c-0.01,0.02-0.03,0.05-0.05,0.08l-0.18,0.3
					c-0.01,0.01-0.02,0.05-0.04,0.09l-0.25,0.61c-0.01,0.04-0.04,0.11-0.05,0.15l-0.07,0.28c-0.01,0.03-0.02,0.07-0.03,0.1
					c0,0.02-0.01,0.06-0.01,0.1l-0.05,0.34c-0.01,0.15-0.02,0.29-0.02,0.42l0,31.24c0,2.33,1.72,4.36,4.04,4.58
					c2.66,0.25,4.9-1.84,4.9-4.45V56.41c0-2.93,3.54-4.39,5.61-2.32L99.9,65.64c0.84,0.84,1.97,1.31,3.16,1.31c0.01,0,0.03,0,0.04,0
					c1.22,0,2.34-0.46,3.19-1.31l11.56-11.56C119.92,52.01,123.46,53.48,123.46,56.41z"/>
			</g>
			
				<linearGradient id="SVGID_00000153663198349590726620000013780838290187186076_" gradientUnits="userSpaceOnUse" x1="85.096" y1="64.0059" x2="86.6425" y2="62.2461">
				<stop  offset="3.106431e-09" style="stop-color:#FFFFFF;stop-opacity:0"/>
				<stop  offset="1" style="stop-color:#000000"/>
			</linearGradient>
			<polygon style="opacity:0.31;fill:url(#SVGID_00000153663198349590726620000013780838290187186076_);" points="89.17,64.05 
				82.69,57.62 82.69,61.71 89.17,68.49 			"/>
			
				<linearGradient id="SVGID_00000101788175482488920610000008766864196764233876_" gradientUnits="userSpaceOnUse" x1="121.2546" y1="64.1039" x2="119.4415" y2="62.3974">
				<stop  offset="3.106431e-09" style="stop-color:#FFFFFF;stop-opacity:0"/>
				<stop  offset="1" style="stop-color:#000000"/>
			</linearGradient>
			<polygon style="opacity:0.31;fill:url(#SVGID_00000101788175482488920610000008766864196764233876_);" points="116.98,64.13 
				123.47,57.7 123.47,61.79 116.98,68.57 			"/>
		</g>
	</g>
</g>
</svg>
