<svg id="Layer_1" data-name="Layer 1" xmlns="http://www.w3.org/2000/svg" width="313.5mm" height="88.91mm" viewBox="0 0 888.67 252.02"><defs><style>.cls-1{fill:#33bbed;}.cls-2{fill:#bed747;}.cls-3{fill:#1e4079;}</style></defs><path class="cls-1" d="M132.73,76.66,13.21,132.39A9.28,9.28,0,0,1,0,124V68.67a9.27,9.27,0,0,1,5.36-8.41L132.69.88A9.28,9.28,0,0,1,145.9,9.3V56A22.83,22.83,0,0,1,132.73,76.66Z"/><path class="cls-1" d="M140.54,191.77,13.21,251.14A9.28,9.28,0,0,1,0,242.73V196a22.81,22.81,0,0,1,13.17-20.67l119.52-55.74a9.29,9.29,0,0,1,13.21,8.42v55.3A9.3,9.3,0,0,1,140.54,191.77Z"/><path class="cls-2" d="M140.54,119.63,13.21,60.26A9.28,9.28,0,0,0,0,68.67V124a9.28,9.28,0,0,0,5.36,8.41l127.33,59.38a9.29,9.29,0,0,0,13.21-8.42v-55.3A9.3,9.3,0,0,0,140.54,119.63Z"/><path class="cls-3" d="M90.54,96.32,13.21,132.39A9.28,9.28,0,0,1,0,124V68.67a9.28,9.28,0,0,1,13.21-8.41Z"/><path class="cls-3" d="M55.36,155.7l77.33,36.06a9.28,9.28,0,0,0,13.21-8.41v-55.3a9.29,9.29,0,0,0-13.21-8.42Z"/><path class="cls-3" d="M267.84,65.09q-10.9-5.4-25.68-5.4H199V192.33h24.25V143.44h18.95q14.78,0,25.68-5.4a39.53,39.53,0,0,0,16.67-14.87,40.69,40.69,0,0,0,5.78-21.6A40.64,40.64,0,0,0,284.51,80,39.55,39.55,0,0,0,267.84,65.09Zm-5,46.33a18.33,18.33,0,0,1-7.95,6.92A29.6,29.6,0,0,1,242,120.89H223.21V82.24H242a30.53,30.53,0,0,1,12.89,2.46,17.6,17.6,0,0,1,7.95,6.92,19.05,19.05,0,0,1,2.66,9.95A18.55,18.55,0,0,1,262.81,111.42Z"/><path class="cls-3" d="M367.32,142.12h45.5a36.6,36.6,0,0,1-5.33,12.31,38.54,38.54,0,0,1-15.06,13,47.85,47.85,0,0,1-21.51,4.64,43.77,43.77,0,0,1-38.66-22.64,49.58,49.58,0,0,1,0-46.8A43.77,43.77,0,0,1,370.92,80q14.4,0,24.25,6.34a51.32,51.32,0,0,1,16.3,17.15h25.58a66.55,66.55,0,0,0-14-24.25A64.53,64.53,0,0,0,400.19,63.1a74,74,0,0,0-29.27-5.68,69.9,69.9,0,0,0-34.68,8.9A67.17,67.17,0,0,0,301.57,126a67.17,67.17,0,0,0,34.67,59.69,69.8,69.8,0,0,0,34.68,8.9q19.89,0,35.24-8.81a62.87,62.87,0,0,0,24-24.16q8.63-15.34,8.62-34.86v-7.2H367.32Z"/><path class="cls-3" d="M527.1,121.29a34.56,34.56,0,0,0,7-4.47,30.31,30.31,0,0,0,7.77-9.66,26.24,26.24,0,0,0,2.84-12,32.73,32.73,0,0,0-5.4-18.67,34.49,34.49,0,0,0-15.63-12.41q-10.23-4.35-24.44-4.36H458.49V192.33h43.58q15.34,0,26.24-5t16.49-13.83a37.28,37.28,0,0,0,5.58-20.37,31.94,31.94,0,0,0-7.48-21.23A34.6,34.6,0,0,0,527.1,121.29ZM499.23,80.73q9.84,0,15.34,4.64a15,15,0,0,1,5.5,12,15.76,15.76,0,0,1-2.37,8.53,16,16,0,0,1-7.11,6,26.9,26.9,0,0,1-11.36,2.18H482.74V80.73Zm23.59,81.38a18.82,18.82,0,0,1-7.87,6.72,28.07,28.07,0,0,1-12.31,2.47h-19.9V134.16h19.9A28.21,28.21,0,0,1,515,136.62a19.15,19.15,0,0,1,7.87,6.63,17.6,17.6,0,0,1,0,18.86Z"/><path class="cls-3" d="M640,107.35a40,40,0,0,0-5.68-5.21,37.87,37.87,0,0,0-11.66-5.78,48.84,48.84,0,0,0-14.3-2,46.3,46.3,0,0,0-23.6,6.44,50,50,0,0,0-24.72,43.77,49.94,49.94,0,0,0,24.72,43.58,46.3,46.3,0,0,0,23.6,6.44q11.75,0,20.36-4.35A39.49,39.49,0,0,0,640,181.6v10.73h22.17V96.64H640Zm-3.51,51.72a27,27,0,0,1-10.32,10.33,29.44,29.44,0,0,1-28.9,0A27.9,27.9,0,0,1,587,159.07a28.39,28.39,0,0,1-3.79-14.49A28.83,28.83,0,0,1,587,129.89a28,28,0,0,1,10.33-10.32,29.44,29.44,0,0,1,28.9,0,27.06,27.06,0,0,1,10.32,10.32,29.28,29.28,0,0,1,3.7,14.69A28.82,28.82,0,0,1,636.5,159.07Z"/><path class="cls-3" d="M755,99.77a38,38,0,0,0-20.08-5.4,39.64,39.64,0,0,0-12.41,1.89,38.27,38.27,0,0,0-10.9,5.69,40.91,40.91,0,0,0-5.49,4.94V96.64H683.78v95.69h23.11V139.46a25.15,25.15,0,0,1,2.94-12.22,21.33,21.33,0,0,1,8.15-8.43,22.37,22.37,0,0,1,11.46-3,21.61,21.61,0,0,1,11.46,2.94,19,19,0,0,1,7.4,8.33,28.75,28.75,0,0,1,2.55,12.41v52.87h22.93V135.67a44.85,44.85,0,0,0-4.93-21A37,37,0,0,0,755,99.77Z"/><polygon class="cls-3" points="791.14 59.69 791.14 192.33 814.25 192.33 814.25 145.17 814.25 59.69 791.14 59.69"/><polygon class="cls-3" points="843.63 142.96 885.64 96.64 856.13 96.64 814.25 143.82 858.02 192.33 888.67 192.33 843.63 142.96"/></svg>