<svg id="sacombank" xmlns="http://www.w3.org/2000/svg" xmlns:xlink="http://www.w3.org/1999/xlink" width="104" height="52" viewBox="0 0 104 52">
  <defs>
    <clipPath id="clip-path">
      <rect id="Rectangle_5136" data-name="Rectangle 5136" width="103.929" height="15.739" fill="none"/>
    </clipPath>
  </defs>
  <g id="boundingbox" fill="rgba(255,0,0,0.1)" stroke="red" stroke-width="1" stroke-dasharray="4 4" opacity="0">
    <rect width="104" height="52" stroke="none"/>
    <rect x="0.5" y="0.5" width="103" height="51" fill="none"/>
  </g>
  <g id="Group_10345" data-name="Group 10345" transform="translate(0 18.113)">
    <g id="Group_10344" data-name="Group 10344" transform="translate(0 0)" clip-path="url(#clip-path)">
      <path id="Path_16710" data-name="Path 16710" d="M75.982,15.04a5.171,5.171,0,0,0-2.879-.772,5.277,5.277,0,0,0-.743.035,5.9,5.9,0,0,0-2.786,1,4.778,4.778,0,0,0-1.951,3.179l-.037.4-.057.474A2.76,2.76,0,0,0,68.7,21.768a5.045,5.045,0,0,0,2.952.823c.261,0,.5-.018.708-.035a2.009,2.009,0,0,0,.388-.068,6.624,6.624,0,0,0,.763-.176,5.678,5.678,0,0,0,.556-.2,7.537,7.537,0,0,0,1.079-.561,5.032,5.032,0,0,0,.909-.821,4.915,4.915,0,0,0,1.077-2.445l.073-.808a2.661,2.661,0,0,0-1.224-2.442M73.4,19.624a1.468,1.468,0,0,1-1.039.809,1.288,1.288,0,0,1-.372.035c-.742,0-1.116-.44-1.116-1.317a7.729,7.729,0,0,1,.539-2,1.462,1.462,0,0,1,.949-.758,2,2,0,0,1,.464-.052c.687,0,1.039.474,1.039,1.424a3.864,3.864,0,0,1-.464,1.859" transform="translate(-32.438 -6.853)" fill="#034694"/>
      <path id="Path_16711" data-name="Path 16711" d="M35.071,14.761a5.409,5.409,0,0,0-2.73-.492H32.1c-.484,0-.91.019-1.317.055q-3.261.338-3.677,2.58H30.3a1.027,1.027,0,0,1,.485-.58,1.609,1.609,0,0,1,.816-.191c.649,0,.966.191.966.56,0,.246-.168.439-.52.58a6.539,6.539,0,0,1-1.262.245c-.115.019-.226.035-.353.053l-1.226.176-.836.16a4.136,4.136,0,0,0-1.449.683,2.662,2.662,0,0,0-.928,1.579.977.977,0,0,1-.057.232v.334A1.425,1.425,0,0,0,26.547,22a3.29,3.29,0,0,0,1.894.6h.168a5.259,5.259,0,0,0,2.174-.457,6.278,6.278,0,0,0,1.075-.648v.861h3.4l.036-.141a1.079,1.079,0,0,1-.351-.6l.092-.526.721-3.827a6.977,6.977,0,0,0,.1-.968,1.694,1.694,0,0,0-.781-1.528M31.6,20.224a1.934,1.934,0,0,1-.558.436,1.381,1.381,0,0,1-.258.091,1.584,1.584,0,0,1-.485.071c-.595,0-.89-.2-.89-.6v-.071a.825.825,0,0,1,.427-.631l.5-.2a2.114,2.114,0,0,1,.447-.124c.072,0,.147-.017.22-.017a7.048,7.048,0,0,0,1.149-.318,2.775,2.775,0,0,1-.553,1.356" transform="translate(-12.458 -6.854)" fill="#034694"/>
      <path id="Path_16712" data-name="Path 16712" d="M55.728,15.1a4.872,4.872,0,0,0-3.025-.827A5.64,5.64,0,0,0,48.859,15.5a5.273,5.273,0,0,0-1.727,3.037L47.1,18.9l-.074.421a3.014,3.014,0,0,0,1.038,2.32,4.535,4.535,0,0,0,3.066.912,6.476,6.476,0,0,0,3.324-.825A3.917,3.917,0,0,0,56.3,19.309H53.018a1.56,1.56,0,0,1-1.467,1.161c-.8,0-1.208-.425-1.208-1.284a6.894,6.894,0,0,1,.537-2.034,1.466,1.466,0,0,1,1.414-.811.921.921,0,0,1,.743.3.91.91,0,0,1,.24.649l-.015.193H56.6l.02-.44a2.4,2.4,0,0,0-.893-1.947" transform="translate(-22.587 -6.854)" fill="#034694"/>
      <path id="Path_16713" data-name="Path 16713" d="M12.217,1.068A6.313,6.313,0,0,0,8.343,0c-.353,0-.67.019-.966.039-.315.04-.592.06-.87.1A8.936,8.936,0,0,0,4.931.583,6.572,6.572,0,0,0,2.522,2.219,4.84,4.84,0,0,0,1.409,4.529l-.037.486L1.3,5.62A2.906,2.906,0,0,0,2.522,8.185a10.668,10.668,0,0,0,3.429,1.4,19.169,19.169,0,0,1,2.022.7.906.906,0,0,1,.48.74v.252c-.167.68-.836,1.031-1.984,1.031a2.387,2.387,0,0,1-1.332-.389,1.358,1.358,0,0,1-.614-1.2H.056A1.779,1.779,0,0,0,0,11.274a3.885,3.885,0,0,0,1.372,3.054,5.965,5.965,0,0,0,4.173,1.4A9.45,9.45,0,0,0,10.4,14.5a5.324,5.324,0,0,0,2.611-3.89l.056-.875A2.9,2.9,0,0,0,12,7.407a7.99,7.99,0,0,0-3.043-1.38l-1.5-.406a3.884,3.884,0,0,1-1.222-.545.852.852,0,0,1-.336-.662l.019-.175c.109-.526.631-.8,1.539-.8,1.148,0,1.741.389,1.741,1.2v.081h4.431V4.471a4.024,4.024,0,0,0-1.408-3.4" transform="translate(0 0)" fill="#034694"/>
      <path id="Path_16714" data-name="Path 16714" d="M167.739,14.814a3.167,3.167,0,0,0-1.969-.545,4.176,4.176,0,0,0-3.1,1.457l.238-1.264h-3.026l-1.466,7.887h3.324l.741-4.025a2.452,2.452,0,0,1,.579-1.281,1.412,1.412,0,0,1,1-.315.82.82,0,0,1,.929.932v.264l-.021.245-.777,4.18h3.288l.89-4.742a4.332,4.332,0,0,0,.092-.947,2.18,2.18,0,0,0-.723-1.845" transform="translate(-76.096 -6.854)" fill="#034694"/>
      <path id="Path_16715" data-name="Path 16715" d="M190.025,9.711H186.17L183.6,12.1,184.914,5h-3.3l-2.374,12.9h3.3l.48-2.5.716-.6,1.235,3.108h3.955l-2.528-5.15Z" transform="translate(-86.096 -2.402)" fill="#034694"/>
      <path id="Path_16716" data-name="Path 16716" d="M101.772,14.778a3.067,3.067,0,0,0-1.948-.509,4.236,4.236,0,0,0-3.177,1.439c-.3-.964-1.1-1.439-2.416-1.439h-.075a3.437,3.437,0,0,0-1.539.4,4.264,4.264,0,0,0-1.3.967l.2-1.178H88.494l-1.449,7.887h3.29l.741-4.025a2.712,2.712,0,0,1,.555-1.225,1.3,1.3,0,0,1,.929-.371.75.75,0,0,1,.857.842l-.057.685L92.6,22.349H95.9l.744-4.025a2.157,2.157,0,0,1,.592-1.333,1.492,1.492,0,0,1,.856-.263.992.992,0,0,1,.707.194.849.849,0,0,1,.2.631,5.069,5.069,0,0,1-.09.771l-.744,4.025h3.307l.871-4.708a6.353,6.353,0,0,0,.094-1.122,2.084,2.084,0,0,0-.668-1.741" transform="translate(-41.812 -6.854)" fill="#034694"/>
      <path id="Path_16717" data-name="Path 16717" d="M147.16,14.761a5.359,5.359,0,0,0-2.71-.492h-.262c-.464,0-.908.019-1.3.055q-3.286.338-3.679,2.58H142.4a1.06,1.06,0,0,1,.485-.58,1.581,1.581,0,0,1,.819-.191c.629,0,.963.191.963.56,0,.246-.185.439-.521.58a6.736,6.736,0,0,1-1.261.245c-.112.019-.241.035-.372.053l-1.206.176-.855.16a4.189,4.189,0,0,0-1.429.683,2.674,2.674,0,0,0-.931,1.579c0,.035-.035.125-.057.232v.334A1.431,1.431,0,0,0,138.655,22a3.241,3.241,0,0,0,1.895.6h.149a5.087,5.087,0,0,0,3.248-1.105v.861h3.415l.04-.141a1.075,1.075,0,0,1-.35-.6l.091-.526.725-3.827a7.648,7.648,0,0,0,.091-.968,1.669,1.669,0,0,0-.8-1.528m-3.451,5.464a1.792,1.792,0,0,1-.578.436,1.174,1.174,0,0,1-.241.091,1.658,1.658,0,0,1-.485.071c-.591,0-.889-.2-.889-.6v-.071a.8.8,0,0,1,.426-.631l.484-.2a2.7,2.7,0,0,1,.464-.124c.056,0,.131-.017.2-.017a6.915,6.915,0,0,0,1.168-.318,2.8,2.8,0,0,1-.554,1.356" transform="translate(-66.308 -6.854)" fill="#034694"/>
      <path id="Path_16718" data-name="Path 16718" d="M124.879,9.807a4.043,4.043,0,0,0-1.393.211c-.163.088-.334.174-.5.28a5.566,5.566,0,0,0-.725.527l1.057-5.845H120l-2.358,12.906h2.971l.244-1.109a2.148,2.148,0,0,0,2.134,1.352h.166a4.1,4.1,0,0,0,3.344-1.579,5.542,5.542,0,0,0,1.283-3.62,3,3,0,0,0-.857-2.3,2.753,2.753,0,0,0-2.044-.828m-.929,5.3a1.59,1.59,0,0,1-.963.722,2.2,2.2,0,0,1-.334.035c-.744,0-1.116-.457-1.116-1.355a5.927,5.927,0,0,1,.577-1.7,1.206,1.206,0,0,1,.873-.581,2.46,2.46,0,0,1,.372-.034c.723,0,1.076.44,1.076,1.317a2.9,2.9,0,0,1-.484,1.6" transform="translate(-56.507 -2.392)" fill="#034694"/>
    </g>
  </g>
</svg>
