<svg width="360" height="136" viewBox="0 0 360 136" fill="none" xmlns="http://www.w3.org/2000/svg">
<g clip-path="url(#clip0_1659_561)">
<path d="M69.6556 34.1553H30.0503C22.2905 34.1553 16 40.4459 16 48.2056V87.7944C16 95.5541 22.2905 101.845 30.0503 101.845H69.6556C77.4154 101.845 83.7059 95.5541 83.7059 87.7944V48.2056C83.7059 40.4459 77.4154 34.1553 69.6556 34.1553Z" fill="#D71920"/>
<path d="M49.8529 37.3125C32.8934 37.3125 19.1572 51.0487 19.1572 67.9917C19.1572 84.9347 32.8934 98.6875 49.8364 98.6875C66.7959 98.6875 80.5322 84.9513 80.5322 67.9917C80.5322 51.0487 66.7959 37.3125 49.8364 37.3125M31.9677 68.0083C36.1498 66.471 39.8524 64.0907 42.8939 61.0492C45.9519 58.0078 48.3157 54.3051 49.8529 50.1231C51.3902 54.2886 53.7705 58.0078 56.812 61.0492C59.8534 64.0907 63.5561 66.471 67.7381 68.0083C63.5726 69.5455 59.8534 71.9258 56.812 74.9673C53.7705 78.0088 51.3902 81.7114 49.8529 85.8935C48.3322 81.7114 45.9519 78.0088 42.8939 74.9673C39.8524 71.9258 36.1498 69.5455 31.9677 68.0083ZM23.1904 65.909C24.2318 52.8174 34.6456 42.4037 47.7371 41.3623C46.5801 54.8506 36.6787 64.7354 23.1904 65.909ZM23.1904 70.1075C36.6787 71.2812 46.5801 81.166 47.7371 94.6542C34.6456 93.6129 24.2318 83.1991 23.1904 70.1075ZM76.4989 70.1075C75.4575 83.1991 65.0438 93.6129 51.9522 94.6542C53.1093 81.166 63.0106 71.2812 76.4989 70.1075ZM76.4989 65.909C63.0106 64.7354 53.1093 54.8506 51.9522 41.3623C65.0438 42.4037 75.4575 52.8174 76.4989 65.909Z" fill="white"/>
<path d="M129.758 72.4548C129.311 71.3473 128.634 70.3224 127.708 69.3802C126.882 68.5703 125.89 67.8595 124.782 67.2479C123.675 66.6528 122.518 66.1073 121.328 65.6445C120.022 65.1321 118.666 64.6362 117.278 64.1734C115.889 63.7271 114.501 63.1816 113.063 62.5534C111.492 61.8757 110.319 61.0162 109.509 59.9913C108.715 58.983 108.319 57.7102 108.319 56.1399C108.319 54.6687 108.914 53.4621 110.17 52.4207C111.41 51.3793 112.914 50.8669 114.716 50.8669C116.451 50.8669 117.889 51.1644 119.03 51.7595C120.204 52.3546 121.195 53.148 122.005 54.1398C122.848 55.1812 123.526 56.3548 124.055 57.6441C124.601 58.95 125.08 60.3219 125.51 61.76L125.592 62.0245H128.634L128.386 48.6354H125.46L124.336 50.338C123.129 49.6768 121.824 49.0982 120.385 48.6023C118.815 48.0568 117.046 47.7758 115.079 47.7758C113.344 47.7758 111.691 48.0403 110.087 48.5858C108.484 49.1313 107.096 49.8751 105.922 50.8338C104.682 51.8422 103.723 53.0158 103.046 54.3051C102.368 55.6109 102.037 57.0325 102.037 58.5367C102.037 61.1154 102.715 63.2642 104.087 64.9007C105.443 66.5206 107.327 67.8264 109.74 68.8017C110.947 69.2976 112.385 69.8431 114.038 70.4051C115.691 70.9671 117.162 71.4795 118.435 71.9423C120.253 72.6035 121.592 73.5457 122.485 74.802C123.394 76.0583 123.84 77.3972 123.84 78.8518C123.84 79.8601 123.691 80.7362 123.394 81.48C123.113 82.2239 122.683 82.8685 122.088 83.4305C121.509 83.976 120.733 84.4058 119.757 84.7198C118.799 85.0339 117.641 85.1827 116.319 85.1827C114.55 85.1827 113.013 84.8851 111.707 84.2735C110.368 83.6619 109.228 82.852 108.22 81.8271C107.162 80.7196 106.319 79.546 105.674 78.2732C105.029 77.0005 104.467 75.5624 103.971 73.9755L103.889 73.711H100.831L101.277 87.5134H104.203L105.393 85.6786C106.715 86.3728 108.253 86.9679 110.005 87.4638C111.906 87.9927 113.807 88.2738 115.708 88.2738C119.823 88.2738 123.328 87.1663 126.121 84.9182C128.948 82.6867 130.369 79.7609 130.369 76.3062C130.369 74.8516 130.155 73.5623 129.708 72.4382" fill="#231F20"/>
<path d="M271.269 84.538C270.657 84.538 270.228 84.4388 270.029 84.3066C269.517 84.0421 269.153 83.7281 268.938 83.3975C268.723 83.0669 268.608 82.5875 268.608 81.9429C268.608 79.5956 268.641 77.4302 268.69 75.4632C268.74 73.4796 268.79 71.1985 268.79 68.6529C268.79 66.8181 268.509 65.2974 267.963 64.1072C267.418 62.9171 266.608 61.9584 265.55 61.2476C264.508 60.5368 263.335 60.074 262.062 59.8591C260.806 59.6607 259.335 59.545 257.665 59.545C256.425 59.545 255.153 59.7269 253.863 60.0905C252.59 60.4376 251.483 60.8839 250.557 61.3964C249.499 62.008 248.64 62.7022 247.962 63.4956C247.268 64.2891 246.904 65.1817 246.921 66.1073C246.921 66.9669 247.169 67.7603 247.681 68.4546C248.21 69.1984 249.086 69.5786 250.144 69.5621C251.301 69.5621 252.26 69.2811 252.971 68.686C253.648 68.124 254.029 67.4463 254.029 66.6859C254.029 66.0578 253.929 65.3635 253.731 64.6527C253.582 64.0742 253.5 63.6279 253.467 63.3303C253.748 63.1155 254.21 62.884 254.855 62.6526C255.599 62.3881 256.392 62.2559 257.252 62.2559C258.525 62.2559 259.467 62.5039 260.095 62.9336C260.773 63.3965 261.285 63.9419 261.665 64.5535C261.996 65.1156 262.211 65.6941 262.31 66.3057C262.409 66.9504 262.459 67.3967 262.459 67.5785V70.0084C261.5 70.4381 259.748 71.0497 257.252 71.8101C254.541 72.6366 252.739 73.1986 251.847 73.5127C251.119 73.7606 250.342 74.1077 249.516 74.5375C248.673 74.9673 247.995 75.4797 247.466 76.0417C246.805 76.7194 246.309 77.4798 245.979 78.3394C245.631 79.1989 245.466 80.1576 245.466 81.2155C245.466 83.2652 246.226 85.0009 247.714 86.2737C249.185 87.563 251.086 88.1911 253.351 88.1911C255.467 88.1911 257.285 87.844 258.806 87.1332C260.194 86.4885 261.5 85.5959 262.707 84.4388C263.037 85.5298 263.632 86.4059 264.492 87.0175C265.484 87.7283 266.789 88.0754 268.376 88.0754C269.285 88.0754 270.112 87.9762 270.856 87.7779C271.567 87.596 272.377 87.3316 273.319 87.034L273.567 86.9514V84.5876H273.203C272.542 84.5876 271.881 84.5876 271.253 84.5546M262.541 72.9672L262.376 81.6123C261.698 82.3892 260.855 83.0503 259.864 83.6289C258.855 84.2074 257.698 84.505 256.359 84.505C255.103 84.505 254.111 84.1744 253.334 83.5462C252.59 82.9346 252.194 81.9759 252.177 80.5544C252.177 79.4799 252.442 78.5543 252.971 77.7939C253.516 77.0005 254.26 76.3227 255.202 75.7277C256.26 75.0995 257.401 74.5706 258.64 74.1408C259.764 73.7606 261.07 73.3639 262.541 72.9672Z" fill="#231F20"/>
<path d="M307.453 84.7529C307.139 84.6868 306.742 84.5546 306.296 84.3893C305.767 84.2074 305.453 83.9264 305.271 83.6454C305.072 83.3479 304.973 82.9181 304.973 82.3396V68.5537C304.973 65.8594 304.279 63.6444 302.857 61.9914C301.419 60.2889 299.221 59.4789 296.361 59.4789C295.072 59.4789 293.915 59.6277 292.873 59.9252C291.849 60.2227 290.956 60.5864 290.179 61.0327C289.534 61.4129 288.84 61.9253 288.113 62.5369C287.617 62.9502 287.187 63.3303 286.807 63.6609V60.4707L286.278 59.9748L286.162 59.8591L275.964 60.4707V62.9502H276.311C276.889 63.0163 277.418 63.0659 277.914 63.165C278.393 63.2642 278.79 63.3965 279.121 63.5948C279.584 63.8758 279.931 64.2395 280.179 64.7023C280.427 65.1651 280.559 65.661 280.559 66.2065V82.5379C280.559 83.133 280.443 83.5793 280.228 83.8934C280.013 84.2074 279.699 84.4388 279.203 84.5876C278.873 84.6868 278.493 84.7529 278.03 84.786C277.55 84.819 277.071 84.8521 276.625 84.8851H276.278V87.3977H291.287V84.9017H290.939C290.444 84.8521 289.964 84.786 289.485 84.7033C289.022 84.6207 288.609 84.4884 288.212 84.3231C287.7 84.1248 287.353 83.8603 287.138 83.5462C286.906 83.2156 286.791 82.8024 286.791 82.2569V67.1487C286.972 66.8842 287.22 66.5536 287.551 66.1239C287.898 65.6776 288.394 65.2643 289.022 64.8676C289.667 64.4544 290.411 64.1072 291.254 63.8262C292.08 63.5452 292.989 63.3965 293.997 63.3965C295.303 63.3965 296.378 63.8593 297.287 64.818C298.18 65.7437 298.659 67.0826 298.659 68.9009V82.5214C298.659 83.1165 298.527 83.5628 298.328 83.8768C298.113 84.1909 297.799 84.4223 297.303 84.5711C296.989 84.6703 296.56 84.7364 296.047 84.7694C295.502 84.8025 295.006 84.8356 294.543 84.8686H294.212V87.3811H309.188V84.8851H308.841C308.23 84.8356 307.783 84.7694 307.453 84.7198" fill="#231F20"/>
<path d="M343.636 84.9017C342.347 84.8356 341.372 84.6372 340.76 84.3397C340.149 84.0587 339.405 83.414 338.562 82.3726C337.636 81.2486 336.165 79.4138 334.148 76.8847C332.231 74.4879 330.495 72.4217 328.941 70.653C330.363 69.4629 331.47 68.4876 332.297 67.7273C333.173 66.9338 333.834 66.3553 334.281 66.0082C334.925 65.4957 335.884 64.9007 337.14 64.2229C338.38 63.5618 339.818 63.0163 341.454 62.57L341.735 62.5039V60.1897H328.181V62.6196L328.512 62.6526C329.272 62.7353 330.082 62.9006 330.925 63.132C331.751 63.3634 331.95 63.6444 331.933 63.8428C331.933 63.8758 331.9 64.0246 331.735 64.256C331.553 64.504 331.388 64.7023 331.256 64.8511C330.032 66.0908 328.545 67.5124 326.759 69.1158C325.206 70.5043 323.768 71.8266 322.396 73.0333V45.7261L321.867 45.2137L321.751 45.098L310.461 45.7261V48.1395H310.808C311.337 48.2056 312.031 48.2552 312.908 48.3544C313.751 48.437 314.346 48.6189 314.676 48.8503C315.123 49.1313 315.47 49.5115 315.751 50.0569C316.032 50.5859 316.164 51.1479 316.164 51.743V82.5379C316.164 83.133 316.048 83.5793 315.817 83.8934C315.585 84.2074 315.271 84.4554 314.792 84.5876C314.494 84.6703 314.114 84.7364 313.635 84.786C313.155 84.819 312.676 84.8686 312.23 84.9017L311.883 84.9347V87.4142H326.892V84.9182H326.545C325.983 84.8686 325.503 84.8025 325.09 84.7199C324.677 84.6372 324.247 84.505 323.801 84.3231C323.272 84.1413 322.941 83.8934 322.743 83.5628C322.528 83.2156 322.412 82.7528 322.412 82.1577V76.0417L324.429 74.3392C326.231 76.4384 327.966 78.5708 329.636 80.7692C331.388 83.0834 333.024 85.2488 334.578 87.2654L334.694 87.4142H344.05V84.9182H343.686L343.636 84.9017Z" fill="#231F20"/>
<path d="M203.348 84.8356C202.902 84.819 202.323 84.7364 201.613 84.5546C200.918 84.3893 200.373 84.2074 199.96 83.976C199.332 83.5958 198.852 83.1991 198.522 82.8189C198.191 82.4387 197.877 81.9098 197.596 81.2486L183.777 48.7346H180.967L180.868 48.9495C178.917 53.5282 176.686 58.7516 174.19 64.5866C171.694 70.4547 169.413 75.7277 167.346 80.4221C166.95 81.3147 166.553 82.009 166.156 82.4883C165.76 82.9677 165.198 83.4471 164.454 83.8934C164.024 84.1413 163.445 84.3562 162.718 84.5215C161.974 84.6868 161.363 84.786 160.9 84.819H160.553V87.4142H176.801V84.819H176.454C174.95 84.7364 173.611 84.505 172.438 84.1248C171.247 83.7446 170.851 83.2818 170.867 82.852C170.867 82.5875 170.917 82.2073 171.016 81.761C171.099 81.3147 171.281 80.7031 171.512 79.9593C171.793 79.1989 172.091 78.3559 172.438 77.4468C172.752 76.6037 173.81 74.0086 174.388 72.6862H186.819L190.934 82.6206C191.001 82.7693 191.05 82.9512 191.083 83.1495C191.116 83.3644 191.133 83.5462 191.133 83.6785C191.133 83.6785 191.133 83.7611 190.918 83.8934C190.72 84.0256 190.389 84.1578 189.893 84.2901C188.934 84.538 187.711 84.7199 186.207 84.819H185.86V87.4142H203.712V84.819H203.365L203.348 84.8356ZM185.513 69.7439H175.628L180.521 58.1565L185.513 69.7439Z" fill="#231F20"/>
<path d="M160.867 80.5709L158.487 79.2485L158.305 79.5626C157.148 81.4635 155.957 82.7693 154.751 83.4636C153.544 84.1744 152.106 84.5215 150.403 84.5215C148.701 84.5215 147.312 84.224 146.139 83.6619C144.949 83.0834 144.006 82.3065 143.263 81.3147C142.502 80.2733 141.94 79.0832 141.61 77.6947C141.279 76.4384 141.097 74.1243 141.081 72.4382H160.354V71.2812C160.354 69.6612 160.139 68.1405 159.677 66.7355C159.214 65.3304 158.52 64.1072 157.577 63.0493C156.586 61.9418 155.313 61.0823 153.742 60.4707C152.172 59.826 150.304 59.5285 148.139 59.5285C146.023 59.5285 144.089 59.9252 142.387 60.7352C140.684 61.5451 139.246 62.5865 138.089 63.9089C136.899 65.2643 135.99 66.8016 135.378 68.4876C134.766 70.1902 134.452 71.9093 134.452 73.678C134.452 75.6285 134.733 77.4798 135.312 79.2485C135.89 81.0007 136.766 82.5545 137.94 83.8934C139.114 85.2323 140.618 86.2736 142.436 87.0505C144.254 87.8274 146.354 88.2076 148.734 88.2076C151.445 88.2076 153.875 87.563 155.991 86.2736C158.09 84.9843 159.776 83.2487 161.016 81.0833L161.214 80.7527L160.883 80.5709H160.867ZM143.196 64.3387C144.519 62.9667 146.106 62.322 148.089 62.3055C149.279 62.3055 150.222 62.5369 150.916 62.9502C151.643 63.3965 152.222 63.9585 152.652 64.6527C153.032 65.2974 153.329 66.1404 153.511 67.1652C153.66 68.0248 153.759 68.8348 153.776 69.5951H141.048C141.229 67.314 141.957 65.5784 143.163 64.3221L143.196 64.3387Z" fill="#231F20"/>
<path d="M239.548 73.1325C238.722 71.9589 237.763 71.0332 236.507 70.2233C235.35 69.4959 233.201 68.3058 230.176 67.9256C233.978 66.8842 236.49 64.3717 237.251 63.165C238.028 61.9418 238.408 60.4707 238.408 58.7847C238.408 57.0986 238.011 55.5283 237.201 54.2224C236.408 52.9497 235.383 51.8917 234.094 51.0653C232.87 50.2718 231.498 49.6768 229.961 49.2635C228.44 48.8503 226.87 48.6519 225.25 48.6519H206.489V51.3628H207.431C207.811 51.4124 208.423 51.4785 209.249 51.5777C210.026 51.6769 210.605 51.8091 210.869 51.9248C211.349 52.1232 211.646 52.3876 211.812 52.6686C211.993 52.9662 212.093 53.3794 212.093 53.9414V68.438V82.2073C212.093 82.7528 211.977 83.1661 211.795 83.4471C211.613 83.7281 211.283 83.976 210.754 84.1909C210.44 84.3066 209.828 84.4388 208.968 84.538C208.076 84.6537 207.415 84.7199 206.968 84.7529H206.753L206.522 84.786V87.4473H226.473C228.226 87.4473 229.945 87.2489 231.614 86.8522C233.284 86.4389 234.788 85.8604 236.127 85.0835C237.515 84.2735 238.656 83.2322 239.515 81.9759C240.391 80.6866 240.838 79.1824 240.838 77.4798C240.838 75.7772 240.408 74.3557 239.565 73.149M219.316 51.743C219.895 51.7265 220.605 51.7099 221.415 51.6769C222.341 51.6438 223.101 51.6273 223.713 51.6273C226.308 51.6273 228.159 52.2389 229.317 53.4125C230.474 54.6026 231.069 56.2225 231.069 58.3384C231.069 59.6277 230.936 60.7186 230.672 61.6278C230.408 62.5369 229.928 63.3799 229.25 64.1568C228.606 64.9007 227.746 65.4627 226.655 65.8429C225.564 66.2231 224.258 66.4214 222.721 66.4214H219.333V51.7265L219.316 51.743ZM231.036 82.2404C229.581 83.5958 227.465 84.2901 224.639 84.2901C222.92 84.2901 221.597 84.0256 220.671 83.5462C219.762 83.0503 219.333 82.3892 219.333 81.4304V69.5455C219.746 69.5455 220.291 69.5125 221.002 69.4959C221.845 69.4629 222.87 69.4629 224.11 69.4629C227.085 69.4629 229.333 70.1075 230.903 71.3638C232.474 72.6366 233.251 74.24 233.251 76.207C233.251 78.9014 232.507 80.8849 231.036 82.2404Z" fill="#231F20"/>
</g>
<defs>
<clipPath id="clip0_1659_561">
<rect width="328" height="67.6894" fill="white" transform="translate(16 34.1553)"/>
</clipPath>
</defs>
</svg>
