<svg width="350" height="150" viewBox="0 0 350 150" fill="none" xmlns="http://www.w3.org/2000/svg">
<path d="M261.332 50.6378C257.669 65.0439 257.743 76.1233 259.385 82.3691C259.96 84.5348 260.845 87.4065 259.919 88.7235C258.993 90.0405 254.161 90.5565 248.801 87.807C243.441 85.0575 239.419 78.8796 240.886 65.6956C241.487 61.2353 241.264 62.9054 241.507 60.2645C242.048 54.4328 240.264 52.0431 233.7 55.9739C227.137 59.9047 218.695 65.1525 204.751 80.2102C198.891 86.5375 195.153 92.1926 191.476 92.2945C187.799 92.3963 185.203 89.8437 184.122 87.5965C181.628 82.3759 182.77 77.0262 185.697 65.8246C188.623 54.6229 189.928 51.6154 185.812 51.6154C181.08 51.6154 166.298 58.2482 157.693 70.2849C148.703 82.8375 148.704 93.1634 142.228 93.6387C139.633 93.8288 136.659 91.955 135.063 88.2551C133.468 84.5551 135.111 76.9312 137.727 67.0873C140.301 57.8098 143.368 48.677 146.912 39.7281C147.906 37.3112 150.069 35.3085 154.097 36.9311C156.199 37.7971 157.936 39.3694 159.011 41.3792C160.086 43.3889 160.432 45.7114 159.991 47.9494C163.594 44.8401 172.787 38.9813 182.783 34.9894C191.989 31.2963 202.189 29.857 205.981 34.6636C209.773 39.4701 209.036 46.646 205.454 55.3833C220.696 41.1741 232.22 34.3377 242.122 30.6378C248.97 28.0716 256.195 29.0288 259.818 33.2175C263.813 37.8611 262.522 43.9372 261.332 50.6378Z" fill="#EB3300"/>
<path d="M309.331 24.9994C288.067 25.6783 270.128 41.6322 269.303 59.4802C268.479 77.3282 284.626 87.206 300.159 86.4185C315.692 85.631 335.719 76.3981 340.417 56.7918C345.831 34.2187 326.263 24.4699 309.331 24.9994ZM321.876 56.7035C318.294 66.3777 306.756 71.6798 298.179 70.8448C288.749 69.9079 286.857 63.7436 289.114 55.8414C291.372 47.9391 298.577 39.6634 309.128 39.2289C318.564 38.8284 325.79 46.1332 321.876 56.7035V56.7035Z" fill="#FF9425"/>
<path d="M132.368 35.3395C134.944 37.22 130.435 43.3707 123.156 71.2187C120.418 81.7008 120.141 86.5141 120.182 89.7932C120.222 93.0722 117.228 94.4707 114.051 94.8509C111.597 95.1428 108.333 95.0138 106.46 93.8257C104.588 92.6377 102.898 90.3023 103.655 84.525C105.007 73.9954 110.374 55.4617 114.99 42.685C117.403 36.0116 119.776 35.0204 124.136 34.5859C127.792 34.2193 130.618 34.0767 132.368 35.3395ZM136.072 15.8146C133.48 15.8205 130.894 16.0476 128.34 16.4935C125.122 17.023 123.608 18.021 121.959 22.2709C120.31 26.5207 119.931 29.8948 123.568 30.4175C127.204 30.9403 132.253 30.8113 134.788 28.8357C137.323 26.8601 138.384 22.943 139.236 20.2953C140.087 17.6476 139.912 15.8078 136.072 15.8146V15.8146Z" fill="#2774AE"/>
<path d="M93.2741 34.5962C89.6579 34.6776 80.8709 35.2751 70.3806 36.0218C75.3013 19.1922 79.3907 9.61986 80.2761 6.50376C80.5537 5.62494 80.7017 4.71006 80.7155 3.7882C80.7155 1.01833 78.7959 0.0882556 75.7272 0C75.1662 0 74.5714 0 73.936 0C69.0085 0.257978 62.8171 2.71556 59.0657 12.8106C55.6861 21.8942 53.023 30.1359 50.9547 37.4271C35.0097 38.6627 19.7407 39.8983 14.9687 40.2581C7.27672 40.8487 6.67515 45.0103 9.683 50.7673C12.6908 56.5243 19.3419 57.434 30.0079 56.565C34.3946 56.2052 40.2143 55.6689 46.5409 55.0239C45.3293 60.5092 44.4713 66.0673 43.9724 71.6635C43.8846 72.485 43.8102 73.2928 43.7629 74.0804C43.7156 74.8679 43.6818 75.6282 43.6683 76.3818C43.479 86.8435 46.933 93.517 51.5765 95.9066C56.2201 98.2963 60.6068 98.1402 62.1952 97.2644C62.3891 97.1602 62.5594 97.0169 62.6954 96.8435C62.9323 96.4727 63.0589 96.0417 63.0604 95.6011C62.9905 94.156 62.7477 92.7246 62.3372 91.3377C62.2764 91.0458 62.2155 90.7607 62.1615 90.4891C61.6466 87.6463 61.382 84.7634 61.3706 81.874C61.3233 75.5603 62.3507 67.7124 65.0476 56.1373C65.291 55.0918 65.5546 53.9988 65.8249 52.8854C70.8065 52.2812 75.5785 51.6499 79.7151 51.0253C91.5167 49.2398 110.382 44.0463 111.233 39.8304C112.085 35.6145 104.089 34.3518 93.2741 34.5962Z" fill="#563D82"/>
<path fill-rule="evenodd" clip-rule="evenodd" d="M112.956 138.629H105.149V142.145H108.881V146.273C108.008 146.447 107.121 146.536 106.231 146.538C105.506 146.582 104.78 146.451 104.116 146.156C103.451 145.861 102.867 145.409 102.412 144.84C101.538 143.713 101.101 142.077 101.101 139.932C101.006 138.148 101.588 136.394 102.73 135.024C103.275 134.419 103.945 133.942 104.694 133.627C105.442 133.311 106.251 133.165 107.062 133.197C108.611 133.193 110.139 133.553 111.523 134.25L112.909 130.862C111.067 130.054 109.079 129.638 107.069 129.64C103.834 129.64 101.315 130.545 99.5123 132.356C97.7098 134.166 96.8086 136.655 96.8086 139.823C96.8041 143.105 97.5859 145.621 99.154 147.373C100.722 149.124 102.991 150 105.961 150C107.108 150.003 108.253 149.919 109.387 149.749C110.599 149.561 111.793 149.271 112.956 148.88V138.629ZM77.5904 139.637C77.5904 142.886 76.6689 145.376 74.8259 147.105C72.9829 148.834 70.3197 149.698 66.8365 149.698H61.2669V129.942H67.4448C70.6577 129.942 73.1518 130.795 74.9273 132.502C76.7027 134.208 77.5904 136.586 77.5904 139.637ZM73.2577 139.745C73.2577 135.505 71.3922 133.382 67.6611 133.377H65.4373V146.276H67.2285C71.2525 146.258 73.2622 144.081 73.2577 139.745ZM85.1217 149.723V129.96H89.2921V149.723H85.1217ZM121.092 149.723V129.96H125.263V149.723H121.092ZM137.099 149.731H141.269V133.437H146.609V129.948H131.739V133.437H137.099V149.731ZM165.125 149.728L163.692 145.023H156.521L155.094 149.728H150.6L157.548 129.884H162.644L169.62 149.728H165.125ZM162.698 141.514C161.383 137.25 160.641 134.838 160.475 134.277C160.306 133.72 160.184 133.279 160.116 132.919C159.819 134.073 158.97 136.927 157.568 141.48L162.698 141.514ZM175.538 129.961V149.723L187.691 149.71V146.254H179.708V129.961H175.538ZM205.16 129.961H211.291C214.076 129.961 216.104 130.361 217.374 131.155C218.001 131.561 218.508 132.129 218.841 132.799C219.174 133.469 219.321 134.217 219.267 134.964C219.309 135.996 219.02 137.015 218.442 137.87C218.185 138.233 217.857 138.541 217.478 138.774C217.1 139.007 216.678 139.161 216.239 139.227V139.363C217.303 139.531 218.266 140.09 218.943 140.931C219.531 141.837 219.819 142.906 219.767 143.986C219.805 144.795 219.648 145.6 219.309 146.334C218.97 147.069 218.459 147.709 217.82 148.202C216.28 149.288 214.421 149.821 212.542 149.716H205.174L205.16 129.961ZM209.338 137.788H211.757C212.611 137.853 213.466 137.669 214.218 137.259C214.481 137.058 214.689 136.793 214.821 136.488C214.954 136.184 215.007 135.851 214.975 135.521C215.001 135.199 214.938 134.877 214.792 134.589C214.646 134.301 214.424 134.06 214.15 133.891C213.333 133.504 212.43 133.333 211.528 133.396H209.338V137.788ZM209.338 141.115V146.268H212.041C212.94 146.331 213.834 146.092 214.583 145.589C214.869 145.337 215.092 145.022 215.235 144.668C215.378 144.315 215.437 143.933 215.407 143.552C215.407 141.918 214.24 141.099 211.906 141.094L209.338 141.115ZM237.744 145.023L239.177 149.728H243.665L236.689 129.884H231.586L224.644 149.728H229.139L230.572 145.023H237.744ZM234.526 134.277C234.693 134.838 235.434 137.25 236.75 141.514L231.62 141.48C233.021 136.927 233.871 134.073 234.168 132.919C234.236 133.279 234.357 133.72 234.526 134.277ZM267.047 149.723H261.748L253.184 134.788H253.062C253.238 137.428 253.319 139.309 253.319 140.436V149.737H249.595V129.961H254.826L263.404 144.733H263.498C263.363 142.167 263.296 140.357 263.296 139.302V129.961H267.047V149.723ZM286.545 149.723H291.276L284.355 138.705L291.222 129.96H286.592L281.259 136.681L279.617 139.003V129.96H275.446V149.75H279.617V142.696L281.388 141.4L286.545 149.723Z" fill="#808184"/>
</svg>
