<svg xmlns="http://www.w3.org/2000/svg" width="104.989" height="52" viewBox="0 0 104.989 52">
  <g id="truemoney" transform="translate(0)">
    <g id="boundingbox" transform="translate(0.5)" fill="rgba(255,0,0,0.1)" stroke="red" stroke-width="1" stroke-dasharray="4 4" opacity="0">
      <rect width="104" height="52" stroke="none"/>
      <rect x="0.5" y="0.5" width="103" height="51" fill="none"/>
    </g>
    <g id="truemoney-2" data-name="truemoney" transform="translate(0.5 15.723)">
      <path id="Union_35" data-name="Union 35" d="M-2873.152,7225.074a1.364,1.364,0,0,1-.5-.466,1.461,1.461,0,0,1-.216-.789,1.368,1.368,0,0,1,.346-.912,3.177,3.177,0,0,1,.8-.557c.134-.083.544-.4.666-.5a6.631,6.631,0,0,0,1.463-1.63,10.293,10.293,0,0,0,.752-1.583c.018-.042-.091-.23-.109-.276-.036-.092-.073-.185-.109-.275l-.218-.553c-.145-.375-.292-.751-.437-1.125q-.424-1.107-.843-2.216-.367-.984-.729-1.971c-.123-.339-.247-.676-.37-1.014l-.185-.506a1.756,1.756,0,0,1-.176-.484c-.042-.112-.083-.229-.122-.343v0a3.316,3.316,0,0,1-.187-.838,1.448,1.448,0,0,1,.366-1.129,1.07,1.07,0,0,1,1.229-.2,1.331,1.331,0,0,1,.573.667c.127.314.247.629.365.945q.732,1.95,1.478,3.9.4,1.052.8,2.109c-.047-.125.234-.631.279-.751.218-.583.437-1.169.655-1.753q.764-2.048,1.534-4.094a2.453,2.453,0,0,1,.451-.845c.587-.629,1.59-.133,1.812.595a2.609,2.609,0,0,1-.241,1.637c-.19.5-.383,1-.571,1.491-.533,1.4-1.053,2.8-1.581,4.194,0,0-.756,2.078-1.378,3.677a13.681,13.681,0,0,1-1.666,2.961c-.062.092-.133.179-.2.267s-.122.148-.185.219a10.343,10.343,0,0,1-2.252,1.858,2.825,2.825,0,0,1-.6.3.923.923,0,0,1-.343.066A.925.925,0,0,1-2873.152,7225.074Zm-5.309-4.874a5.547,5.547,0,0,1-1.182-.261,5.022,5.022,0,0,1-1.67-.932,5.22,5.22,0,0,1-1.093-1.307,6.853,6.853,0,0,1-.64-1.438,8.815,8.815,0,0,1-.308-1.329,8.8,8.8,0,0,1-.1-.974,3.69,3.69,0,0,1,0-.375c.37-6.287,5-6.289,5.01-6.289,3.445,0,5.035,2.785,5.34,5.469a2.156,2.156,0,0,1-.163,1.433,1.08,1.08,0,0,1-.564.419,1.706,1.706,0,0,1-.531.038c-.178-.011-.357-.009-.535-.009-.531,0-1.063,0-1.594,0h-4.334a3.813,3.813,0,0,0,.542,1.741,2.5,2.5,0,0,0,2.21,1.219,3.184,3.184,0,0,0,2.41-1.016c.328-.337.629-.743,1.159-.7a1.149,1.149,0,0,1,.921.827,1.61,1.61,0,0,1-.19,1.3,4.281,4.281,0,0,1-.745.822,5.492,5.492,0,0,1-2.31,1.209,4.845,4.845,0,0,1-1.257.167C-2878.212,7220.215-2878.337,7220.21-2878.462,7220.2Zm-2.332-7.774h5.153s-.374-2.535-2.56-2.535C-2880.444,7209.892-2880.793,7212.426-2880.793,7212.426Zm-24.826,1.31c0-3.565,2.386-6.459,5.331-6.459s5.331,2.894,5.331,6.459-2.386,6.458-5.331,6.458S-2905.619,7217.3-2905.619,7213.736Zm2.484.009c0,2.075,1.275,3.755,2.847,3.755s2.847-1.683,2.847-3.755-1.275-3.755-2.847-3.755S-2903.135,7211.67-2903.135,7213.745Zm9.056,5.324a3.083,3.083,0,0,1-.053-.816v-9.347a1.566,1.566,0,0,1,.109-.619,1.789,1.789,0,0,1,.2-.39,1.087,1.087,0,0,1,.9-.49,1.273,1.273,0,0,1,1.14.708,1.563,1.563,0,0,1,.192.75c0,.013.027.021.036.011a3.889,3.889,0,0,1,3.162-1.583,3.9,3.9,0,0,1,.727.067,3.423,3.423,0,0,1,1.922,1.135,5.563,5.563,0,0,1,1.006,1.815,8.568,8.568,0,0,1,.43,2.863v2.506c0,.877.005,1.753.005,2.633a2.3,2.3,0,0,1-.232,1.193,1.114,1.114,0,0,1-.983.591,1.37,1.37,0,0,1-1.248-.972,3.524,3.524,0,0,1-.074-1.2v-3.28c0-.234,0-.47,0-.706a6.534,6.534,0,0,0-.243-2.348,2.743,2.743,0,0,0-.682-1.075,2.042,2.042,0,0,0-1.394-.517,2.49,2.49,0,0,0-2.339,2.127,3.5,3.5,0,0,0-.125.93v5.833s-.134,1.213-1.215,1.213A1.335,1.335,0,0,1-2894.079,7219.068Zm-21.415-.377v-2.678c0-1.032,0-2.065,0-3.1a4.593,4.593,0,0,0-.172-1.549,2.166,2.166,0,0,0-.588-.934,1.758,1.758,0,0,0-1.175-.41c-.038,0-.074,0-.111,0a1.861,1.861,0,0,0-1.164.442,2.316,2.316,0,0,0-.647,1.208,4.4,4.4,0,0,0-.069,1.012v4.992a7.27,7.27,0,0,1-.027,1.014,2,2,0,0,1-.326.9,1.125,1.125,0,0,1-.937.5c-.042,0-.083,0-.123,0a1.139,1.139,0,0,1-.758-.375,1.663,1.663,0,0,1-.385-.928,7.908,7.908,0,0,1-.02-.95c0-.343,0-.686,0-1.026v-6.165c0-.47,0-.941,0-1.411,0-.165,0-.328.015-.493a1.883,1.883,0,0,1,.049-.265,1.972,1.972,0,0,1,.2-.455,1.207,1.207,0,0,1,1.05-.631c1.121,0,1.273,1.451,1.273,1.451l.047-.067a4.93,4.93,0,0,1,.4-.486,4.075,4.075,0,0,1,.392-.366,3.171,3.171,0,0,1,.379-.265,2.955,2.955,0,0,1,.419-.207,2.224,2.224,0,0,1,.785-.148c.109,0,.219.005.328.011a3.188,3.188,0,0,1,1.592.537c.111.076.216.156.319.243s.183.167.27.257.154.168.225.257.125.16.183.241.1.144.14.216c.034.055.067.113.1.17.02.037.04.075.06.113,0,.007.015.04.025.042a3.9,3.9,0,0,1,3.534-2.087c3.6,0,3.746,4.707,3.746,4.707v6.858s-.152,1.228-1.25,1.228-1.266-1.251-1.266-1.251v-6.267s.179-2.553-1.813-2.546c-2.149,0-2.176,2.6-2.176,2.6v6.176s-.1,1.286-1.257,1.286S-2915.494,7218.691-2915.494,7218.691Z" transform="translate(2967.713 -7204.593)" fill="#f3801f" stroke="rgba(0,0,0,0)" stroke-miterlimit="10" stroke-width="1"/>
      <path id="Union_34" data-name="Union 34" d="M-2889.028,7221.478a6.782,6.782,0,0,1-2.083-4.79,7,7,0,0,1,2.148-5.191,6.169,6.169,0,0,1,3.961-1.506,5.965,5.965,0,0,1,4.013,1.57,6.168,6.168,0,0,1,1.7,2.88,11.355,11.355,0,0,1,.218,3.306c-.52,0-6.8.007-8.418.011a2.041,2.041,0,0,0,.207.75,2.705,2.705,0,0,0,2.126,1.332,2.6,2.6,0,0,0,2.192-1.026c.587.165,3.4.874,3.4.874a6.636,6.636,0,0,1-1.985,2.215,5.847,5.847,0,0,1-3.361.992h-.072A5.775,5.775,0,0,1-2889.028,7221.478Zm1.492-6.24,4.967.009a2.441,2.441,0,0,0-2.313-2.115c-.068,0-.134-.007-.2-.007A2.607,2.607,0,0,0-2887.536,7215.238Zm-14.157,5.964a4.592,4.592,0,0,1-1.276-3.2c0-.632.011-7.657.011-7.657s1.844-.022,2.137-.022a1.649,1.649,0,0,1,1.528,1.592c0,1.245-.011,5.585-.011,5.913a2.036,2.036,0,0,0,1.865,1.845,1.962,1.962,0,0,0,1.985-1.834c0-.609-.011-7.494-.011-7.494l3.743-.011s0,6.565.011,7.211-.121,2.813-1.506,3.916a5.854,5.854,0,0,1-4.133,1.417h-.153A5.143,5.143,0,0,1-2901.693,7221.2Zm-9.823,1.523s0-7.381,0-7.8a4.812,4.812,0,0,1,1.68-3.343,4.311,4.311,0,0,1,3.022-1.243h2.956l.018,3.312-2.1,0c-.428,0-2,.747-2,1.791s0,7.289,0,7.289Zm-7.278-1.564a4.12,4.12,0,0,1-1.452-2.835c-.009-.212,0-4.684,0-4.684H-2922l.007-3.3,1.737-.015-.005-3.033,3.678-.015,0,3.062,4.095-.007v1.833s-.256,1.47-1.592,1.478l-2.494.014-.009,4.057s.272,1.862,1.813,1.862h2.286v3.141l-2.766.009A5.377,5.377,0,0,1-2918.794,7221.16Z" transform="translate(2922 -7207.277)" fill="#ec1c23" stroke="rgba(0,0,0,0)" stroke-miterlimit="10" stroke-width="1"/>
    </g>
  </g>
</svg>
