<svg xmlns="http://www.w3.org/2000/svg" xmlns:xlink="http://www.w3.org/1999/xlink" width="104" height="52" viewBox="0 0 104 52">
  <defs>
    <clipPath id="clip-path">
      <rect id="Rectangle_5517" data-name="Rectangle 5517" width="99.819" height="25.952" fill="none"/>
    </clipPath>
  </defs>
  <g id="vivnpay" transform="translate(-0.5 -0.159)">
    <g id="boundingbox" transform="translate(0.5 0.159)" fill="rgba(255,0,0,0.1)" stroke="red" stroke-width="1" stroke-dasharray="4 4" opacity="0">
      <rect width="104" height="52" stroke="none"/>
      <rect x="0.5" y="0.5" width="103" height="51" fill="none"/>
    </g>
    <g id="Group_10525" data-name="Group 10525" transform="translate(2.5 13.159)">
      <g id="Group_10524" data-name="Group 10524" transform="translate(0 0)" clip-path="url(#clip-path)">
        <path id="Path_19617" data-name="Path 19617" d="M155.874,68.761a2.064,2.064,0,0,1-.353.818.86.86,0,0,1-.649.21.878.878,0,0,1-.656-.21,2.073,2.073,0,0,1-.353-.818L153,65.417c-.049-.188-.014-.237.183-.237h.077c.2,0,.261.049.31.237l.86,3.407c.092.385.19.476.437.476s.339-.091.43-.476l.86-3.407c.049-.188.113-.237.31-.237h.078c.2,0,.232.049.183.237Z" transform="translate(-106.402 -45.333)" fill="#008ed4"/>
        <path id="Path_19618" data-name="Path 19618" d="M167.263,65.942c0-.175.05-.224.226-.224h.077c.191,0,.226.049.226.224v3c0,.189-.035.223-.226.223h-.077c-.176,0-.226-.035-.226-.223Zm.557-.783a.335.335,0,0,1-.3.168h-.071c-.148,0-.183-.035-.106-.175l.3-.566a.325.325,0,0,1,.353-.21h.07c.191,0,.219.042.113.2Z" transform="translate(-116.332 -44.773)" fill="#008ed4"/>
        <path id="Path_19619" data-name="Path 19619" d="M177.357,70c0-.916.5-1.448,1.572-1.448a1.893,1.893,0,0,1,.621.091c.169.056.212.105.212.266v.07c0,.175-.042.224-.212.168a1.8,1.8,0,0,0-.606-.1c-.79,0-1.058.308-1.058.959v.678c0,.706.317.958,1.1.958a1.967,1.967,0,0,0,.634-.091c.162-.056.212,0,.212.175v.07c0,.147-.049.2-.225.252a2.152,2.152,0,0,1-.656.091c-1.079,0-1.593-.461-1.593-1.448Z" transform="translate(-123.353 -47.682)" fill="#008ed4"/>
        <path id="Path_19620" data-name="Path 19620" d="M187.654,67.113c0,.552.233.811.945.811s.938-.252.938-.811V65.127c0-.175.049-.224.225-.224h.078c.19,0,.226.049.226.224v1.987c0,.846-.43,1.308-1.466,1.308-.98,0-1.473-.433-1.473-1.308V65.127c0-.175.049-.224.226-.224h.077c.191,0,.226.049.226.224Zm.959-2.6c-.134,0-.148-.049-.169-.133-.021-.2.106-.28.317-.5a.24.24,0,0,0,.092-.161c0-.119-.056-.175-.127-.181a.684.684,0,0,0-.31.063.13.13,0,0,1-.191-.077l-.028-.056c-.042-.1.028-.14.1-.175a.983.983,0,0,1,.416-.084.456.456,0,0,1,.493.511c0,.308-.409.434-.43.665a.155.155,0,0,1-.127.133Z" transform="translate(-130.147 -43.958)" fill="#008ed4"/>
        <path id="Path_19621" data-name="Path 19621" d="M201.659,71.04c0,.776-.458,1.105-1.473,1.105-.811,0-1.325-.322-1.325-1.049s.479-1.021,1.438-1.021h.832v-.42c0-.475-.324-.636-.923-.636a3.415,3.415,0,0,0-.776.077c-.169.035-.225-.007-.225-.175v-.056c0-.161.042-.2.211-.238a3.728,3.728,0,0,1,.762-.07c.987,0,1.48.364,1.48,1.1Zm-.529-.552h-.825c-.627,0-.916.168-.916.608,0,.4.261.595.79.595.649,0,.952-.147.952-.672Z" transform="translate(-138.308 -47.682)" fill="#008ed4"/>
        <path id="Path_19622" data-name="Path 19622" d="M219.581,69.175q0,1.217-1.459,1.217a3.223,3.223,0,0,0-.747.056.208.208,0,0,0-.169.21c0,.1.056.161.176.2a4.028,4.028,0,0,0,.74.042,2.325,2.325,0,0,1,1.206.217.8.8,0,0,1,.338.741.933.933,0,0,1-.345.832,2.176,2.176,0,0,1-1.2.238,2.23,2.23,0,0,1-1.22-.238.838.838,0,0,1-.331-.734.822.822,0,0,1,.395-.748.476.476,0,0,1-.289-.462q0-.461.571-.546a.987.987,0,0,1-.592-1.021v-.084c0-.762.543-1.21,1.466-1.21a1.814,1.814,0,0,1,.726.14l.4-.357c.12-.105.176-.105.289,0l.049.049c.113.105.113.161,0,.273l-.317.322a1.012,1.012,0,0,1,.31.783Zm-2.15,2.147a.585.585,0,0,0-.332.573c0,.455.261.574,1.022.574.733,0,1.015-.119,1.015-.594,0-.441-.261-.518-1.015-.518a5.457,5.457,0,0,1-.691-.035m1.614-2.231c0-.5-.31-.741-.923-.741s-.938.245-.938.741v.084c0,.5.226.755.938.755s.923-.252.923-.755Z" transform="translate(-150.626 -47.006)" fill="#008ed4"/>
        <path id="Path_19623" data-name="Path 19623" d="M229.53,64.466a.332.332,0,0,1-.338.335.34.34,0,0,1-.353-.335.346.346,0,0,1,.353-.343.339.339,0,0,1,.338.343m-.606,1.3c0-.175.035-.224.226-.224h.077c.176,0,.226.049.226.224v3c0,.189-.049.223-.226.223h-.077c-.191,0-.226-.035-.226-.223Z" transform="translate(-159.159 -44.598)" fill="#008ed4"/>
        <path id="Path_19624" data-name="Path 19624" d="M236.151,71.04c0,.776-.458,1.105-1.473,1.105-.811,0-1.325-.322-1.325-1.049s.479-1.021,1.438-1.021h.832v-.42c0-.475-.324-.636-.923-.636a3.416,3.416,0,0,0-.776.077c-.169.035-.225-.007-.225-.175v-.056c0-.161.042-.2.211-.238a3.728,3.728,0,0,1,.762-.07c.987,0,1.48.364,1.48,1.1Zm-.529-.552H234.8c-.627,0-.917.168-.917.608,0,.4.261.595.79.595.649,0,.952-.147.952-.672Z" transform="translate(-162.298 -47.682)" fill="#008ed4"/>
        <path id="Path_19625" data-name="Path 19625" d="M255.076,64.892c0,.147-.05.2-.2.2h-.423v2.449c0,.972-.515,1.461-1.544,1.461-1.065,0-1.544-.489-1.544-1.461v-.651a1.3,1.3,0,0,1,1.459-1.476,1.143,1.143,0,0,1,1.1.511v-.833h-.959c-.162,0-.2-.049-.2-.2v-.056c0-.146.035-.2.2-.2h.959v-.385c0-.189.035-.223.226-.223h.077c.176,0,.226.035.226.223v.385h.423c.148,0,.2.049.2.2Zm-3.18,2.637c0,.671.233.972,1.015.972s1.015-.3,1.015-.972v-.651c0-.671-.247-.972-1.015-.972s-1.015.3-1.015.972Z" transform="translate(-174.828 -44.535)" fill="#008ed4"/>
        <path id="Path_19626" data-name="Path 19626" d="M262.962,64.579c-.106-.161-.078-.2.113-.2h.071a.325.325,0,0,1,.352.209l.3.567c.071.14.049.175-.106.175h-.071a.335.335,0,0,1-.3-.168Zm.409,1.364c0-.175.049-.224.226-.224h.077c.191,0,.226.049.226.224v3c0,.189-.035.223-.226.223H263.6c-.176,0-.226-.035-.226-.223Z" transform="translate(-182.85 -44.774)" fill="#008ed4"/>
        <path id="Path_19627" data-name="Path 19627" d="M269.649,71.852c0,.189-.035.223-.225.223h-.078c-.176,0-.226-.035-.226-.223V69.865c0-.875.494-1.308,1.473-1.308,1.036,0,1.466.462,1.466,1.308v1.987c0,.189-.036.223-.226.223h-.085c-.19,0-.225-.035-.225-.223V69.865c0-.56-.219-.812-.931-.812s-.945.259-.945.812Z" transform="translate(-187.175 -47.682)" fill="#008ed4"/>
        <path id="Path_19628" data-name="Path 19628" d="M281.736,64.255c0-.189.05-.223.226-.223h.077c.191,0,.226.035.226.223v1.63a1.233,1.233,0,0,1,1.107-.475c.867,0,1.3.406,1.3,1.224V68.7c0,.188-.035.224-.226.224h-.084c-.191,0-.226-.035-.226-.224V66.7c0-.553-.247-.791-.9-.791-.676,0-.973.266-.973.91V68.7c0,.188-.035.224-.226.224h-.077c-.176,0-.226-.035-.226-.224Z" transform="translate(-195.949 -44.535)" fill="#008ed4"/>
        <path id="Path_19629" data-name="Path 19629" d="M261.823,26.585l-3.612-5.179-.368-.337h3.56l2.413,3.915.194-.158,1.459-2.168a1.142,1.142,0,0,0-.2-1.589h3.364l-3.889,5.515,0,4,.686.815h-4.18l.589-.8c0-1.334-.049-2.682-.014-4.012m-9.808-5.516a1.5,1.5,0,0,1,.406.888,1.259,1.259,0,0,1-.073.614l-2.687,7.79a2.867,2.867,0,0,1-.764,1.017h2.932a1.209,1.209,0,0,1-.407-.7,1.153,1.153,0,0,1,.01-.584l.6-1.85h3.412l.532,1.426a1.641,1.641,0,0,1,.1.448,1.341,1.341,0,0,1-.547,1.28h4.6a4.239,4.239,0,0,1-1.1-1.332l-3.356-9Zm2.925,5.837H252.5l1.183-3.372Zm-12.219-5.828,2.31-.009h2.8a2.813,2.813,0,0,1,2.8,2.8v.346a2.81,2.81,0,0,1-2.8,2.765l-1.279.039a2.62,2.62,0,0,0,1.33-2.743c-.1-.864-.548-1.694-1.289-1.71l-.467-.01v7.687a.547.547,0,0,0,.1.343,5.278,5.278,0,0,0,.465.627l.135.163h-3.978c.06-.073.118-.147.174-.223a2.549,2.549,0,0,0,.308-.533.836.836,0,0,0,.077-.35V22.017c-.016-.431-.444-.675-.695-.939" transform="translate(-168.814 -14.654)" fill="#004a9c" fill-rule="evenodd"/>
        <path id="Path_19630" data-name="Path 19630" d="M171.891,20.919H175.1l2.695,7.728,2.286-6.4a.743.743,0,0,0-.09-.544c-.126-.26-.261-.512-.388-.772H182c-.142.523-.352,1.1-.533,1.623l-3.1,9a5.054,5.054,0,0,1-2.517-1.194,4.4,4.4,0,0,1-1.014-1.816l-2.59-6.858a6.592,6.592,0,0,0-.362-.766m12.821,3.621v5.522c0,.224.052.264.19.444l.633.825h-3.023l.511-.779a.821.821,0,0,0,.188-.536V22.3l-.85-1.382h3.132l5.072,6.532V22.246a.831.831,0,0,0-.181-.544c-.17-.26-.348-.512-.518-.772h3.02l-.63.825c-.138.18-.19.22-.19.444v9.4a4.267,4.267,0,0,1-3.156-1.641Z" transform="translate(-119.551 -14.549)" fill="#e50019" fill-rule="evenodd"/>
        <path id="Path_19631" data-name="Path 19631" d="M119.67,29.011,117.4,22.747l-.167-.44q-.129-.319-.22-.5a2.679,2.679,0,0,0-.44-.6v-.03H120.1v.061l-.03.1a8.027,8.027,0,0,0,.235,1.026l2.217,6.444,1.847-5.65.092-.27.1-.327c.015-.066.024-.114.029-.145a.969.969,0,0,0,.007-.138,1.219,1.219,0,0,0-.7-1.068v-.031h2.777v.038L123.1,31.736l-1.206-.417q-.311-.114-.561-.227a3.332,3.332,0,0,1-.448-.243,2.422,2.422,0,0,1-.649-.656,5.221,5.221,0,0,1-.565-1.181" transform="translate(-81.078 -14.728)" fill="#e50019"/>
        <path id="Path_19632" data-name="Path 19632" d="M149.043,21.72l3.771-2.163.744,1.366-3.634,1.335Zm.963,7.1V24.458a1.848,1.848,0,0,0-.121-.759,1.716,1.716,0,0,0-.394-.516v-.061h1.882a6.146,6.146,0,0,0,.744-.038,1.279,1.279,0,0,0,.531-.182h.061v5.979a2.27,2.27,0,0,0,.106.789,1.154,1.154,0,0,0,.44.554v.061H149.46v-.061a1.4,1.4,0,0,0,.455-.607,2.8,2.8,0,0,0,.091-.8" transform="translate(-103.66 -13.602)" fill="#e50019"/>
        <path id="Path_19633" data-name="Path 19633" d="M18.651,8.454l-2.467,2.467-.123.121-.784.786-.584.584-.784.784-.121.121-.342.342-.121.123h0l-1.156,1.155v0l-.121.121a5.081,5.081,0,0,1-1.137.856,5.182,5.182,0,0,1-.632.294,5.035,5.035,0,0,1-1.493.326,4.971,4.971,0,0,1-.937-.026,5.03,5.03,0,0,1-1.929-.642,3.5,3.5,0,0,1-.739-.521l0,0c-.048-.046-.1-.094-.144-.144L.54,10.71l-.1-.1A1.7,1.7,0,0,1,0,9.47a1.459,1.459,0,0,1,.006-.147,1.8,1.8,0,0,1,.032-.213c.006-.027.013-.054.019-.08L.067,9a1.743,1.743,0,0,1,.311-.589c.038-.046.078-.091.121-.136l.08-.078L5.365,3.407h0l2.9-2.9A1.726,1.726,0,0,1,10.621.425Z" transform="translate(0 0)" fill="#004a9c"/>
        <path id="Path_19634" data-name="Path 19634" d="M21.407,26.4a2.708,2.708,0,0,1-1.131-.252l-.92-.918L19.132,25l-.038-.04-.428-.428L16.523,22.37c.048.049.1.1.144.144a3.493,3.493,0,0,0,.743.522,5.033,5.033,0,0,0,1.929.642,4.969,4.969,0,0,0,.937.025,5.025,5.025,0,0,0,1.493-.326,5.182,5.182,0,0,0,.632-.294,5.079,5.079,0,0,0,1.137-.856l.121-.121v0l1.156-1.154h0l.121-.123.342-.342.121-.121.784-.784L26.769,19l.784-.786.123-.121,4.971-4.97L34.7,10.9l.013-.013.11-.108a1.6,1.6,0,0,1,2.267,0L38.209,11.9h0l.037.037a1.836,1.836,0,0,0-1.373.522l-3.8,3.736-.038.046-6.611,6.5-.009-.008-2.435,2.392-.016.019c-.006.008-.059.067-.147.153a4.312,4.312,0,0,1-1.129.794,3.31,3.31,0,0,1-.734.249,2.962,2.962,0,0,1-.439.054Z" transform="translate(-11.492 -7.169)" fill="#e50019"/>
        <path id="Path_19635" data-name="Path 19635" d="M54.414,25.014l-.121.123L48.908,30.6l-5.654,5.74a4.958,4.958,0,0,1-.568.49l-.023.019c-.027.019-.054.04-.083.059l-.009.008a5.215,5.215,0,0,1-6.618-.468l0,0c-.043-.037-.085-.074-.126-.112l-.973-.973L32.119,32.63l-.912-.912-.128-.128a2.8,2.8,0,0,0,.449.035h0l.121,0a3.172,3.172,0,0,0,.519-.062,3.761,3.761,0,0,0,.84-.284,4.79,4.79,0,0,0,1.255-.881c.083-.082.146-.15.171-.181l2.1-2.064.008.009,7.225-7.108.038-.046,3.51-3.454a1.387,1.387,0,0,1,1.747-.153l.832.832s0,0,0,0l4.512,4.512a1.6,1.6,0,0,1,0,2.269" transform="translate(-21.616 -11.935)" fill="#e50019"/>
        <path id="Path_19636" data-name="Path 19636" d="M26.479,18.1a.331.331,0,0,1-.465,0,5.482,5.482,0,1,0-7.782,7.723L19.9,27.5a.154.154,0,0,1,.029.037l-.024,0a4.984,4.984,0,0,1-.912-.022l-1.225-1.236a6.137,6.137,0,1,1,8.712-8.646l0,0a.324.324,0,0,1,0,.461" transform="translate(-11.12 -11.007)" fill="#008ed4"/>
        <path id="Path_19637" data-name="Path 19637" d="M55.678,28.121l-.463.463-.813-.818a.327.327,0,1,1,.465-.462Z" transform="translate(-37.771 -18.924)" fill="#008ed4"/>
        <path id="Path_19638" data-name="Path 19638" d="M26.461,35.174l-.014.008a5.108,5.108,0,0,1-.616.287L23.559,33.18a4.2,4.2,0,0,1-.484-5.336.328.328,0,1,1,.54.372,3.546,3.546,0,0,0,.409,4.5Z" transform="translate(-15.537 -19.267)" fill="#008ed4"/>
        <path id="Path_19639" data-name="Path 19639" d="M38.182,25.986,38.171,26l-.342.342-.11.108-2.555-2.574A3.535,3.535,0,0,0,31.549,23a.327.327,0,1,1-.2-.623,4.186,4.186,0,0,1,4.281,1.036Z" transform="translate(-21.645 -15.419)" fill="#008ed4"/>
        <path id="Path_19640" data-name="Path 19640" d="M35.13,31.789l-.463.463-2.559-2.58a1.608,1.608,0,1,0-2.283,2.266L31.474,33.6a.327.327,0,1,1-.465.461L29.358,32.4a2.264,2.264,0,1,1,3.214-3.189Z" transform="translate(-19.963 -19.851)" fill="#008ed4"/>
        <path id="Path_19641" data-name="Path 19641" d="M38.181,37.577l-.011.011-.342.342-.11.11-2.566-2.585a.327.327,0,1,1,.464-.461Z" transform="translate(-24.383 -24.271)" fill="#008ed4"/>
      </g>
    </g>
  </g>
</svg>
