<svg xmlns="http://www.w3.org/2000/svg" width="104" height="52" viewBox="0 0 104 52">
  <g id="vnptpay" transform="translate(-0.5)">
    <g id="boundingbox" transform="translate(0.5)" fill="rgba(255,0,0,0.1)" stroke="red" stroke-width="1" stroke-dasharray="4 4" opacity="0">
      <rect width="104" height="52" stroke="none"/>
      <rect x="0.5" y="0.5" width="103" height="51" fill="none"/>
    </g>
    <g id="vnptpay-2" data-name="vnptpay" transform="translate(0.5 17.275)">
      <path id="Path_45704" data-name="Path 45704" d="M1.255,1.255h0a4.285,4.285,0,0,0,0,6.059l3.17,3.17,6.059-6.059-3.17-3.17a4.285,4.285,0,0,0-6.059,0" transform="translate(0)" fill="#00b9f2"/>
      <path id="Path_45705" data-name="Path 45705" d="M29.381,1.255l-3.17,3.17,6.059,6.059,3.17-3.17a4.285,4.285,0,0,0-6.059-6.059" transform="translate(-15.727)" fill="#fcaf17"/>
      <path id="Path_45706" data-name="Path 45706" d="M11.063,17.122l3.03,3.03a4.285,4.285,0,0,0,6.059,0l3.03-3.03-6.059-6.059Z" transform="translate(-6.638 -6.638)" fill="#21409a"/>
      <path id="Path_45707" data-name="Path 45707" d="M111.913,1.393a1.1,1.1,0,0,0-1.1,1.1v7.627l-6.418-8.3a1.1,1.1,0,0,0-1.976.674V13.354a1.1,1.1,0,0,0,2.207,0V5.728l6.417,8.3a1.1,1.1,0,0,0,1.976-.675V2.5a1.1,1.1,0,0,0-1.1-1.1" transform="translate(-61.45 -0.835)" fill="#21409a"/>
      <path id="Path_45708" data-name="Path 45708" d="M167.112,1.393h-8.386a1.1,1.1,0,1,0,0,2.207h3.089v9.755a1.1,1.1,0,0,0,2.207,0V3.6h3.09a1.1,1.1,0,0,0,0-2.207" transform="translate(-94.574 -0.836)" fill="#21409a"/>
      <path id="Path_45709" data-name="Path 45709" d="M140.017,1.393h-3.19a1.1,1.1,0,0,0-1.1,1.1V13.355a1.1,1.1,0,1,0,2.207,0V10.169l2.086.014a4.4,4.4,0,0,0,0-8.791m.008,6.584-2.094-.014V3.6h2.086a2.189,2.189,0,0,1,.008,4.377" transform="translate(-81.434 -0.836)" fill="#21409a"/>
      <path id="Path_45710" data-name="Path 45710" d="M80.9,1.483a1.1,1.1,0,0,0-1.45.577l-3.664,8.506L72.122,2.06a1.1,1.1,0,1,0-2.026.873l4.678,10.858a1.078,1.078,0,0,0,.082.155c.005.008.012.016.017.024a1.114,1.114,0,0,0,.1.13c.013.014.026.027.04.041a1.076,1.076,0,0,0,.113.1l.04.03a1.113,1.113,0,0,0,.172.1l.01.005c.009,0,.018,0,.027.008a1.1,1.1,0,0,0,.158.05l.056.012a1.109,1.109,0,0,0,.192.019h.006a1.1,1.1,0,0,0,.192-.019l.056-.012a1.138,1.138,0,0,0,.157-.05c.01,0,.019,0,.028-.009l.009-.005a1.148,1.148,0,0,0,.172-.1c.014-.01.027-.021.041-.031a1.052,1.052,0,0,0,.112-.1c.014-.014.028-.027.042-.042a1.131,1.131,0,0,0,.1-.128l.018-.024a1.074,1.074,0,0,0,.082-.155L81.477,2.933a1.1,1.1,0,0,0-.577-1.45" transform="translate(-42.003 -0.836)" fill="#21409a"/>
      <path id="Path_45711" data-name="Path 45711" d="M194.1,1.393h-3.19a1.1,1.1,0,0,0-1.1,1.1V13.355a1.1,1.1,0,1,0,2.206,0V10.169l2.086.014a4.4,4.4,0,1,0,0-8.791m.008,6.584-2.094-.014V3.6H194.1a2.189,2.189,0,0,1,.008,4.377" transform="translate(-113.886 -0.836)" fill="#fcaf17"/>
      <path id="Path_45712" data-name="Path 45712" d="M216.8,10.474a4.711,4.711,0,1,0,2.56,8.66,1.1,1.1,0,0,0,2.151-.33V15.185a4.716,4.716,0,0,0-4.711-4.711m0,7.214a2.5,2.5,0,1,1,2.5-2.5,2.507,2.507,0,0,1-2.5,2.5" transform="translate(-127.251 -6.284)" fill="#fcaf17"/>
      <path id="Path_45713" data-name="Path 45713" d="M245.717,10.571a1.1,1.1,0,0,0-1.461.548l-2.32,5.108-2.572-5.145a1.1,1.1,0,0,0-1.974.987l3.371,6.744-1.526,3.359a1.1,1.1,0,1,0,2.009.913l5.02-11.053a1.1,1.1,0,0,0-.548-1.461" transform="translate(-142.365 -6.283)" fill="#fcaf17"/>
    </g>
  </g>
</svg>
