<svg xmlns="http://www.w3.org/2000/svg" xmlns:xlink="http://www.w3.org/1999/xlink" width="104" height="52" viewBox="0 0 104 52">
  <defs>
    <linearGradient id="linear-gradient" x1="-0.582" y1="1.399" x2="0.419" y2="1.399" gradientUnits="objectBoundingBox">
      <stop offset="0" stop-color="#0e62af"/>
      <stop offset="1" stop-color="#2bace2"/>
    </linearGradient>
  </defs>
  <g id="vivnpay" transform="translate(-0.5 -0.159)">
    <g id="boundingbox" transform="translate(0.5 0.159)" fill="rgba(255,0,0,0.1)" stroke="red" stroke-width="1" stroke-dasharray="4 4" opacity="0">
      <rect width="104" height="52" stroke="none"/>
      <rect x="0.5" y="0.5" width="103" height="51" fill="none"/>
    </g>
    <g id="vtcpay" transform="translate(-0.4 12.196)">
      <path id="XMLID_10_" d="M21.307,7.046,12.134,20.879H9.387V7.046h2.306v10.4l6.868-10.4ZM15.96,24.362,24.349,3.514H9.289L.9,24.362ZM37.643,9.351H33.326l-4.66,11.577h-2.5l4.66-11.577H26.507l.932-2.306H38.575ZM33.522,24.362l8.389-20.8H26.9L18.462,24.411h15.06Zm21.535-8.29h0c-1.815,4.464-5.789,7.064-8.83,5.887h0c-3.041-1.177-3.974-5.74-2.109-10.105h0c1.815-4.464,5.789-7.064,8.83-5.887h0L53.684,4.1c-.1-.049-.147-.049-.245-.1-.049,0-.049-.049-.1-.049-3.679-1.128-8.29,2.06-10.5,7.358h0c-2.257,5.445-1.079,11.087,2.6,12.509a.91.91,0,0,0,.343.1c.049,0,.049,0,.1.049.1,0,.147.049.245.049a2.125,2.125,0,0,1,.245.049h.1c3.581.54,7.7-2.551,9.811-7.506h0v-.049l-1.275-.491.049.049m-3.483-1.423c.589-1.521.294-3.14-.736-3.581a.048.048,0,0,1-.049-.049h0c-1.079-.442-2.5.54-3.238,2.109-.687,1.57-.343,3.287.785,3.679h0c1.079.442,2.5-.54,3.238-2.109v-.049m.883.343c0,.049,0,.049-.049.1h0c-.932,2.306-3.041,3.679-4.611,3.091h0c-.049,0-.049,0-.1-.049a.048.048,0,0,1-.049-.049h0c-1.423-.687-1.864-3.041-.932-5.249h0c.932-2.306,3.041-3.679,4.611-3.091h.1a.048.048,0,0,1,.049.049h.049c1.374.736,1.815,3.041.932,5.2m-.442-6.917h0a2.64,2.64,0,0,0-1.079-.2c-2.011-.049-4.268,1.766-5.4,4.513h0a9.272,9.272,0,0,0-.687,3.875v.245a.3.3,0,0,0,.049.2h0a3.969,3.969,0,0,0,2.158,3.14,3.187,3.187,0,0,0,1.521.2c1.864-.2,3.875-1.962,4.955-4.513h0a.048.048,0,0,1,.049-.049,8.089,8.089,0,0,0,.638-3.777v-.294a3.837,3.837,0,0,0-2.208-3.336h0m6.721,9.468-1.472-.589V17h0C54.714,23.185,49.171,26.913,44.9,25.2s-5.592-8-2.992-14.275h0C44.511,4.74,50,1.061,54.224,2.68L55.107.521A7.227,7.227,0,0,0,53.733.129h-.049a.3.3,0,0,1-.2-.049h-.245c-4.758-.343-10.155,3.875-12.8,10.351h0C37.348,17.838,38.967,25.442,44.02,27.4h0a7.692,7.692,0,0,0,1.423.392h.049a.3.3,0,0,1,.2.049h.245c4.709.343,10.105-3.777,12.8-10.3h0" fill="#0e62af"/>
      <path id="XMLID_8_" d="M187.732,7.2l-4.906,4.906L177.921,7.2H171.2a6.9,6.9,0,0,1,4.857,1.962h0l4.857,4.857-4.906,4.906a6.957,6.957,0,0,1-4.807,1.913h6.819L191.656,7.2Z" transform="translate(-86.758 -3.637)" fill="#0e62af"/>
      <path id="XMLID_7_" d="M162.688,10.1a2.69,2.69,0,0,0-2.7-2.7h-5.445a2.69,2.69,0,0,0-2.7,2.7h8.143V18.29H151.8V12.845l-2.7,2.7v2.7a2.69,2.69,0,0,0,2.7,2.7h8.192a2.69,2.69,0,0,0,2.7-2.7h0V10.1Z" transform="translate(-75.499 -3.739)" fill="#0e62af"/>
      <path id="XMLID_4_" d="M134.888,10.1a2.69,2.69,0,0,0-2.7-2.7H124a2.69,2.69,0,0,0-2.7,2.7V21.037H124V15.543h10.89V10.1Zm-2.747.2v2.453H123.9V10.1h8.192v.2Z" transform="translate(-61.337 -3.739)" fill="#0e62af"/>
      <path id="XMLID_2_" d="M164.158,13l-.1-.1v2.7H151.7L149,18.345h15.06v2.7h0l4.072-4.121Z" transform="translate(-75.449 -6.541)" fill="url(#linear-gradient)"/>
    </g>
  </g>
</svg>
