<svg id="globalsign" xmlns="http://www.w3.org/2000/svg" width="63.021" height="24" viewBox="0 0 63.021 24">
  <path id="Path_142" data-name="Path 142" d="M13.635.318a10.945,10.945,0,0,1,3.454.932,9.664,9.664,0,0,1,.96.487c.118.069.427.059.288.3-.112.192-.239.471-.616.251a10.79,10.79,0,0,0-6.383-1.4A11.116,11.116,0,0,0,4.9,3.541,11.069,11.069,0,0,0,1.435,8.674a10.9,10.9,0,0,0,.321,7.964,10.949,10.949,0,0,0,8.456,6.771A10.876,10.876,0,0,0,19.3,21.135a10.938,10.938,0,0,0,4.194-7.427,10.717,10.717,0,0,0-.415-4.852c-.126-.367.1-.415.314-.5.294-.117.249.168.288.3a12,12,0,0,1-5.11,13.782,11.49,11.49,0,0,1-4.82,1.7,11.954,11.954,0,0,1-12-6.045A12.1,12.1,0,0,1,.337,13.95c-.016-.1-.013-.213-.02-.316-.1-.121.022-.282-.077-.4V11.224c.083-.13.022-.273.041-.41A8.618,8.618,0,0,1,1.2,7.243a11.918,11.918,0,0,1,6.06-6.053A8.4,8.4,0,0,1,11,.281,1.582,1.582,0,0,0,11.544.24h1.684C13.347.339,13.51.226,13.635.318Z" transform="translate(-0.24 -0.24)" fill="#c7c8c9"/>
  <path id="Path_144" data-name="Path 144" d="M32.385.316a.716.716,0,0,0,0-.076h.561C32.783.394,32.574.3,32.385.316Z" transform="translate(-21.646 -0.24)" fill="#d9d9da"/>
  <path id="Path_145" data-name="Path 145" d="M.24,31.915H.317c-.012.137.057.288-.077.4Z" transform="translate(-0.24 -21.333)" fill="#e7e6e7"/>
  <path id="Path_146" data-name="Path 146" d="M39.523.318c-.134-.014-.288.057-.4-.078h.4a.605.605,0,0,0,0,.078Z" transform="translate(-26.131 -0.24)" fill="#e1e1e1"/>
  <path id="Path_147" data-name="Path 147" d="M.24,39.12c.134.113.063.266.078.4H.24Z" transform="translate(-0.24 -26.132)" fill="#e1e1e1"/>
  <path id="Path_148" data-name="Path 148" d="M14.245,3.786a11.121,11.121,0,0,1,5.51,1.351c.231.127.288.224.183.487a3.764,3.764,0,0,0,.548,3.958,3.923,3.923,0,0,0,3.856,1.529c.305-.044.463-.02.568.322a10.916,10.916,0,1,1-12.6-7.443,8.767,8.767,0,0,1,1.934-.205Z" transform="translate(-2.462 -2.6)" fill="#2188c9"/>
  <path id="Path_149" data-name="Path 149" d="M89.849,16.93c.115,0,.192.007.273,0,.328-.031.528,0,.606.433a1.706,1.706,0,0,0,2.029,1.077,1.91,1.91,0,0,0,.959-.372.9.9,0,0,0-.108-1.561,5.462,5.462,0,0,0-1.557-.461,4.916,4.916,0,0,1-1.131-.374,1.506,1.506,0,0,1-.2-2.622,2.879,2.879,0,0,1,2.966-.182,1.759,1.759,0,0,1,.979,1.549c0,.05.012.136-.008.144a1.967,1.967,0,0,1-.63.04c-.141.011-.141-.1-.15-.187-.084-.933-1.1-1.3-1.965-1.143a1.984,1.984,0,0,0-.418.128.917.917,0,0,0-.633.839.864.864,0,0,0,.583.827,6.525,6.525,0,0,0,1.569.434,3.11,3.11,0,0,1,1.223.458,1.623,1.623,0,0,1-.174,2.745,3.262,3.262,0,0,1-3.142.076C90.249,18.456,90,17.971,89.849,16.93Z" transform="translate(-59.914 -8.431)" fill="#020202"/>
  <path id="Path_150" data-name="Path 150" d="M148.362,18.336a2.368,2.368,0,0,1-2.111,1.184,1.934,1.934,0,0,1-2.2-2.145c-.026-1.308.006-2.616-.012-3.924-.006-.39.249-.25.429-.266s.376-.059.368.279c-.025,1.161-.012,2.322-.008,3.483a3.572,3.572,0,0,0,.037.557c.141.873.426,1.192,1.183,1.343a1.68,1.68,0,0,0,1.85-.8,3.093,3.093,0,0,0,.4-1.647c0-.96.019-1.919-.01-2.879-.011-.351.154-.344.4-.344s.4-.013.4.339q-.035,2.741,0,5.485c0,.314-.09.367-.376.366-.271,0-.391-.057-.353-.348a6.113,6.113,0,0,0,0-.687Z" transform="translate(-96.002 -8.852)" fill="#020202"/>
  <path id="Path_151" data-name="Path 151" d="M59.28,8.541c-.855-1.061-1.689-2.1-2.528-3.134a.205.205,0,0,1,0-.309c.179-.215.344-.441.528-.679.576.459,1.164.9,1.727,1.374.22.186.321.184.513-.045.942-1.124,1.907-2.227,2.863-3.336a.335.335,0,0,1,.079.05c.542.7.543.7.043,1.432q-1.488,2.153-2.97,4.31C59.463,8.311,59.378,8.41,59.28,8.541Z" transform="translate(-37.825 -1.684)" fill="#010201"/>
  <path id="Path_152" data-name="Path 152" d="M125.013,15.879a3.07,3.07,0,0,1,1.7-3.01,2.948,2.948,0,0,1,3.043.384,1.936,1.936,0,0,1,.562.9c.205.743.192.576-.46.6a.226.226,0,0,1-.255-.192,1.582,1.582,0,0,0-1.576-1.278,1.961,1.961,0,0,0-1.919,1.192,3.156,3.156,0,0,0,.428,3.433,1.777,1.777,0,0,0,1.861.512,1.727,1.727,0,0,0,1.258-1.41c.1-.516.472-.249.691-.247.244,0,.1.256.068.4a2.382,2.382,0,0,1-2.12,1.976,2.775,2.775,0,0,1-3.03-1.771,3.474,3.474,0,0,1-.249-1.491Z" transform="translate(-83.326 -8.479)" fill="#020202"/>
  <path id="Path_153" data-name="Path 153" d="M93.591,41.547c0,.921,0,.915-.924,1.044a2.853,2.853,0,0,1-1.264-.1,1.576,1.576,0,0,1-1.166-1.461,1.672,1.672,0,0,1,.986-1.681,3.093,3.093,0,0,1,2-.14c.252.054.232.2.154.384-.064.151-.008.4-.332.288a2.008,2.008,0,0,0-1.026-.063,1.009,1.009,0,0,0-.9,1.047,1.039,1.039,0,0,0,.944,1.055c.144.019.288,0,.437.013.31.025.288-.179.295-.39s-.052-.338-.288-.3c-.307.047-.335-.122-.341-.374-.008-.294.159-.288.357-.278h.12C93.591,40.586,93.591,40.586,93.591,41.547Z" transform="translate(-60.171 -26.122)" fill="#0f68b3"/>
  <path id="Path_154" data-name="Path 154" d="M163.662,14.244a2.414,2.414,0,0,1,2.066-1.32c.192-.008.341,0,.276.228-.056.192.221.541-.249.566a2,2,0,0,0-1.9,1.4,2.061,2.061,0,0,0-.123.744c.007,1.014-.014,2.028.012,3.042.01.369-.207.288-.406.288s-.413.1-.408-.28q.03-2.8,0-5.6c0-.325.156-.3.362-.288.185.009.411-.075.375.273a9.328,9.328,0,0,0-.008.955Z" transform="translate(-108.581 -8.687)" fill="#020202"/>
  <path id="Path_155" data-name="Path 155" d="M138.773,39.055a4.737,4.737,0,0,1,.48.038c.462.082.486.151.325.6-.063.178-.129.184-.288.125a1.39,1.39,0,0,0-.746-.088c-.159.029-.327.087-.35.276s.124.258.26.316c.246.1.5.178.744.288a.972.972,0,0,1,.653.96,1.02,1.02,0,0,1-.76.93,2.489,2.489,0,0,1-1.571-.037c-.4-.129-.107-.367-.1-.548.013-.279.192-.168.339-.111a1.74,1.74,0,0,0,.786.11c.192-.016.384-.053.431-.281s-.134-.326-.316-.4c-.149-.058-.3-.1-.453-.158q-.98-.349-.853-1.128a1.134,1.134,0,0,1,1.175-.882h.24C138.773,39.062,138.773,39.058,138.773,39.055Z" transform="translate(-91.52 -26.088)" fill="#0f68b3"/>
  <path id="Path_156" data-name="Path 156" d="M160.731,42.257a1.489,1.489,0,0,1,.672-.36.913.913,0,0,1,1.116.768,8.606,8.606,0,0,1,.054,1.557c.008.306-.233.18-.384.192s-.327.039-.319-.221c.012-.384,0-.774,0-1.162,0-.335-.136-.576-.5-.609-.316-.028-.558.254-.566.636s-.014.748,0,1.122c.012.288-.181.241-.346.236s-.362.073-.358-.225c.011-.681,0-1.362,0-2.043,0-.107-.011-.222.154-.215C160.484,41.943,160.757,41.841,160.731,42.257Z" transform="translate(-106.701 -27.972)" fill="#1268b3"/>
  <path id="Path_157" data-name="Path 157" d="M100.344,54.793a1.429,1.429,0,0,1-.856-.112,1.082,1.082,0,0,0-1.141.088.525.525,0,0,0-.037.9,1.1,1.1,0,0,0,1.551-.242h-.776c-.114,0-.23-.032-.227-.168s.121-.161.234-.162h1.286c.205,0,.215.118.187.261a.811.811,0,0,1-.47.568,2.3,2.3,0,0,1-2.151,0,.737.737,0,0,1-.01-1.39,2.3,2.3,0,0,1,2.153,0,1.067,1.067,0,0,1,.2.134.507.507,0,0,1,.06.119Z" transform="translate(-64.969 -36.225)" fill="#1568b3"/>
  <path id="Path_158" data-name="Path 158" d="M107.6,55.28c-.081.273-.154.473-.2.679-.048.225-.168.288-.393.288-.245-.007-.263-.1-.2-.3.152-.455.3-.912.438-1.368.029-.09.041-.192.154-.208a.271.271,0,0,1,.256.154l.588.913c.2-.312.371-.576.547-.838.071-.1.115-.26.288-.228.15.027.153.167.192.277.133.418.275.835.391,1.258.027.1.211.273-.027.315-.168.03-.416.127-.506-.158-.074-.236-.14-.48-.227-.777-.158.249-.28.451-.412.647-.163.242-.334.234-.491,0C107.881,55.742,107.766,55.544,107.6,55.28Z" transform="translate(-71.19 -36.285)" fill="#1168b3"/>
  <path id="Path_159" data-name="Path 159" d="M134.2,40.405c0,.508-.015,1.016.006,1.523.012.272-.11.308-.334.3-.2-.009-.359.014-.355-.279q.022-1.543,0-3.087c0-.295.158-.27.355-.278.225-.01.345.028.333.3C134.189,39.389,134.2,39.9,134.2,40.405Z" transform="translate(-88.997 -25.774)" fill="#1b69b4"/>
  <path id="Path_160" data-name="Path 160" d="M102.84,40.422c0,.493-.01.986,0,1.479.007.228-.033.346-.3.324-.211-.017-.373.012-.367-.3q.032-1.518,0-3.038c-.007-.314.154-.288.366-.305.266-.021.308.1.3.323C102.829,39.407,102.84,39.914,102.84,40.422Z" transform="translate(-68.123 -25.769)" fill="#0e67b2"/>
  <path id="Path_161" data-name="Path 161" d="M80.7,26.662V5.445h.039V26.662Z" transform="translate(-53.822 -3.706)" fill="#a7a4a4"/>
  <path id="Path_162" data-name="Path 162" d="M147.253,43.293c0,.293-.013.586,0,.879.015.249-.049.346-.323.347s-.364-.078-.354-.359c.021-.611.018-1.225,0-1.837-.008-.258.1-.309.325-.308s.376.03.353.32C147.235,42.652,147.253,42.974,147.253,43.293Z" transform="translate(-97.692 -28.06)" fill="#0f68b3"/>
  <path id="Path_163" data-name="Path 163" d="M147.231,39.124a.368.368,0,0,1-.368.384.354.354,0,0,1-.415-.371.344.344,0,0,1,.378-.367.375.375,0,0,1,.4.355Z" transform="translate(-97.604 -25.901)" fill="#1f6ab4"/>
  <path id="Path_164" data-name="Path 164" d="M94.483,57.561c.173-.088.02-.5.288-.4.183.065-.011.331-.05.5a2.437,2.437,0,0,1-.177.525.208.208,0,0,1-.3.106c-.131-.089-.01-.143.046-.233.119-.192-.082-.367-.1-.558-.013-.121-.225-.283-.013-.354s.17.178.227.295C94.421,57.485,94.407,57.548,94.483,57.561Z" transform="translate(-62.73 -38.128)" fill="#266cb5"/>
  <path id="Path_165" data-name="Path 165" d="M26.946,28.293H22.7c-.545,0-.654-.11-.655-.659V21.627c0-.527.13-.672.663-.649.343.017.384-.121.384-.413a10.042,10.042,0,0,1,.073-2.111,3.9,3.9,0,0,1,7.718.7c.019.507.021,1.014.015,1.521,0,.212.043.3.288.309.683.012.744.087.744.773V27.6c0,.6-.1.7-.7.7Z" transform="translate(-14.76 -10.305)" fill="#fff"/>
  <g id="Group_57" data-name="Group 57" transform="translate(57.477 4.138)">
    <path id="Path_166" data-name="Path 166" d="M173.377,16.135c.694.008,1.388,0,2.082,0s1.362-.015,2.042.008c.295.01.364-.1.343-.363a6.508,6.508,0,0,0-.171-1.1,2.673,2.673,0,0,0-5.134-.212,4.617,4.617,0,0,0-.226,1.727c.043,1.448.8,3.087,2.986,2.974a2.5,2.5,0,0,0,2.448-1.955c.019-.083.076-.181-.016-.258a.684.684,0,0,0-.786.249,1.823,1.823,0,0,1-1.247,1.241,2.063,2.063,0,0,1-2.591-2.055C173.087,16.157,173.186,16.133,173.377,16.135Zm-.27-.808a2.183,2.183,0,0,1,1.919-2.025,2.043,2.043,0,0,1,2.015,2.015c.023.22-.138.151-.239.152-.576.006-1.151,0-1.72,0h-1.72c-.1,0-.245.076-.254-.143Z" transform="translate(-172.304 -12.636)" fill="#020202"/>
  </g>
  <g id="Group_58" data-name="Group 58" transform="translate(35.572 4.119)">
    <path id="Path_168" data-name="Path 168" d="M112.178,16.937a.683.683,0,0,0-.78.273,1.823,1.823,0,0,1-1.255,1.231,2.069,2.069,0,0,1-2.591-2.073c-.017-.209.073-.243.253-.241.708.008,1.416,0,2.123,0,.672,0,1.337-.018,2,.008.319.012.373-.1.358-.384a4.394,4.394,0,0,0-.269-1.4,2.452,2.452,0,0,0-2.2-1.708,2.488,2.488,0,0,0-2.6,1.336,4.208,4.208,0,0,0-.142,3.628,2.352,2.352,0,0,0,1.823,1.512,3.75,3.75,0,0,0,1.157.025,2.391,2.391,0,0,0,2.155-1.995C112.234,17.074,112.278,16.995,112.178,16.937Zm-4.59-1.741a2.322,2.322,0,0,1,1.208-1.735,1.889,1.889,0,0,1,2.613,1.384.1.1,0,0,0,.006.039c.134.581.134.581-.448.581h-1.482c-.56,0-1.121-.011-1.681,0-.228.009-.267-.059-.215-.273Z" transform="translate(-106.734 -12.609)" fill="#020202"/>
  </g>
  <g id="Group_59" data-name="Group 59" transform="translate(50.079 13.909)">
    <path id="Path_170" data-name="Path 170" d="M152.821,42.254c.014-.28-.125-.438-.314-.308-.378.26-.659-.035-.982-.065a1.162,1.162,0,0,0-.239,0,1.2,1.2,0,0,0-1.055.906,1.289,1.289,0,0,0,.422,1.4,1.2,1.2,0,0,0,1.439-.06c.077.7-.43,1.013-1.229.762-.138-.044-.288-.213-.384.1-.084.275.015.366.243.422a2.662,2.662,0,0,0,.712.08c.878-.023,1.283-.367,1.343-1.24C152.834,43.588,152.789,42.918,152.821,42.254Zm-1.3,1.654a.768.768,0,0,1,0-1.522c.408-.009.608.24.607.752S151.91,43.914,151.52,43.908Z" transform="translate(-150.169 -41.875)" fill="#1068b3"/>
  </g>
  <g id="Group_60" data-name="Group 60" transform="translate(38.508 12.807)">
    <path id="Path_172" data-name="Path 172" d="M118.05,40.161a1.084,1.084,0,0,0-.873-.49,1.353,1.353,0,0,0-.954.346c0-.4-.01-.732,0-1.065.009-.238,0-.393-.322-.384-.3.006-.344.111-.341.374.013.974,0,1.949,0,2.923,0,.126-.133.32.119.343.206.018.473.1.47-.273a1.247,1.247,0,0,0,1.718.011,1.516,1.516,0,0,0,.182-1.784Zm-1.158,1.579a.653.653,0,0,1-.672-.728c-.008-.511.243-.818.666-.818a.78.78,0,0,1,0,1.547Z" transform="translate(-115.525 -38.568)" fill="#0f68b3"/>
  </g>
  <g id="Group_61" data-name="Group 61" transform="translate(35.262 13.899)">
    <path id="Path_174" data-name="Path 174" d="M107.2,41.866a1.276,1.276,0,0,0-1.4,1.3,1.24,1.24,0,0,0,1.332,1.313,1.29,1.29,0,0,0,1.407-1.3,1.247,1.247,0,0,0-1.338-1.312Zm-.062,2.127a.762.762,0,0,1-.672-.81.745.745,0,0,1,.693-.824c.414,0,.672.314.672.822s-.283.828-.689.812Z" transform="translate(-105.799 -41.86)" fill="#1068b3"/>
  </g>
  <g id="Group_62" data-name="Group 62" transform="translate(41.583 13.907)">
    <path id="Path_176" data-name="Path 176" d="M126.985,44.062c.007-.173,0-.346,0-.52h-.008c0-.24.014-.48,0-.72a.912.912,0,0,0-.667-.9,2.015,2.015,0,0,0-1.179.069c-.154.053-.25.11-.178.316s.172.182.33.127a1.008,1.008,0,0,1,.777-.039c.126.057.245.151.209.3-.032.136-.178.085-.273.09a1.843,1.843,0,0,0-.842.219.775.775,0,0,0,.384,1.47,1.035,1.035,0,0,0,.642-.181c.1-.072.138-.1.233.032.125.175.352.1.517.056C127.063,44.347,126.981,44.175,126.985,44.062ZM125.752,44a.331.331,0,0,1-.353-.306c-.033-.259.272-.451.708-.48.175-.012.24.041.233.217a.584.584,0,0,1-.584.569Z" transform="translate(-124.721 -41.867)" fill="#1168b3"/>
  </g>
  <g id="Group_63" data-name="Group 63" transform="translate(38.52 18.061)">
    <path id="Path_178" data-name="Path 178" d="M118.4,54.7a2.262,2.262,0,0,0-2.574.017.672.672,0,0,0,.027,1.1,2.024,2.024,0,0,0,1.242.4,2.1,2.1,0,0,0,1.27-.367A.672.672,0,0,0,118.4,54.7Zm-1.264,1.22c-.515,0-.947-.3-.946-.663s.433-.667.946-.662.948.325.932.682C118.05,55.616,117.613,55.916,117.133,55.919Z" transform="translate(-115.551 -54.305)" fill="#1368b3"/>
  </g>
  <g id="Group_64" data-name="Group 64" transform="translate(30.435 18.653)">
    <path id="Path_180" data-name="Path 180" d="M92.2,56.752a.391.391,0,0,0-.412-.357c-.072,0-.16.066-.185-.066-.019-.106.037-.288-.156-.249-.16.032-.074.2-.088.307a2.483,2.483,0,0,0,0,.312c.037.174-.107.456.069.57a.576.576,0,0,0,.606-.019.456.456,0,0,0,.166-.5Zm-.41.344c-.149,0-.2-.1-.192-.24s.038-.252.192-.24a.208.208,0,0,1,.183.258c-.018.107-.049.22-.183.221Z" transform="translate(-91.338 -56.075)" fill="#1e6ab4"/>
    <path id="Path_181" data-name="Path 181" d="M92.3,57.69c-.151-.012-.192.112-.192.24s.047.241.192.24.165-.113.177-.222a.208.208,0,0,0-.177-.258Z" transform="translate(-91.852 -57.15)" fill="#f3f4fa"/>
  </g>
  <path id="Path_182" data-name="Path 182" d="M31.353,23.2c-.814,0-1.631-.011-2.441.006-.266.006-.351-.078-.337-.34a19.494,19.494,0,0,1,.059-2.2,2.8,2.8,0,0,1,2.995-2.458,2.879,2.879,0,0,1,2.534,2.8c.027.626,0,1.254.02,1.88.008.243-.061.323-.312.319C33.034,23.189,32.194,23.2,31.353,23.2Z" transform="translate(-19.108 -12.203)" fill="#2188c9"/>
  <path id="Path_183" data-name="Path 183" d="M34.633,41.507c-.741,0-.743,0-.683-.729.016-.2.052-.4.065-.595.031-.433.129-.834-.266-1.23a.995.995,0,0,1,.232-1.446,1.067,1.067,0,0,1,1.444.137,1.031,1.031,0,0,1,0,1.439.658.658,0,0,0-.212.659c.072.445.076.9.154,1.343.059.342-.032.468-.376.417a2.476,2.476,0,0,0-.358,0Z" transform="translate(-22.406 -24.91)" fill="#2188c9"/>
</svg>
