<svg id="logo" xmlns="http://www.w3.org/2000/svg" width="50" height="50" viewBox="0 0 50 50">
  <path id="Path_19647" data-name="Path 19647" d="M22.857.166h4.432c6.086,0,9.643.894,12.8,2.587a17.539,17.539,0,0,1,7.323,7.323C49.1,13.233,50,16.79,50,22.876v4.413c0,6.086-.894,9.643-2.587,12.8a17.539,17.539,0,0,1-7.323,7.323C36.932,49.105,33.375,50,27.289,50H22.876c-6.086,0-9.643-.894-12.8-2.587A17.54,17.54,0,0,1,2.753,40.09C1.06,36.932.166,33.375.166,27.289V22.876c0-6.086.894-9.643,2.587-12.8a17.539,17.539,0,0,1,7.323-7.323C13.214,1.06,16.79.166,22.857.166Z" transform="translate(-0.166 0.001)" fill="#0068ff" fill-rule="evenodd"/>
  <path id="Path_19648" data-name="Path 19648" d="M49.975,26.474V27.2c0,6.086-.894,9.643-2.587,12.8a17.54,17.54,0,0,1-7.323,7.323c-3.157,1.693-6.714,2.587-12.8,2.587H22.852c-4.98,0-8.267-.6-11.027-1.744l-4.55-4.685Z" transform="translate(-0.143 0.088)" fill="#001a33" fill-rule="evenodd" opacity="0.12"/>
  <path id="Path_19649" data-name="Path 19649" d="M7.791,43.734A14.59,14.59,0,0,0,15.1,42.323c8.984,4.966,23.028,4.729,31.529-.712q.495-.742.924-1.542c1.7-3.169,2.6-6.739,2.6-12.847V22.793c0-6.109-.9-9.678-2.6-12.847A17.6,17.6,0,0,0,40.207,2.6C37.038.9,33.468,0,27.359,0H22.912c-5.2,0-8.58.655-11.418,1.905q-.233.208-.456.424C2.712,10.355,2.079,27.751,9.139,37.2q.012.021.026.042c1.088,1.6.038,4.41-1.6,6.051C7.294,43.543,7.39,43.7,7.791,43.734Z" transform="translate(-0.152)" fill="#fff" fill-rule="evenodd"/>
  <path id="Path_19650" data-name="Path 19650" d="M20.6,17H10.839v2.092H17.61l-6.676,8.274a1.875,1.875,0,0,0-.361,1.236v.533h9.206a.844.844,0,0,0,.837-.837V27.176H13.5L19.778,19.3c.1-.114.266-.323.342-.418l.038-.057a2.486,2.486,0,0,0,.437-1.541Z" transform="translate(-0.131 0.057)" fill="#0068ff"/>
  <path id="Path_19651" data-name="Path 19651" d="M32.944,29.135h1.389V17H32.24V28.431A.7.7,0,0,0,32.944,29.135Z" transform="translate(-0.06 0.057)" fill="#0068ff"/>
  <path id="Path_19652" data-name="Path 19652" d="M25.83,19.692a4.755,4.755,0,1,0,4.755,4.755A4.757,4.757,0,0,0,25.83,19.692Zm0,7.551a2.8,2.8,0,1,1,2.8-2.8A2.8,2.8,0,0,1,25.83,27.243Z" transform="translate(-0.097 0.065)" fill="#0068ff"/>
  <path id="Path_19653" data-name="Path 19653" d="M40.5,19.616A4.793,4.793,0,1,0,45.3,24.409,4.8,4.8,0,0,0,40.5,19.616Zm0,7.627a2.815,2.815,0,1,1,2.815-2.815A2.809,2.809,0,0,1,40.5,27.243Z" transform="translate(-0.048 0.065)" fill="#0068ff"/>
  <path id="Path_19654" data-name="Path 19654" d="M29.459,29.125h1.122V19.957H28.622v8.35A.841.841,0,0,0,29.459,29.125Z" transform="translate(-0.071 0.066)" fill="#0068ff"/>
</svg>
