<svg width="360" height="136" viewBox="0 0 360 136" fill="none" xmlns="http://www.w3.org/2000/svg">
<path d="M168.544 75.8585C168.544 75.8585 168.728 75.8585 168.544 75.8585C178.836 75.3047 187.107 67.1834 188.026 57.2163C188.026 56.6626 188.026 55.9243 188.026 55.3706V48.1721C188.026 36.7284 178.836 27.4996 167.441 27.4996H165.604C161.376 30.6374 158.436 35.8055 158.068 41.5274V86.1947C158.068 80.6574 162.295 76.2276 167.809 76.0431C168.177 75.8585 168.36 75.8585 168.544 75.8585Z" fill="url(#paint0_linear_1919_9996)"/>
<path d="M111.202 50.5719C111.202 24.1776 89.8828 2.76677 63.6011 2.76677C37.3194 2.76677 16 24.1776 16 50.5719C16 76.9662 37.3194 98.377 63.6011 98.377C89.8828 98.377 111.202 76.9662 111.202 50.5719ZM63.6011 59.0624C59.0064 59.0624 55.1469 55.3709 55.1469 50.5719C55.1469 45.9575 58.8226 42.0814 63.6011 42.0814C68.1958 42.0814 72.0554 45.7729 72.0554 50.5719C72.0554 55.1863 68.1958 59.0624 63.6011 59.0624Z" fill="url(#paint1_linear_1919_9996)"/>
<path d="M63.601 2.76663C60.109 2.76663 56.8008 3.13578 53.6764 3.87409C66.174 10.3342 74.6283 23.4391 74.6283 38.5743C74.6283 45.4036 72.7904 51.8638 69.8498 57.4011L51.471 96.7157L46.5087 107.421C45.406 109.821 44.8546 112.405 44.8546 115.173C44.8546 125.694 53.3089 134 63.7848 134C70.5849 134 76.6499 130.308 79.9581 124.771L105.505 74.0129L107.71 69.5831V69.3985C110.283 63.6766 111.57 57.2165 111.57 50.3872C111.202 24.1774 89.8827 2.76663 63.601 2.76663Z" fill="url(#paint2_linear_1919_9996)"/>
<path d="M309.51 107.606C310.061 105.76 310.429 103.914 310.429 101.884C310.429 97.6386 309.142 93.7625 306.937 90.6247L306.201 89.5173L297.196 77.1507L295.725 75.3049C296.093 76.0432 296.461 76.7815 296.461 77.7044C296.461 78.2582 296.277 78.8119 296.093 79.3656C296.093 79.5502 295.909 79.7348 295.909 79.9193L294.807 82.3188L291.682 88.779C288.374 95.7929 291.131 104.099 298.115 107.421C301.79 109.082 306.018 109.082 309.51 107.606Z" fill="url(#paint3_linear_1919_9996)"/>
<path d="M339.916 52.2422L342.121 47.8123C345.429 40.7985 342.672 32.4925 335.688 29.1702C334.034 28.2473 332.197 27.8781 330.359 27.6936C330.175 27.6936 329.991 27.6936 329.807 27.6936C329.623 27.6936 329.44 27.6936 329.256 27.6936C324.11 27.6936 319.331 30.6468 316.942 35.4458L312.531 44.49C312.164 45.4128 311.245 46.1511 310.142 46.1511C309.407 46.1511 308.672 45.782 308.12 45.2283L310.51 48.7352C310.51 48.7352 310.51 48.9198 310.693 48.9198C314.369 53.9033 320.25 57.0411 326.867 57.0411C331.829 57.0411 336.424 55.1954 339.916 52.2422Z" fill="url(#paint4_linear_1919_9996)"/>
<path d="M238.935 93.2087C244.449 93.2087 249.411 95.9773 252.168 100.223L252.351 100.592C252.719 101.145 253.087 101.884 253.27 102.437C257.13 107.975 264.665 110.19 270.914 107.052C277.898 103.73 280.655 95.239 277.347 88.4097L265.768 64.5994L251.433 34.8827C249.043 30.0838 244.265 27.1306 239.119 27.1306C238.935 27.1306 238.751 27.1306 238.567 27.1306C238.384 27.1306 238.2 27.1306 238.016 27.1306C232.87 27.1306 228.091 30.0838 225.702 34.8827L211.367 64.5994L199.788 88.4097C196.48 95.4236 199.237 103.73 206.221 107.052C212.469 110.19 220.005 107.975 223.864 102.437C224.232 101.884 224.599 101.33 224.967 100.592L225.151 100.223C228.643 95.9773 233.421 93.2087 238.935 93.2087Z" fill="url(#paint5_linear_1919_9996)"/>
<path d="M248.492 92.6551C249.227 93.7626 249.779 95.0546 250.514 96.3466C250.881 97.0849 251.249 97.8232 251.433 98.5615L252.352 100.407L252.535 100.776C252.903 101.33 253.271 102.068 253.454 102.622C257.314 108.159 264.849 110.374 271.098 107.237C278.082 103.914 280.839 95.4238 277.531 88.5944L265.952 64.7842L254.006 40.2356C251.8 48.5415 244.265 54.8171 235.076 54.8171C233.973 54.8171 233.054 54.8171 232.135 54.6325C230.665 54.4479 229.011 54.2634 227.54 54.2634C223.313 54.2634 218.59 55.0133 215.098 56.859L211.239 64.7958L203.52 80.6693C208.298 78.0852 214.124 76.7816 219.821 76.7816C225.335 76.7816 230.665 78.0736 235.259 80.4731C240.773 83.0572 245.368 87.3024 248.492 92.6551Z" fill="url(#paint6_linear_1919_9996)"/>
<path d="M306.753 90.44C306.937 90.44 306.937 90.44 306.753 90.44C308.958 93.7624 310.245 97.6385 310.245 101.884C310.245 103.914 309.877 105.76 309.326 107.606C311.715 106.683 313.921 105.022 315.391 102.622C315.575 102.437 315.575 102.437 315.575 102.253C315.759 101.884 316.126 101.33 316.31 100.961L316.494 100.592L329.175 74.382L329.726 73.2745L330.462 71.6133L339.835 52.2329C336.343 55.1861 331.748 57.0318 326.786 57.0318C320.169 57.0318 314.288 53.8941 310.612 48.9105L310.429 48.7259L308.039 45.219L307.856 45.0344L301.056 35.621C298.299 31.9295 294.072 29.8992 289.844 29.8992C289.109 29.8992 288.374 29.8992 287.639 30.0838C287.455 30.0838 287.271 30.0838 287.088 30.0838C286.904 30.0838 286.72 30.0838 286.536 30.2684C284.698 30.6375 283.044 31.3758 281.574 32.4833C275.325 37.0977 273.855 45.7727 278.45 52.0483L293.888 73.4591L294.991 74.9357C295.174 75.1203 295.174 75.3048 295.358 75.3048L296.828 77.1506L305.834 89.5172C306.385 89.7017 306.569 90.0709 306.753 90.44Z" fill="url(#paint7_linear_1919_9996)"/>
<path d="M144.284 108.528C152.003 108.528 158.252 102.253 158.252 94.5006V43.3731C158.252 43.004 158.252 42.6348 158.252 42.4503C158.252 42.2657 158.252 41.8965 158.252 41.5274C158.619 35.8055 161.376 30.822 165.787 27.4996H144.652C144.468 27.4996 144.284 27.4996 144.284 27.4996C136.565 27.4996 130.316 33.7752 130.316 41.5274V94.8698C130.316 102.437 136.565 108.528 144.284 108.528Z" fill="url(#paint8_linear_1919_9996)"/>
<defs>
<linearGradient id="paint0_linear_1919_9996" x1="178.744" y1="74.2105" x2="154.101" y2="30.4982" gradientUnits="userSpaceOnUse">
<stop stop-color="#30548B"/>
<stop offset="1" stop-color="#4778BB"/>
</linearGradient>
<linearGradient id="paint1_linear_1919_9996" x1="77.81" y1="63.0077" x2="14.5862" y2="8.2582" gradientUnits="userSpaceOnUse">
<stop stop-color="#30548B"/>
<stop offset="0.1859" stop-color="#30548B"/>
<stop offset="0.4106" stop-color="#44788E"/>
<stop offset="0.7897" stop-color="#6FC387"/>
<stop offset="1" stop-color="#6FC387"/>
</linearGradient>
<linearGradient id="paint2_linear_1919_9996" x1="77.8115" y1="108.069" x2="77.8115" y2="33.0981" gradientUnits="userSpaceOnUse">
<stop stop-color="#4A96D1"/>
<stop offset="1" stop-color="#6FC387"/>
</linearGradient>
<linearGradient id="paint3_linear_1919_9996" x1="305.969" y1="101.622" x2="291.991" y2="86.8623" gradientUnits="userSpaceOnUse">
<stop stop-color="#30548B"/>
<stop offset="0.9838" stop-color="#4778BB"/>
<stop offset="1" stop-color="#4778BB"/>
</linearGradient>
<linearGradient id="paint4_linear_1919_9996" x1="335.227" y1="51.3052" x2="311.847" y2="24.6534" gradientUnits="userSpaceOnUse">
<stop stop-color="#30548B"/>
<stop offset="0.9838" stop-color="#4778BB"/>
<stop offset="1" stop-color="#4778BB"/>
</linearGradient>
<linearGradient id="paint5_linear_1919_9996" x1="245.011" y1="93.8413" x2="215.62" y2="54.0328" gradientUnits="userSpaceOnUse">
<stop stop-color="#30548B"/>
<stop offset="0.9838" stop-color="#4778BB"/>
<stop offset="1" stop-color="#4778BB"/>
</linearGradient>
<linearGradient id="paint6_linear_1919_9996" x1="267.162" y1="96.7951" x2="212.82" y2="45.0802" gradientUnits="userSpaceOnUse">
<stop stop-color="#4896D2"/>
<stop offset="1" stop-color="#52BDD0"/>
</linearGradient>
<linearGradient id="paint7_linear_1919_9996" x1="329.341" y1="84.3759" x2="279.791" y2="31.0995" gradientUnits="userSpaceOnUse">
<stop stop-color="#4896D2"/>
<stop offset="1" stop-color="#52BDD0"/>
</linearGradient>
<linearGradient id="paint8_linear_1919_9996" x1="148.103" y1="102.039" x2="148.103" y2="39.1316" gradientUnits="userSpaceOnUse">
<stop stop-color="#4896D2"/>
<stop offset="1" stop-color="#52BDD0"/>
</linearGradient>
</defs>
</svg>
