<?xml version="1.0" encoding="utf-8"?>
<!-- Generator: Adobe Illustrator 25.0.0, SVG Export Plug-In . SVG Version: 6.00 Build 0)  -->
<svg version="1.1" id="Layer_1" xmlns="http://www.w3.org/2000/svg" xmlns:xlink="http://www.w3.org/1999/xlink" x="0px" y="0px"
	 viewBox="0 0 841.89 379.48" style="enable-background:new 0 0 841.89 379.48;" xml:space="preserve">
<style type="text/css">
	.st0{fill-rule:evenodd;clip-rule:evenodd;fill:url(#SVGID_1_);}
	.st1{fill-rule:evenodd;clip-rule:evenodd;fill:url(#SVGID_2_);}
	.st2{fill-rule:evenodd;clip-rule:evenodd;fill:#5EAE46;}
	.st3{fill-rule:evenodd;clip-rule:evenodd;fill:url(#SVGID_3_);}
	.st4{fill-rule:evenodd;clip-rule:evenodd;fill:#FFFFFF;}
	.st5{fill:#0B783D;}
</style>
<g>
	<g>
		<linearGradient id="SVGID_1_" gradientUnits="userSpaceOnUse" x1="254.5132" y1="224.5087" x2="220.4701" y2="224.5087">
			<stop  offset="0" style="stop-color:#5EAE46"/>
			<stop  offset="1" style="stop-color:#0F542D"/>
		</linearGradient>
		<path class="st0" d="M232.63,212.35c-6.72,0-12.16,5.44-12.16,12.16c0,6.72,5.45,12.16,12.16,12.16h21.88v-24.31H232.63z
			 M232.63,230.59c-3.36,0-6.08-2.72-6.08-6.08c0-3.36,2.72-6.08,6.08-6.08c3.36,0,6.08,2.72,6.08,6.08
			C238.71,227.87,235.99,230.59,232.63,230.59z"/>
		<linearGradient id="SVGID_2_" gradientUnits="userSpaceOnUse" x1="157.2571" y1="141.8438" x2="157.2571" y2="292.588">
			<stop  offset="0" style="stop-color:#5EAE46"/>
			<stop  offset="1" style="stop-color:#0F542D"/>
		</linearGradient>
		<path class="st1" d="M232.63,207.49h21.88v-46.2c0-2.68-2.18-4.86-4.86-4.86H69.73v0c0-4.03,3.26-7.29,7.29-7.29h6.73l9.71-7.29
			H74.59c-8.06,0-14.59,6.53-14.59,14.59v0v97.25V278c0,8.06,6.53,14.59,14.59,14.59h165.33c8.06,0,14.59-6.53,14.59-14.59v-36.47
			h-21.88c-9.4,0-17.02-7.62-17.02-17.02C215.61,215.11,223.23,207.49,232.63,207.49z"/>
		<path class="st2" d="M254.51,141.84h-24.56l2.27,7.29h22.28c4.03,0,7.29,3.27,7.29,7.29v51.06l-7.29,4.86v24.31l7.29-4.86v39.25
			c4.5-4.41,7.29-10.56,7.29-17.36v-97.26C269.1,148.38,262.57,141.84,254.51,141.84z"/>
		<linearGradient id="SVGID_3_" gradientUnits="userSpaceOnUse" x1="88.4465" y1="119.898" x2="225.9511" y2="119.898">
			<stop  offset="0" style="stop-color:#5EAE46"/>
			<stop  offset="1" style="stop-color:#0F542D"/>
		</linearGradient>
		<path class="st3" d="M176.41,86.89l24.78,35l-75.5,31.01H88.45L176.41,86.89z M225.95,152.78h-84.98l75.5-31.12L225.95,152.78z"/>
		<g>
			<path class="st4" d="M115.72,254.89c0.5,3.22,1.3,6.33,2.37,9.29c4.1-9.54,11.12-17.62,20.06-22.9
				c-0.08-4.3,0.39-8.52,1.35-12.57c-8.35,1.97-16.23,5-23.5,8.95C114.95,243.19,114.8,249,115.72,254.89z"/>
			<path class="st4" d="M111.76,211.84c-2.79,0.46-5.54,1.05-8.24,1.74c-2.32,7.75-3.72,15.86-4.09,24.18
				c10.54-6.65,22.52-11.33,35.51-13.45c2.05-0.34,4.09-0.59,6.13-0.79c1.4-3.83,3.17-7.47,5.4-10.83
				C135.36,210.31,123.64,209.92,111.76,211.84z"/>
			<path class="st4" d="M177.88,207.96h-7.41l-18.63,33.68h7.65l6.45-12.28h15.9l6.32,12.28h8.61L177.88,207.96z M168.87,223.65
				l5.05-9.12l4.74,9.12H168.87z"/>
			<path class="st4" d="M161.77,197.95c-15.59-15.66-36.21-25.8-58.61-27.97c-7.05,10.96-11.98,23.37-14.31,36.55
				c4.15-1.28,8.43-2.3,12.83-3.02c16.79-2.74,33.25-0.87,48.17,4.68C153.22,204.18,157.24,200.71,161.77,197.95z"/>
		</g>
	</g>
	<g>
		<g>
			<g>
				<g>
					<polygon class="st5" points="707.02,184.39 707.02,197.78 679.41,197.78 679.41,244.6 666.02,244.6 666.02,247.01 
						681.8,247.01 681.8,200.17 709.39,200.17 709.39,184.39 					"/>
					<rect x="637.72" y="197.78" class="st5" width="23" height="2.39"/>
				</g>
				<g>
					<path class="st5" d="M733.83,177.7h13.55l34.51,60.21h-15.73l-11.6-21.96h-28.85l-11.94,21.96h-13.96L733.83,177.7z
						 M748.76,205.74l-8.62-16.33l-9.09,16.33H748.76z"/>
				</g>
				<g>
					<path class="st5" d="M340.46,177.7H354l34.51,60.21h-15.74l-11.54-21.96h-29.05l-11.77,21.96h-13.98L340.46,177.7z
						 M355.43,205.74l-8.66-16.33l-9.24,16.33H355.43z"/>
				</g>
				<path class="st5" d="M394.42,177.7h51.62c2.28,0,4.08,0.1,5.36,0.35c1.3,0.24,2.52,0.69,3.66,1.36c1.7,0.96,2.87,2.3,3.51,3.98
					c0.62,1.66,0.95,4.21,0.95,7.57v14.34c0,2.05-0.08,3.64-0.25,4.73c-0.16,1.12-0.48,2.17-0.94,3.2
					c-0.86,1.95-2.22,3.31-4.08,4.09c-1.89,0.77-4.62,1.16-8.22,1.16h-37.66v19.43h-13.97V177.7z M439.65,205.74
					c2.11,0,3.63-0.35,4.52-1.04c0.9-0.7,1.34-1.81,1.34-3.36v-5.89c0-1.56-0.44-2.67-1.34-3.32c-0.9-0.66-2.41-0.99-4.52-0.99
					h-31.26v14.6H439.65z"/>
				<path class="st5" d="M473.28,177.7h51.63c2.28,0,4.08,0.1,5.36,0.35c1.3,0.24,2.51,0.69,3.66,1.36c1.73,0.96,2.87,2.3,3.52,3.98
					c0.64,1.66,0.95,4.21,0.95,7.57v14.34c0,2.05-0.08,3.64-0.23,4.73c-0.17,1.12-0.5,2.17-0.96,3.2c-0.85,1.95-2.21,3.31-4.08,4.09
					c-1.87,0.77-4.6,1.16-8.21,1.16h-37.65v19.43h-13.98V177.7z M518.51,205.74c2.12,0,3.62-0.35,4.51-1.04
					c0.9-0.7,1.35-1.81,1.35-3.36v-5.89c0-1.56-0.45-2.67-1.35-3.32c-0.9-0.66-2.39-0.99-4.51-0.99h-31.25v14.6H518.51z"/>
				<path class="st5" d="M622.53,224.63c0,2.47-0.23,4.56-0.7,6.25c-0.43,1.7-1.18,3.07-2.24,4.09c-1.03,1.05-2.4,1.8-4.09,2.26
					c-1.68,0.46-3.77,0.67-6.24,0.67h-45.12c-2.48,0-4.55-0.22-6.2-0.67c-1.68-0.46-3.01-1.21-4.05-2.26
					c-1.04-1.03-1.79-2.39-2.26-4.09c-0.46-1.69-0.68-3.78-0.68-6.25v-33.67c0-4.88,0.98-8.3,2.94-10.29
					c1.95-1.99,5.37-2.98,10.25-2.98h45.12c2.47,0,4.56,0.23,6.24,0.71c1.69,0.5,3.06,1.24,4.09,2.26c1.06,1.01,1.81,2.39,2.24,4.1
					c0.47,1.7,0.7,3.77,0.7,6.19V224.63z M608.57,224.55v-33.41h-43.63v33.41H608.57z"/>
				<path class="st5" d="M672.68,237.9h-14.07v-46.76h-27.6V177.7h69.32v13.44h-27.65V237.9z"/>
			</g>
		</g>
	</g>
</g>
</svg>
