<svg id="coopbank" xmlns="http://www.w3.org/2000/svg" xmlns:xlink="http://www.w3.org/1999/xlink" width="104" height="52" viewBox="0 0 104 52">
  <defs>
    <clipPath id="clip-path">
      <rect id="Rectangle_5474" data-name="Rectangle 5474" width="103.929" height="20.539" fill="none"/>
    </clipPath>
  </defs>
  <g id="boundingbox" fill="rgba(255,0,0,0.1)" stroke="red" stroke-width="1" stroke-dasharray="4 4" opacity="0">
    <rect width="104" height="52" stroke="none"/>
    <rect x="0.5" y="0.5" width="103" height="51" fill="none"/>
  </g>
  <g id="Group_10455" data-name="Group 10455" transform="translate(0 15.713)">
    <g id="Group_10455-2" data-name="Group 10455" transform="translate(0 0)" clip-path="url(#clip-path)">
      <path id="Path_17813" data-name="Path 17813" d="M292.661,31.095V18.2h4.31a5.265,5.265,0,0,1,2.947.683,2.73,2.73,0,0,1,1.147,2.439,3.049,3.049,0,0,1-2.314,2.977q2.759.614,2.759,3.166a3.156,3.156,0,0,1-1.345,2.812,6.212,6.212,0,0,1-3.49.821Zm3.441-7.318a3.342,3.342,0,0,0,2.145-.545,2.138,2.138,0,0,0,.653-1.738,1.954,1.954,0,0,0-.574-1.524,2.8,2.8,0,0,0-1.918-.518h-1.621v4.325Zm.1,6.064a4.16,4.16,0,0,0,2.313-.467,2.205,2.205,0,0,0,.792-1.964,2.319,2.319,0,0,0-.634-1.756,3.444,3.444,0,0,0-2.363-.631h-1.522v4.818Z" transform="translate(-226.934 -14.111)" fill="#002a69"/>
      <path id="Path_17814" data-name="Path 17814" d="M343.134,39.141a3.749,3.749,0,0,1-3.171,1.381q-3.321,0-3.322-2.941a2.789,2.789,0,0,1,.584-1.817,3.133,3.133,0,0,1,1.473-.951,8.109,8.109,0,0,1,1.977-.372q.475-.035,1.049-.052c.27-.005.613-.009,1.028-.009v-.942a3.1,3.1,0,0,0-.138-1.021,1.268,1.268,0,0,0-.347-.5,2.468,2.468,0,0,0-1.661-.475,9.24,9.24,0,0,0-1.522.137q-.642.1-1.493.32v-1.29a14.468,14.468,0,0,1,3.4-.432,4.3,4.3,0,0,1,2.975.89,2.968,2.968,0,0,1,.89,2.319v7a2.272,2.272,0,0,1-1.206-.457,2.053,2.053,0,0,1-.517-.786m-1.352-3.662a4.523,4.523,0,0,0-2.086.372,1.792,1.792,0,0,0-.95,1.713,1.521,1.521,0,0,0,1.721,1.721,2.232,2.232,0,0,0,1.732-.658,2.3,2.3,0,0,0,.553-1.609v-1.54Z" transform="translate(-261.037 -23.4)" fill="#002a69"/>
      <path id="Path_17815" data-name="Path 17815" d="M382,31.625a3.755,3.755,0,0,1,3.212-1.449q3.5,0,3.5,3.21v7H386.6V33.689a2.9,2.9,0,0,0-.365-1.6,1.618,1.618,0,0,0-1.453-.665,2.187,2.187,0,0,0-1.879.873,3.1,3.1,0,0,0-.534,1.869v6.218h-2.106V30.323a2.756,2.756,0,0,1,1.1.415,2.206,2.206,0,0,1,.636.887" transform="translate(-294.865 -23.399)" fill="#002a69"/>
      <path id="Path_17816" data-name="Path 17816" d="M433.269,29.293h-2.492l-3.944-5.475v5.475h-2.106V15.875h2.106v7.543l3.886-4.184h2.312l-3.955,4.377Z" transform="translate(-329.34 -12.309)" fill="#002a69"/>
      <path id="Path_17817" data-name="Path 17817" d="M113.543,30.371a15.878,15.878,0,0,1-2.895.33,6,6,0,0,1-2.778-.588,4.059,4.059,0,0,1-1.631-1.549,6.249,6.249,0,0,1-.781-2.154,13.342,13.342,0,0,1-.2-2.439,10.806,10.806,0,0,1,.237-2.362,5.993,5.993,0,0,1,.84-2.068A4.21,4.21,0,0,1,108,18.08a6.043,6.043,0,0,1,2.69-.552,14.7,14.7,0,0,1,2.854.314v1.314a13.223,13.223,0,0,0-2.676-.34,2.986,2.986,0,0,0-1.74.493,3.18,3.18,0,0,0-1.027,1.254,6.046,6.046,0,0,0-.475,1.644,11.126,11.126,0,0,0-.118,1.7,12.721,12.721,0,0,0,.118,1.833,6.625,6.625,0,0,0,.464,1.782,3.3,3.3,0,0,0,1.048,1.359,3.085,3.085,0,0,0,1.839.535,13.166,13.166,0,0,0,2.568-.322Z" transform="translate(-81.621 -13.591)" fill="#e50019"/>
      <path id="Path_17818" data-name="Path 17818" d="M152.949,38.969a4.283,4.283,0,0,1-3.589,1.5,4.214,4.214,0,0,1-3.7-1.635,4.863,4.863,0,0,1-.731-1.7,8.634,8.634,0,0,1-.208-1.99,5.419,5.419,0,0,1,1.059-3.5,5.019,5.019,0,0,1,7.167-.018A5.548,5.548,0,0,1,154,35.171a6.04,6.04,0,0,1-1.048,3.8m-1.236-5.008a4.837,4.837,0,0,0-.366-1.22,2.168,2.168,0,0,0-4.024-.025,4.3,4.3,0,0,0-.335,1.211,7.749,7.749,0,0,0-.079,1.16,10.51,10.51,0,0,0,.068,1.236,5.767,5.767,0,0,0,.326,1.359,2.6,2.6,0,0,0,.732,1.1,2.016,2.016,0,0,0,1.326.449,2.071,2.071,0,0,0,2.066-1.419,5.151,5.151,0,0,0,.316-1.35,11.843,11.843,0,0,0,.069-1.374,6.432,6.432,0,0,0-.1-1.125" transform="translate(-112.22 -23.355)" fill="#e50019"/>
      <path id="Path_17819" data-name="Path 17819" d="M207.519,39.025a4.281,4.281,0,0,1-3.589,1.5,4.217,4.217,0,0,1-3.7-1.635,4.868,4.868,0,0,1-.731-1.7,8.669,8.669,0,0,1-.208-1.99,5.423,5.423,0,0,1,1.057-3.5,5.02,5.02,0,0,1,7.169-.018,5.55,5.55,0,0,1,1.048,3.555,6.042,6.042,0,0,1-1.048,3.8m-1.236-5.008a4.832,4.832,0,0,0-.366-1.219,2.167,2.167,0,0,0-4.024-.026,4.3,4.3,0,0,0-.336,1.211,7.956,7.956,0,0,0-.079,1.16,10.085,10.085,0,0,0,.069,1.236,5.637,5.637,0,0,0,.326,1.359,2.589,2.589,0,0,0,.731,1.1,2.021,2.021,0,0,0,1.325.449A2.07,2.07,0,0,0,206,37.866a5.121,5.121,0,0,0,.316-1.35,11.716,11.716,0,0,0,.071-1.375,6.39,6.39,0,0,0-.1-1.125" transform="translate(-154.535 -23.399)" fill="#e50019"/>
      <path id="Path_17820" data-name="Path 17820" d="M247.922,31.614a3.915,3.915,0,0,1,3.2-1.438,3.314,3.314,0,0,1,3.114,1.618,5.067,5.067,0,0,1,.564,1.618,9.832,9.832,0,0,1,.149,1.8,5.657,5.657,0,0,1-1.137,3.729,4.779,4.779,0,0,1-3.886,1.548,7.839,7.839,0,0,1-1.623-.19v2.976H246.2V30.323a3.731,3.731,0,0,1,1.081.481,2.055,2.055,0,0,1,.643.81M248.3,39a4.942,4.942,0,0,0,1.6.252,2.438,2.438,0,0,0,2.393-1.28,4.187,4.187,0,0,0,.376-1.324,10.818,10.818,0,0,0,.089-1.523,6.038,6.038,0,0,0-.455-2.646,1.746,1.746,0,0,0-1.67-1.055,2,2,0,0,0-1.967,1.15,3.478,3.478,0,0,0-.3,1.1A8.165,8.165,0,0,0,248.3,34.8Z" transform="translate(-190.906 -23.399)" fill="#e50019"/>
      <path id="Path_17821" data-name="Path 17821" d="M189.065,49.916q1.025,0,1.025.817t-1.025.822q-1.02,0-1.02-.822t1.02-.817" transform="translate(-145.813 -38.706)" fill="#e50019"/>
      <path id="Path_17822" data-name="Path 17822" d="M60.36,6.319a6.713,6.713,0,0,0,3.067.575,4.49,4.49,0,0,0-2.213-1.8,5.167,5.167,0,0,0-3.041-.262A5.015,5.015,0,0,0,60.36,6.319" transform="translate(-45.108 -3.654)" fill="#e50019"/>
      <path id="Path_17823" data-name="Path 17823" d="M68.5,18.248a5.363,5.363,0,0,0-.85-2.236,3.871,3.871,0,0,0-2.269-1.841,4.207,4.207,0,0,0,1.111,2.6A3.743,3.743,0,0,0,68.5,18.248" transform="translate(-50.695 -10.988)" fill="#e50019"/>
      <path id="Path_17824" data-name="Path 17824" d="M47.639,14.438a3.906,3.906,0,0,0-2.842,0s.251.652,1.975,1.294a6.6,6.6,0,0,0,2.7.305,2.843,2.843,0,0,0-1.83-1.6" transform="translate(-34.736 -10.993)" fill="#e50019"/>
      <path id="Path_17825" data-name="Path 17825" d="M76.682,18.157a3.4,3.4,0,0,0,1.944,1.2A4.41,4.41,0,0,0,77.59,17.24a3.473,3.473,0,0,0-2.2-1.195,7.144,7.144,0,0,0,1.287,2.112" transform="translate(-58.462 -12.441)" fill="#e50019"/>
      <path id="Path_17826" data-name="Path 17826" d="M81.69,29.865s.018,1.052.137,1.971a6.2,6.2,0,0,0,1.006,2.644c.368.414.451-1.339.449-1.492a5.131,5.131,0,0,0-1.116-3.005c-.225-.307-.464-.516-.476-.117" transform="translate(-63.344 -22.987)" fill="#e50019"/>
      <path id="Path_17827" data-name="Path 17827" d="M12.126,19.624a6.908,6.908,0,0,1-.94.021,6.768,6.768,0,0,1,0-13.536c.2,0,.4.011.6.028.17.011.339.026.506.049a7.661,7.661,0,0,0-7.753.908,8.909,8.909,0,0,1,2.645-3.02A8.671,8.671,0,0,1,13.678,2.5,6.7,6.7,0,0,0,9.65,1.991,8.69,8.69,0,0,0,5.078,3.83,9.494,9.494,0,0,1,10.793.671c.192-.035.4-.066.626-.093h0A11.581,11.581,0,0,1,13.545.534a10.276,10.276,0,1,0,4.326,16.68,13.043,13.043,0,0,0,1.034-1.337,10.215,10.215,0,0,1-6.78,3.747" transform="translate(0 0)" fill="#e50019"/>
    </g>
  </g>
</svg>
