<svg xmlns="http://www.w3.org/2000/svg" xmlns:xlink="http://www.w3.org/1999/xlink" width="104" height="52" viewBox="0 0 104 52">
  <defs>
    <clipPath id="clip-path">
      <rect id="Rectangle_11097" data-name="Rectangle 11097" width="85" height="28.362" fill="none"/>
    </clipPath>
  </defs>
  <g id="galaxypay" transform="translate(-2301 6263)">
    <g id="boundingbox" transform="translate(2301 -6263)" fill="rgba(255,0,0,0.1)" stroke="red" stroke-width="1" stroke-dasharray="4 4" opacity="0">
      <rect width="104" height="52" stroke="none"/>
      <rect x="0.5" y="0.5" width="103" height="51" fill="none"/>
    </g>
    <g id="galaxypay-2" data-name="galaxypay" transform="translate(2311 -6251)">
      <g id="Group_20996" data-name="Group 20996" clip-path="url(#clip-path)">
        <path id="Path_45995" data-name="Path 45995" d="M7.249,1.617A4.025,4.025,0,1,0,1.616,7.25,13.777,13.777,0,0,1,7.249,1.617" transform="translate(0.001)" fill="#9ac847"/>
        <path id="Path_45996" data-name="Path 45996" d="M22.7,18.678A4.025,4.025,0,0,1,16.27,21.9,13.78,13.78,0,0,1,21.9,16.27a4,4,0,0,1,.8,2.408" transform="translate(-14.653 -14.653)" fill="#005e83"/>
        <path id="Path_45997" data-name="Path 45997" d="M64.808,119.972A9.045,9.045,0,0,1,47,117.736a2.236,2.236,0,0,1,4.472,0,4.571,4.571,0,0,0,8.559,2.236Z" transform="translate(-42.329 -104.021)" fill="#5d63a6"/>
        <path id="Path_45998" data-name="Path 45998" d="M27.429,13.715A13.715,13.715,0,1,1,1.617,7.25,4.025,4.025,0,0,0,7.25,1.617,13.72,13.72,0,0,1,24.6,5.373l.014.018a2.335,2.335,0,0,1-1.836,3.745h-.024A2.332,2.332,0,0,1,20.9,8.22h0a9.041,9.041,0,1,0,1.583,7.731H13.768A2.271,2.271,0,0,1,11.48,13.8a2.236,2.236,0,0,1,2.235-2.317H25.193a2.23,2.23,0,0,1,2.236,2.213v.023" transform="translate(0 0)" fill="#fab731"/>
        <path id="Path_45999" data-name="Path 45999" d="M65.084,51.465l-9.04.007a4.571,4.571,0,0,0-4.572,4.572,2.236,2.236,0,0,0-4.472,0,9.043,9.043,0,0,1,16.225-5.495h0a2.332,2.332,0,0,0,1.856.916" transform="translate(-42.329 -42.329)" fill="#ee6882"/>
        <path id="Path_46000" data-name="Path 46000" d="M228.985,91.921h0Z" transform="translate(-206.206 -82.785)" fill="none" stroke="red" stroke-miterlimit="10" stroke-width="1"/>
        <path id="Path_46001" data-name="Path 46001" d="M314.963,161.344H312.3a.745.745,0,0,0-.745.745v7.679a.745.745,0,0,0,1.491,0v-1.614h1.914a3.4,3.4,0,1,0,0-6.81m0,5.319h-1.914v-3.828h1.914a1.914,1.914,0,1,1,0,3.828" transform="translate(-280.595 -145.309)" fill="#fab731"/>
        <path id="Path_46002" data-name="Path 46002" d="M390.087,186.078a3.427,3.427,0,1,0,1.982,6.22.745.745,0,0,0,1.445-.255V189.5a3.431,3.431,0,0,0-3.427-3.427m0,5.363a1.936,1.936,0,1,1,1.936-1.936,1.938,1.938,0,0,1-1.936,1.936" transform="translate(-348.233 -167.585)" fill="#fab731"/>
        <path id="Path_46003" data-name="Path 46003" d="M472.534,188.476a.745.745,0,0,0-.745.745v2.807a1.7,1.7,0,1,1-3.408,0v-2.807a.745.745,0,0,0-1.491,0v2.807a3.193,3.193,0,0,0,4.9,2.7,1.962,1.962,0,0,1-3.549,1.075.745.745,0,0,0-1.206.876,3.452,3.452,0,0,0,6.247-2.027v-5.434a.745.745,0,0,0-.745-.745" transform="translate(-420.49 -169.745)" fill="#fab731"/>
        <path id="Path_46004" data-name="Path 46004" d="M782.343,56.327a.845.845,0,0,0-.845.845v3.591a2.288,2.288,0,0,1-4.577,0V57.172a.845.845,0,0,0-1.69,0v3.591a3.976,3.976,0,0,0,6.266,3.252v.108a2.618,2.618,0,0,1-4.738,1.536.845.845,0,0,0-1.367.993,4.308,4.308,0,0,0,7.795-2.529V57.172a.845.845,0,0,0-.845-.845" transform="translate(-698.188 -50.729)" fill="#5d63a6"/>
        <path id="Path_46005" data-name="Path 46005" d="M321.535,28.076h-2.809a.845.845,0,1,0,0,1.689h1.965v1.747a4.149,4.149,0,1,1,.262-6.242.845.845,0,1,0,1.165-1.224,5.839,5.839,0,1,0,0,8.46.845.845,0,0,0,.262-.612V28.921a.845.845,0,0,0-.845-.845" transform="translate(-281.223 -20.209)" fill="#5d63a6"/>
        <path id="Path_46006" data-name="Path 46006" d="M435.288,54.7a4.232,4.232,0,1,0,2.546,7.611.844.844,0,0,0,1.686-.061V58.934a4.237,4.237,0,0,0-4.232-4.232m0,6.775a2.543,2.543,0,1,1,2.543-2.543,2.546,2.546,0,0,1-2.543,2.543" transform="translate(-388.217 -49.266)" fill="#5d63a6"/>
        <path id="Path_46007" data-name="Path 46007" d="M579.21,54.7a4.232,4.232,0,1,0,2.546,7.611.844.844,0,0,0,1.686-.061V58.934A4.237,4.237,0,0,0,579.21,54.7m0,6.775a2.543,2.543,0,1,1,2.543-2.543,2.546,2.546,0,0,1-2.543,2.543" transform="translate(-517.836 -49.266)" fill="#5d63a6"/>
        <path id="Path_46008" data-name="Path 46008" d="M536.64,32.421a1.331,1.331,0,0,1-1.329-1.329V23.284a.845.845,0,1,0-1.689,0v7.808a3.022,3.022,0,0,0,3.019,3.019.845.845,0,0,0,0-1.689" transform="translate(-480.589 -20.209)" fill="#5d63a6"/>
        <path id="Path_46009" data-name="Path 46009" d="M685,56.563a.845.845,0,0,0-1.194.024l-2.57,2.673-2.57-2.673a.845.845,0,1,0-1.218,1.171l2.616,2.721L677.443,63.2a.845.845,0,1,0,1.218,1.171l2.57-2.673,2.57,2.673a.845.845,0,0,0,1.218-1.171L682.4,60.479l2.616-2.721A.845.845,0,0,0,685,56.563" transform="translate(-609.905 -50.729)" fill="#5d63a6"/>
      </g>
    </g>
  </g>
</svg>
