<svg id="kienlongbank" xmlns="http://www.w3.org/2000/svg" xmlns:xlink="http://www.w3.org/1999/xlink" width="104" height="52" viewBox="0 0 104 52">
  <defs>
    <clipPath id="clip-path">
      <rect id="Rectangle_5471" data-name="Rectangle 5471" width="103.929" height="19.434" fill="none"/>
    </clipPath>
  </defs>
  <g id="boundingbox" fill="rgba(255,0,0,0.1)" stroke="red" stroke-width="1" stroke-dasharray="4 4" opacity="0">
    <rect width="104" height="52" stroke="none"/>
    <rect x="0.5" y="0.5" width="103" height="51" fill="none"/>
  </g>
  <g id="Group_10444" data-name="Group 10444" transform="translate(0 13.903)">
    <g id="Group_10444-2" data-name="Group 10444" clip-path="url(#clip-path)">
      <path id="Path_17173" data-name="Path 17173" d="M998.952,198.015a2.516,2.516,0,0,0-.688-.143,5.477,5.477,0,0,1-1.356-.536.311.311,0,0,1-.157-.4,6.351,6.351,0,0,1,.239-.623c.066-.156.193-.168.331-.108.227.1.45.208.678.3a3.794,3.794,0,0,0,2.1.25,1.846,1.846,0,0,0,1.594-1.375,5.318,5.318,0,0,0,.225-1.165c0-.056.038-.126-.019-.161-.079-.048-.113.04-.158.08a4.037,4.037,0,0,1-4.355.749,3.121,3.121,0,0,1-1.989-2.924,3.415,3.415,0,0,1,3.25-3.732,4.181,4.181,0,0,1,3.05.86c.051.041.111.1.174.072s.064-.11.062-.178c0-.008,0-.017,0-.025.027-.6.027-.6.621-.6.075,0,.149,0,.224,0,.281.005.349.073.349.356q0,2.48,0,4.96a9.987,9.987,0,0,1-.087,1.309,3.28,3.28,0,0,1-2.915,2.982c-.034.006-.064.011-.076.048Zm.45-4.061a2.7,2.7,0,0,0,1.132-.2,2.105,2.105,0,0,0,1.418-1.866,2.026,2.026,0,0,0-1.155-2.1,3.041,3.041,0,0,0-3.292.217,2.057,2.057,0,0,0,.033,3.428,3.056,3.056,0,0,0,1.863.527" transform="translate(-944.429 -178.581)" fill="#ef4f27"/>
      <path id="Path_17174" data-name="Path 17174" d="M0,148.938a1.441,1.441,0,0,1,1.088-.16c.169.083.185.235.185.4q0,1.947,0,3.894c0,.116-.064.281.072.337s.215-.1.305-.174q2.424-2.093,4.843-4.191a1.111,1.111,0,0,1,.812-.3c.331.014.663,0,.994,0,.077,0,.184-.039.219.063s-.054.147-.117.2q-.986.852-1.973,1.7-.78.672-1.562,1.343c-.257.22-.268.328-.061.606l3.347,4.5c.039.053.078.107.117.161.063.087.153.181.109.286-.055.131-.2.087-.311.089-.257.005-.514,0-.771,0a.781.781,0,0,1-.694-.354c-.917-1.265-1.843-2.525-2.765-3.786-.243-.332-.316-.343-.627-.077-.541.463-1.076.932-1.62,1.39a.852.852,0,0,0-.32.693q0,.843,0,1.687c0,.354-.09.44-.441.446-.1,0-.2-.008-.3,0A.624.624,0,0,1,0,157.523Z" transform="translate(0 -141.116)" fill="#ef4f27"/>
      <path id="Path_17175" data-name="Path 17175" d="M1177.859,153.714q0-2.022,0-4.044c0-.349.093-.453.437-.451,1.334.009,2.669-.034,4,.025a7.042,7.042,0,0,1,1.683.3,1.769,1.769,0,0,1,1.321,1.544,1.837,1.837,0,0,1-.755,1.918c-.411.292-.41.293.036.519a2.205,2.205,0,0,1,1.16,2.258,2.384,2.384,0,0,1-2.2,2.295,8.025,8.025,0,0,1-1.261.1q-1.989,0-3.979,0c-.349,0-.438-.09-.439-.44q0-2.009,0-4.019m3.409.5c-.661,0-1.208,0-1.755,0-.307,0-.4.092-.4.4q0,.905,0,1.81c0,.316.1.414.415.414.961,0,1.923.008,2.884,0a3.62,3.62,0,0,0,1.362-.236,1.072,1.072,0,0,0,.7-1.016,1.089,1.089,0,0,0-.629-1.09,2.351,2.351,0,0,0-.731-.226,16.188,16.188,0,0,0-1.846-.05m-.161-3.63c-.6,0-1.1,0-1.594,0-.3,0-.4.095-.4.4,0,.479,0,.959,0,1.438,0,.343.1.446.441.446.878,0,1.756.006,2.634,0a2.779,2.779,0,0,0,1.143-.186,1.052,1.052,0,0,0,.7-.861.959.959,0,0,0-.846-1.119,9.584,9.584,0,0,0-2.074-.114" transform="translate(-1117.566 -141.574)" fill="#278bcb"/>
      <path id="Path_17176" data-name="Path 17176" d="M1845.54,2.349c.078.007.17.008.259.025a.729.729,0,0,0,.87-.86,1.235,1.235,0,0,1,1.892-1.3,1.2,1.2,0,0,1,.519,1.319.725.725,0,0,0,.865.843,1.251,1.251,0,0,1,1.5.993,1.243,1.243,0,1,1-2.467.257,1.42,1.42,0,0,1,.037-.319.724.724,0,0,0-.87-.857,1.435,1.435,0,0,1-.568,0,.722.722,0,0,0-.85.815,1.17,1.17,0,0,1,.006.588.6.6,0,0,0,.181.652q1.189,1.2,2.391,2.385a.65.65,0,0,0,.658.18,1.217,1.217,0,0,1,1.283.5,1.248,1.248,0,0,1,.015,1.379,1.165,1.165,0,0,1-1.267.528.762.762,0,0,0-.91.9,1.175,1.175,0,0,1-.5,1.255,1.248,1.248,0,0,1-1.381.017,1.235,1.235,0,0,1-.547-1.242c.115-.642-.275-1.025-.929-.913a1.237,1.237,0,0,1-1.289-.644A1.238,1.238,0,0,1,1846.1,7.17a1.169,1.169,0,0,1,.636,1.3.758.758,0,0,0,.929.921.842.842,0,0,1,.515.017.739.739,0,0,0,.839-.859.964.964,0,0,1,0-.563.572.572,0,0,0-.162-.611q-1.215-1.226-2.445-2.436a.617.617,0,0,0-.613-.161,1.165,1.165,0,0,1-1.255-.452,1.164,1.164,0,0,1-.12-1.306,1.182,1.182,0,0,1,1.115-.675" transform="translate(-1749.872 0)" fill="#ef4f27"/>
      <path id="Path_17177" data-name="Path 17177" d="M1366,190.7q0,1.488,0,2.977c0,.354-.071.425-.417.427q-.224,0-.448,0c-.221,0-.34-.1-.331-.333.007-.19.005-.38,0-.57,0-.086.044-.205-.06-.244-.082-.031-.142.068-.2.124a3.4,3.4,0,0,1-1.735.909,3.87,3.87,0,0,1-3.171-.6,3.239,3.239,0,0,1-1.278-2.347,3.374,3.374,0,0,1,2.693-3.827,3.948,3.948,0,0,1,3.488.756c.062.05.122.134.212.087s.055-.133.051-.2c-.033-.665.09-.6.63-.6.066,0,.133,0,.2,0,.283.008.365.089.366.378q0,1.538,0,3.076m-3.806,2.154a3.05,3.05,0,0,0,1.122-.178,2.146,2.146,0,0,0,1.527-2,2,2,0,0,0-1.141-1.966,3.037,3.037,0,0,0-3.083.062,2.087,2.087,0,0,0-.5,3.244,2.678,2.678,0,0,0,2.078.836" transform="translate(-1288.804 -177.514)" fill="#278bcb"/>
      <path id="Path_17178" data-name="Path 17178" d="M261.752,191.511h-2.711c-.284,0-.31.059-.188.323a2.645,2.645,0,0,0,2.493,1.459,3.76,3.76,0,0,0,2.331-.539c.37-.233.428-.2.62.182.015.03.03.059.044.089.293.617.383.468-.246.814a4.965,4.965,0,0,1-4.606.294,3.125,3.125,0,0,1-1.969-3.253,3.229,3.229,0,0,1,2.224-3.028,3.871,3.871,0,0,1,3.948.5,3.088,3.088,0,0,1,1.135,2.334,3.182,3.182,0,0,1,.02.469c-.018.3-.084.356-.384.356h-2.711m-.532-1.071c.73,0,1.459,0,2.188,0,.262,0,.285-.04.233-.29A1.634,1.634,0,0,0,262.512,189a3.49,3.49,0,0,0-1.98-.149,2.021,2.021,0,0,0-1.685,1.223c-.125.306-.086.371.234.371h2.139" transform="translate(-244.331 -177.933)" fill="#ef4f27"/>
      <path id="Path_17179" data-name="Path 17179" d="M658.285,188.449a3.832,3.832,0,0,1,2.731.893,3.32,3.32,0,0,1,1.047,3.421,3.173,3.173,0,0,1-2.419,2.476,4.132,4.132,0,0,1-3.92-.706,3.451,3.451,0,0,1,1.542-5.974,3.557,3.557,0,0,1,1.02-.11M661,191.886a1.994,1.994,0,0,0-.829-1.666,3.14,3.14,0,0,0-3.627,0,2.138,2.138,0,0,0,.081,3.465,3.176,3.176,0,0,0,3.342.082A2.043,2.043,0,0,0,661,191.886" transform="translate(-621.032 -178.799)" fill="#ef4f27"/>
      <path id="Path_17180" data-name="Path 17180" d="M1684,143.789q0-2.158,0-4.316c0-.359.039-.4.4-.4.681,0,.681,0,.681.68q0,2.592,0,5.184c0,.085-.046.2.056.247s.162-.063.228-.118c1.182-.986,2.366-1.971,3.54-2.966a1.066,1.066,0,0,1,.789-.286c.3.017.6,0,.895.005.061,0,.147-.035.178.044s-.046.133-.1.18q-.5.422-1.012.841l-1.761,1.455c-.217.179-.226.274-.041.492q1.4,1.646,2.8,3.292c.083.1.239.2.189.327-.056.139-.236.058-.36.064-.223.011-.448-.008-.671.006a.711.711,0,0,1-.623-.292c-.721-.863-1.447-1.723-2.17-2.585-.249-.3-.338-.307-.63-.067-.351.29-.7.582-1.055.867a.621.621,0,0,0-.248.515c0,.389,0,.777,0,1.166,0,.321-.08.392-.4.393-.708,0-.688.06-.686-.687,0-1.348,0-2.7,0-4.043" transform="translate(-1597.8 -131.956)" fill="#278bcb"/>
      <path id="Path_17181" data-name="Path 17181" d="M427.039,192.733q0-1.451,0-2.9c0-.4.061-.453.463-.456.783-.006.74-.021.74.724,0,.119-.062.294.054.344.138.059.217-.117.3-.207a2.952,2.952,0,0,1,2.74-.96,2.569,2.569,0,0,1,2.3,2.471c.065.611.033,1.222.039,1.834.007.719,0,1.439,0,2.158,0,.275-.081.354-.352.357q-.236,0-.473,0c-.288,0-.368-.08-.368-.369,0-1.009,0-2.018,0-3.027a4.457,4.457,0,0,0-.061-.765,1.808,1.808,0,0,0-1.555-1.431,2.32,2.32,0,0,0-2.576,1.757,3.448,3.448,0,0,0-.046.666c0,.926,0,1.852,0,2.779,0,.325-.066.387-.4.389h-.423c-.29,0-.371-.078-.382-.36,0-.058,0-.116,0-.174v-2.828" transform="translate(-405.178 -179.548)" fill="#ef4f27"/>
      <path id="Path_17182" data-name="Path 17182" d="M834.943,192.66q0-1.476,0-2.952c0-.336.072-.406.408-.408.157,0,.315,0,.473,0,.21,0,.321.1.315.323-.006.2,0,.4,0,.6,0,.058-.006.13.051.156s.125-.02.172-.068a6.508,6.508,0,0,1,.66-.6,3,3,0,0,1,3.807.281,2.732,2.732,0,0,1,.717,1.805c.085,1.3.021,2.612.034,3.918a.277.277,0,0,1-.326.312c-.149-.005-.3,0-.448,0-.358,0-.425-.063-.425-.415,0-.761,0-1.522,0-2.282,0-.4,0-.794-.024-1.19a1.836,1.836,0,0,0-1.709-1.721,2.33,2.33,0,0,0-2.512,2.313c.026.975.006,1.951,0,2.927,0,.3-.068.364-.364.367q-.236,0-.472,0c-.267,0-.356-.088-.357-.358,0-.744,0-1.488,0-2.233v-.769" transform="translate(-792.202 -179.473)" fill="#ef4f27"/>
      <path id="Path_17183" data-name="Path 17183" d="M1530.448,192.89q0-1.488,0-2.976c0-.327.062-.387.394-.389.844-.007.805-.039.8.792,0,.094-.053.229.041.275.115.057.186-.079.256-.15a2.981,2.981,0,0,1,1.748-1.012,2.774,2.774,0,0,1,3.005,1.306,3.631,3.631,0,0,1,.374,1.728c.012,1.141,0,2.282,0,3.423,0,.277-.081.356-.352.36q-.236,0-.472,0c-.293,0-.368-.077-.369-.365,0-1.009-.008-2.017-.006-3.026a4.243,4.243,0,0,0-.063-.789,1.858,1.858,0,0,0-1.671-1.426,2.322,2.322,0,0,0-2.507,2.31c.056.956.012,1.917.011,2.876,0,.347-.074.419-.423.42-.149,0-.3,0-.448,0-.231.007-.327-.1-.325-.331.005-1.009,0-2.017,0-3.026" transform="translate(-1452.104 -179.698)" fill="#278bcb"/>
      <path id="Path_17184" data-name="Path 17184" d="M596.911,144.48q0,2.158,0,4.316c0,.336-.055.392-.384.393-.166,0-.332,0-.5,0-.21.007-.3-.1-.312-.3,0-.049,0-.1,0-.149q0-4.278,0-8.557c0-.394.052-.444.443-.447.881-.008.748,0,.75.75,0,1.331,0,2.662,0,3.993" transform="translate(-565.222 -132.583)" fill="#ef4f27"/>
      <path id="Path_17185" data-name="Path 17185" d="M201.371,196.053q0,1.474,0,2.948c0,.3-.063.367-.36.372-.182,0-.364,0-.546,0a.257.257,0,0,1-.288-.291q0-3.06,0-6.12c0-.212.114-.3.309-.3s.364,0,.546,0c.259.006.339.087.339.345q0,1.524,0,3.048" transform="translate(-189.929 -182.795)" fill="#ef4f27"/>
      <path id="Path_17186" data-name="Path 17186" d="M1799.935,91.625a1.233,1.233,0,0,1,1.253,1.236,1.256,1.256,0,0,1-1.231,1.243,1.234,1.234,0,0,1-1.244-1.22,1.219,1.219,0,0,1,1.222-1.259" transform="translate(-1706.639 -86.934)" fill="#278bcb"/>
      <path id="Path_17187" data-name="Path 17187" d="M1984.456,92.972a1.225,1.225,0,0,1-1.234,1.225,1.258,1.258,0,0,1-1.24-1.236,1.231,1.231,0,0,1,1.25-1.238,1.2,1.2,0,0,1,1.224,1.249" transform="translate(-1880.526 -87.028)" fill="#278bcb"/>
      <path id="Path_17188" data-name="Path 17188" d="M198.023,135.93a.678.678,0,0,1-.742-.762.716.716,0,0,1,.737-.784.7.7,0,0,1,.748.766.72.72,0,0,1-.742.78" transform="translate(-187.181 -127.505)" fill="#ef4f27"/>
    </g>
  </g>
</svg>
