<?xml version="1.0" encoding="utf-8"?>
<!-- Generator: Adobe Illustrator 25.2.3, SVG Export Plug-In . SVG Version: 6.00 Build 0)  -->
<svg version="1.1" id="Layer_1" xmlns="http://www.w3.org/2000/svg" xmlns:xlink="http://www.w3.org/1999/xlink" x="0px" y="0px"
	 viewBox="0 0 360 136" style="enable-background:new 0 0 360 136;" xml:space="preserve">
<style type="text/css">
	.st0{clip-path:url(#SVGID_2_);fill:url(#SVGID_3_);}
	.st1{clip-path:url(#SVGID_5_);fill:url(#SVGID_6_);}
	.st2{clip-path:url(#SVGID_8_);fill:url(#SVGID_9_);}
	.st3{fill:#FFFFFF;}
	.st4{clip-path:url(#SVGID_11_);fill:url(#SVGID_12_);}
	.st5{clip-path:url(#SVGID_14_);fill:url(#SVGID_15_);}
	.st6{clip-path:url(#SVGID_17_);fill:url(#SVGID_18_);}
	.st7{clip-path:url(#SVGID_20_);fill:url(#SVGID_21_);}
	.st8{fill:#EC2227;}
	.st9{fill:#08509F;}
	.st10{fill:none;}
</style>
<g>
	<g>
		<defs>
			<path id="SVGID_1_" d="M62.12,96.79c-33.78,0-61.09,4.99-61.1,11.19c-0.01,6.24,27.59,11.34,61.65,11.4
				c34.06,0.06,61.68-4.96,61.69-11.19c0.01-6.24-27.59-11.35-61.65-11.4H62.12z"/>
		</defs>
		<clipPath id="SVGID_2_">
			<use xlink:href="#SVGID_1_"  style="overflow:visible;"/>
		</clipPath>
		
			<linearGradient id="SVGID_3_" gradientUnits="userSpaceOnUse" x1="-235.5562" y1="355.5484" x2="-234.2377" y2="355.5484" gradientTransform="matrix(-0.0293 17.2076 17.2076 0.0293 -6062.3252 4139.5044)">
			<stop  offset="0" style="stop-color:#21366A"/>
			<stop  offset="0.2884" style="stop-color:#1E3D76"/>
			<stop  offset="0.8033" style="stop-color:#164F94"/>
			<stop  offset="1" style="stop-color:#1357A2"/>
		</linearGradient>
		<polygon class="st0" points="124.41,96.79 124.37,119.66 0.97,119.45 1.01,96.58 		"/>
	</g>
	<g>
		<defs>
			<path id="SVGID_4_" d="M61.99,96.68c-18.63,0-35.25,1.56-46.31,4.03l1.06,7.77l91.6,0.15l1.09-7.76
				c-11.16-2.54-28.01-4.16-46.87-4.19C62.37,96.68,62.18,96.68,61.99,96.68"/>
		</defs>
		<clipPath id="SVGID_5_">
			<use xlink:href="#SVGID_4_"  style="overflow:visible;"/>
		</clipPath>
		
			<linearGradient id="SVGID_6_" gradientUnits="userSpaceOnUse" x1="-241.9304" y1="364.6212" x2="-240.612" y2="364.6212" gradientTransform="matrix(72.6837 0.1236 0.1236 -72.6837 17553.9199 26634.502)">
			<stop  offset="0" style="stop-color:#676B94"/>
			<stop  offset="0.0644" style="stop-color:#70749B"/>
			<stop  offset="0.1718" style="stop-color:#8A8DAD"/>
			<stop  offset="0.309" style="stop-color:#B4B6CA"/>
			<stop  offset="0.469" style="stop-color:#EDEDF2"/>
			<stop  offset="0.5153" style="stop-color:#FFFFFF"/>
			<stop  offset="0.5606" style="stop-color:#ECEDF2"/>
			<stop  offset="0.7103" style="stop-color:#B3B5CA"/>
			<stop  offset="0.8388" style="stop-color:#8A8DAD"/>
			<stop  offset="0.9394" style="stop-color:#70749B"/>
			<stop  offset="1" style="stop-color:#676B94"/>
		</linearGradient>
		<polygon class="st1" points="15.68,96.52 109.44,96.68 109.42,108.8 15.66,108.64 		"/>
	</g>
	<g>
		<defs>
			<path id="SVGID_7_" d="M61.99,96.68c-18.63,0-35.25,1.56-46.31,4.03l1.06,7.77l91.6,0.15l1.09-7.76
				c-11.16-2.54-28.01-4.16-46.87-4.19C62.37,96.68,62.18,96.68,61.99,96.68"/>
		</defs>
		<clipPath id="SVGID_8_">
			<use xlink:href="#SVGID_7_"  style="overflow:visible;"/>
		</clipPath>
		
			<linearGradient id="SVGID_9_" gradientUnits="userSpaceOnUse" x1="-241.9697" y1="364.6009" x2="-240.6508" y2="364.6009" gradientTransform="matrix(71.0883 0.1208 0.1208 -71.0883 17172.8418 26050.6738)">
			<stop  offset="0" style="stop-color:#60658F"/>
			<stop  offset="0.1701" style="stop-color:#9194B1"/>
			<stop  offset="0.5215" style="stop-color:#FFFFFF"/>
			<stop  offset="1" style="stop-color:#60658F"/>
		</linearGradient>
		<polygon class="st2" points="15.68,96.52 109.44,96.68 109.42,108.8 15.66,108.64 		"/>
	</g>
	<g>
		<path class="st3" d="M108.34,108.47c0-0.94-0.74-1.7-1.68-1.73v-0.01l-88.21-0.01v0.01c-0.95,0.01-1.72,0.78-1.72,1.73
			c0,0.95,0.77,1.72,1.72,1.73v0.01l88.21,0.01v-0.01C107.6,110.17,108.34,109.41,108.34,108.47"/>
	</g>
	<g>
		<defs>
			<path id="SVGID_10_" d="M20.79,59.6c-0.04,23.33,18.84,42.27,42.17,42.31c15.95,0.03,29.85-8.79,37.06-21.83
				c0.62-1.69,0.97-3.52,0.97-5.42C101,66,94,58.97,85.34,58.95c-4.33-0.01-8.25,1.74-11.09,4.58l-9.56,9.45
				c-4.61,4.88-11.14,7.91-18.38,7.9C32.36,80.85,21.08,69.54,21.1,55.6c0-0.37,0.01-0.77,0.03-1.17
				C20.92,56.12,20.79,57.84,20.79,59.6"/>
		</defs>
		<clipPath id="SVGID_11_">
			<use xlink:href="#SVGID_10_"  style="overflow:visible;"/>
		</clipPath>
		
			<linearGradient id="SVGID_12_" gradientUnits="userSpaceOnUse" x1="-242.7899" y1="369.5002" x2="-241.4715" y2="369.5002" gradientTransform="matrix(11.9964 -33.913 -33.913 -11.9964 15495.9697 -3699.2158)">
			<stop  offset="0" style="stop-color:#045CA9"/>
			<stop  offset="0.1972" style="stop-color:#0559A5"/>
			<stop  offset="0.4132" style="stop-color:#085197"/>
			<stop  offset="0.6382" style="stop-color:#0E4381"/>
			<stop  offset="0.8679" style="stop-color:#153063"/>
			<stop  offset="1" style="stop-color:#1A234E"/>
		</linearGradient>
		<polygon class="st4" points="5.81,96.65 29.68,29.19 115.94,59.71 92.08,127.17 		"/>
	</g>
	<g>
		<defs>
			<path id="SVGID_13_" d="M63.03,17.44c-15.73,0-29.44,8.61-36.71,21.37c-0.86,1.93-1.34,4.08-1.34,6.33
				c-0.02,8.66,6.99,15.69,15.65,15.7c4.33,0.01,8.25-1.74,11.09-4.57l9.56-9.45c4.61-4.88,11.15-7.91,18.39-7.9
				c13.94,0.02,25.22,11.34,25.19,25.28c0,0.55-0.02,1.17-0.05,1.75c0.3-2.02,0.46-4.09,0.47-6.19
				c0.04-23.33-18.84-42.27-42.17-42.31H63.03z"/>
		</defs>
		<clipPath id="SVGID_14_">
			<use xlink:href="#SVGID_13_"  style="overflow:visible;"/>
		</clipPath>
		
			<linearGradient id="SVGID_15_" gradientUnits="userSpaceOnUse" x1="-237.4728" y1="358.8299" x2="-236.1544" y2="358.8299" gradientTransform="matrix(0 25.5255 25.5255 0 -9094.1807 6086.916)">
			<stop  offset="0" style="stop-color:#EC2227"/>
			<stop  offset="0.1626" style="stop-color:#E72126"/>
			<stop  offset="0.3471" style="stop-color:#DA1F24"/>
			<stop  offset="0.5423" style="stop-color:#C31C20"/>
			<stop  offset="0.745" style="stop-color:#A3171A"/>
			<stop  offset="0.9516" style="stop-color:#7B1113"/>
			<stop  offset="1" style="stop-color:#700F11"/>
		</linearGradient>
		<rect x="24.96" y="17.43" class="st5" width="80.35" height="48.51"/>
	</g>
	<g>
		<defs>
			<path id="SVGID_16_" d="M21.13,54.43c-0.02,0.4-0.03,0.8-0.03,1.17C21.08,69.54,32.36,80.85,46.3,80.88
				c6.56,0.01,12.54-2.49,17.04-6.59L48.07,58.97c-2.22,1.19-4.76,1.87-7.45,1.87c-8.66-0.01-15.67-7.05-15.65-15.7
				c0.01-2.25,0.49-4.4,1.34-6.33C23.63,43.52,21.83,48.8,21.13,54.43"/>
		</defs>
		<clipPath id="SVGID_17_">
			<use xlink:href="#SVGID_16_"  style="overflow:visible;"/>
		</clipPath>
		
			<linearGradient id="SVGID_18_" gradientUnits="userSpaceOnUse" x1="-238.9932" y1="358.6308" x2="-237.6747" y2="358.6308" gradientTransform="matrix(6.2225 26.0424 26.0424 -6.2225 -7813.9341 8500.0254)">
			<stop  offset="0" style="stop-color:#045CA9"/>
			<stop  offset="0.1766" style="stop-color:#0658A2"/>
			<stop  offset="0.4321" style="stop-color:#0A4C8F"/>
			<stop  offset="0.7339" style="stop-color:#123870"/>
			<stop  offset="1" style="stop-color:#1A234E"/>
		</linearGradient>
		<polygon class="st6" points="61.05,29.25 72.85,78.61 23.36,90.44 11.57,41.08 		"/>
	</g>
	<g>
		<defs>
			<path id="SVGID_19_" d="M79.45,38.92c-6.34,0.04-12.13,2.43-16.54,6.33l15.35,15.4c2.13-1.07,4.53-1.69,7.08-1.69
				C94,58.97,101,66,100.99,74.66c0,1.9-0.35,3.73-0.97,5.42c2.38-4.31,4.03-9.08,4.79-14.14c0.03-0.58,0.05-1.2,0.05-1.75
				c0.02-13.89-11.18-25.18-25.06-25.28H79.45z"/>
		</defs>
		<clipPath id="SVGID_20_">
			<use xlink:href="#SVGID_19_"  style="overflow:visible;"/>
		</clipPath>
		
			<linearGradient id="SVGID_21_" gradientUnits="userSpaceOnUse" x1="-245.68" y1="363.4401" x2="-244.3617" y2="363.4401" gradientTransform="matrix(27.2706 0 0 -27.2706 6767.5244 9970.7275)">
			<stop  offset="0" style="stop-color:#700F11"/>
			<stop  offset="0.6751" style="stop-color:#C11E21"/>
			<stop  offset="1" style="stop-color:#EA2629"/>
		</linearGradient>
		<rect x="62.91" y="38.92" class="st7" width="41.97" height="41.17"/>
	</g>
	<g>
		<path class="st8" d="M191.22,71.52l-38.2-39.49c-1.7-1.97-4.45-3.24-7.01-3.24h-3.55c-3.96,0-7.18,3.18-7.18,7.09v49.38h11.2
			V42.44l38.23,39.6c1.7,1.97,4.45,3.24,7.01,3.24h3.63c3.91,0,7.1-3.22,7.1-7.17V28.79h-11.23V71.52z"/>
		<path class="st8" d="M213.58,42.97v28.07c0,7.81,6.31,14.18,14.07,14.18h53.01V74.03h-50.28c-1.97,0-5.56-1.34-5.56-5.33V45.62
			c0-2.02,1.73-5.49,5.56-5.49h50.28V28.79h-53.01C219.89,28.79,213.58,35.15,213.58,42.97"/>
		<path class="st8" d="M358.95,42.97c0-7.82-6.3-14.18-14.03-14.18h-53.03V85.2h53.03c7.74,0,14.03-6.36,14.03-14.18v-5.43
			c0-3.24-1.08-6.33-3.05-8.84c1.78-1.86,3.05-3.24,3.05-6.69V42.97z M347.69,70.44c0,1.98-1.6,3.59-3.57,3.59h-41.11V62.6h41.11
			c1.97,0,3.57,1.61,3.57,3.59V70.44z M347.89,47.94c0,1.05-0.13,3.47-3.15,3.47h-41.72v-11.5h41.3c1.97,0,3.57,1.64,3.57,3.66
			V47.94z"/>
		<polygon class="st9" points="141.82,103.89 138.21,96.69 135.32,96.69 135.32,107.88 137.62,107.88 137.62,100.59 141.3,107.88 
			144.13,107.88 144.13,96.69 141.82,96.69 		"/>
		<path class="st9" d="M151.1,96.69l-3.87,11.19h2.51l0.83-2.46h3.63l0.82,2.46h2.71l-4.04-11.19H151.1z M151.24,103.35l1.1-3.42
			l1.14,3.42H151.24z"/>
		<polygon class="st9" points="159.76,98.77 162.69,98.77 162.69,107.88 165.18,107.88 165.18,98.77 168.13,98.77 168.13,96.69 
			159.76,96.69 		"/>
		<rect x="171.54" y="96.69" class="st9" width="2.5" height="11.19"/>
		<path class="st9" d="M182.64,96.48c-1.31,0-2.33,0.35-3.03,1.04c-0.69,0.68-1.04,1.63-1.04,2.81v3.38c0,1.38,0.27,2.4,0.82,3.12
			c0.67,0.85,1.77,1.27,3.26,1.27c1.47,0,2.56-0.44,3.22-1.31c0.55-0.72,0.82-1.72,0.82-3.08v-3.41c0-1.17-0.35-2.11-1.05-2.79
			C184.93,96.82,183.92,96.48,182.64,96.48 M184.2,100.24v3.54c0,0.97-0.16,1.44-0.29,1.68c-0.14,0.26-0.43,0.59-1.27,0.59
			c-0.87,0-1.16-0.32-1.3-0.56c-0.13-0.23-0.28-0.7-0.28-1.65v-3.54c0-1.56,0.79-1.77,1.57-1.77c0.54,0,0.94,0.15,1.21,0.46
			C184.07,99.27,184.2,99.69,184.2,100.24"/>
		<polygon class="st9" points="197.66,103.89 194.05,96.69 191.17,96.69 191.17,107.88 193.46,107.88 193.46,100.59 197.15,107.88 
			199.97,107.88 199.97,96.69 197.66,96.69 		"/>
		<path class="st9" d="M206.94,96.69l-3.87,11.19h2.51l0.83-2.46h3.63l0.82,2.46h2.71l-4.04-11.19H206.94z M207.09,103.35l1.1-3.42
			l1.14,3.42H207.09z"/>
		<polygon class="st9" points="219.11,96.69 216.62,96.69 216.62,107.88 223.27,107.88 223.27,105.8 219.11,105.8 		"/>
		<path class="st9" d="M238.82,104.4c0,0.49-0.1,0.89-0.32,1.19c-0.21,0.31-0.51,0.45-0.95,0.45c-0.84,0-1.11-0.31-1.25-0.56
			c-0.13-0.22-0.27-0.69-0.27-1.64v-2.97c0-1.01,0.14-1.49,0.27-1.72c0.14-0.27,0.42-0.63,1.25-0.63c0.82,0,1.14,0.31,1.14,1.09
			v0.81h2.5v-1.11c0-1.3-0.62-2.84-3.56-2.84c-1.86,0-4.08,0.72-4.08,4.13v3.05c0,1.4,0.25,2.42,0.76,3.11
			c0.63,0.88,1.72,1.32,3.23,1.32c2.47,0,3.77-1.28,3.77-3.69v-0.47h-2.49V104.4z"/>
		<rect x="245.33" y="96.69" class="st9" width="2.5" height="11.19"/>
		<polygon class="st9" points="251.24,98.77 254.18,98.77 254.18,107.88 256.66,107.88 256.66,98.77 259.61,98.77 259.61,96.69 
			251.24,96.69 		"/>
		<rect x="263.02" y="96.69" class="st9" width="2.5" height="11.19"/>
		<polygon class="st9" points="277.06,98.63 277.06,96.69 269.24,96.69 269.24,98.77 274.12,98.77 269.05,105.78 269.05,107.88 
			277.17,107.88 277.17,105.8 271.87,105.8 		"/>
		<polygon class="st9" points="282.44,103.23 286.52,103.23 286.52,101.15 282.44,101.15 282.44,98.82 286.85,98.82 286.85,96.75 
			279.94,96.75 279.94,107.94 286.94,107.94 286.94,105.86 282.44,105.86 		"/>
		<polygon class="st9" points="298.34,103.89 294.73,96.69 291.84,96.69 291.84,107.88 294.14,107.88 294.14,100.59 297.82,107.88 
			300.65,107.88 300.65,96.69 298.34,96.69 		"/>
		<path class="st9" d="M319.12,101.95c0.72-0.49,1.09-1.28,1.09-2.32c0-0.93-0.34-1.67-1.02-2.18c-0.65-0.5-1.48-0.75-2.46-0.75
			h-4.29v11.19h4.4c2.45,0,3.74-1.16,3.74-3.35C320.57,103.29,320.07,102.42,319.12,101.95 M314.94,103.07h1.13
			c1.79,0,2.02,0.76,2.02,1.43c0,0.4-0.14,0.7-0.42,0.93c-0.3,0.25-0.67,0.37-1.15,0.37h-1.58V103.07z M317.71,99.86
			c0,0.81-0.34,1.14-1.18,1.14h-1.59v-2.23h1.53c0.41,0,0.72,0.09,0.93,0.28C317.61,99.24,317.71,99.5,317.71,99.86 M317.41,102.04
			c0.02,0,0.03-0.01,0.05-0.01l0,0.02C317.45,102.04,317.43,102.04,317.41,102.04"/>
		<path class="st9" d="M327.3,96.69l-3.87,11.19h2.51l0.83-2.46h3.63l0.82,2.46h2.71l-4.04-11.19H327.3z M327.45,103.35l1.1-3.42
			l1.14,3.42H327.45z"/>
		<polygon class="st9" points="343.56,103.89 339.95,96.69 337.07,96.69 337.07,107.88 339.37,107.88 339.37,100.59 343.05,107.88 
			345.87,107.88 345.87,96.69 343.56,96.69 		"/>
		<polygon class="st9" points="354.32,101.83 358.87,96.69 355.92,96.69 352.67,100.4 352.67,96.69 350.18,96.69 350.18,107.88 
			352.67,107.88 352.67,103.51 355.91,107.88 359.02,107.88 		"/>
	</g>
</g>
</svg>
