<svg xmlns="http://www.w3.org/2000/svg" xmlns:xlink="http://www.w3.org/1999/xlink" width="104" height="52" viewBox="0 0 104 52">
  <defs>
    <clipPath id="clip-path">
      <rect id="Rectangle_11098" data-name="Rectangle 11098" width="40.136" height="40" fill="none"/>
    </clipPath>
  </defs>
  <g id="vbsp" transform="translate(-2301 6206)">
    <g id="boundingbox" transform="translate(2301 -6206)" fill="rgba(255,0,0,0.1)" stroke="red" stroke-width="1" stroke-dasharray="4 4" opacity="0">
      <rect width="104" height="52" stroke="none"/>
      <rect x="0.5" y="0.5" width="103" height="51" fill="none"/>
    </g>
    <g id="vbsp-2" data-name="vbsp" transform="translate(2333 -6200)">
      <g id="Group_20998" data-name="Group 20998" clip-path="url(#clip-path)">
        <path id="Path_46010" data-name="Path 46010" d="M41.962,3.711Q43.684,1.819,45.486,0c3.808,3.683,7.536,7.451,11.128,11.347a41.814,41.814,0,0,1,4.419,5.474,31.313,31.313,0,0,1,3.326,6.058,16.412,16.412,0,0,1,.954,4.165V28.39a13.3,13.3,0,0,1-1.876,5.956,11.339,11.339,0,0,1-5.923,4.91,10.936,10.936,0,0,1-3.522.7c0-.514,0-1.028,0-1.541q-.843-.006-1.686,0c-.006.524-.006,1.048-.006,1.571-.472,0-.944-.007-1.417-.006-.013-2,0-3.991-.005-5.986,1.062,0,2.126.011,3.188,0a6.124,6.124,0,0,0,3.952-1.449,5.565,5.565,0,0,0,1.749-4.491,12.757,12.757,0,0,0-1.921-6.28,41.813,41.813,0,0,0-4.875-6.283C49.4,11.47,45.688,7.584,41.962,3.711m12.069,30.65c-.014.131-.039.394-.051.524a1.986,1.986,0,0,1,1.367,1.21,1.569,1.569,0,0,1-1.324,1.746c.02.2.045.391.072.587a2.188,2.188,0,0,0,2-1.316,2.151,2.151,0,0,0-.273-1.91,2.071,2.071,0,0,0-1.793-.84m-1.785.864c-.008.72-.013,1.44,0,2.159.572-.024,1.145-.06,1.719-.068.02-.648.041-1.3,0-1.941a6.8,6.8,0,0,0-1.719-.15" transform="translate(-25.177)" fill="#dd127b"/>
        <path id="Path_46011" data-name="Path 46011" d="M16.188,10.775c.115-.135.274-.039.35.082q5.7,6.014,11.415,12.016c.142.128.1.333.115.5-.008,2.443,0,4.886-.008,7.33-1.444-1.481-2.88-2.969-4.328-4.447-2.574-2.58-5.064-5.243-7.664-7.794-.8.706-1.532,1.48-2.29,2.225A48.649,48.649,0,0,0,9.2,25.758a23.01,23.01,0,0,0-3.077,5.784A10.648,10.648,0,0,0,5.5,34.884a4.877,4.877,0,0,0,1.759,3.869,9.4,9.4,0,0,0,5.107,1.683c.016,1.049-.007,2.1.006,3.146a1.261,1.261,0,0,0,1.272,1.26c.348.058.769-.2.716-.592.018-1.274-.006-2.549.01-3.822.464,0,.928,0,1.394,0,0,1.722,0,3.442.005,5.163,0,.27.028.64-.289.753A2.144,2.144,0,0,1,13.827,46,7.113,7.113,0,0,1,10.786,42a6.657,6.657,0,0,0-.388-1.068,17.9,17.9,0,0,0-1.747-.608,9.006,9.006,0,0,0,4.214,6.039,9.7,9.7,0,0,1-1.234-.037A15,15,0,0,1,4.48,43.515a11.877,11.877,0,0,1-4.245-6.5C.122,36.42.142,35.8,0,35.212v-.534a23.569,23.569,0,0,1,.431-3.285A19.666,19.666,0,0,1,4.485,23.2a110.007,110.007,0,0,1,11.7-12.429" transform="translate(0 -6.426)" fill="#dd127b"/>
        <path id="Path_46012" data-name="Path 46012" d="M40.874,32.751c3.67,3.786,7.366,7.547,11.05,11.322.233.3.705.519.657.955-.025,2.359.035,4.72-.031,7.079-3.8-3.943-7.657-7.824-11.475-11.746-.1-.116-.245-.229-.213-.4.005-2.4-.016-4.806.012-7.208" transform="translate(-24.515 -19.651)" fill="#dd127b"/>
        <path id="Path_46013" data-name="Path 46013" d="M41.09,84.939c.894.012,1.789-.023,2.681.02a1.4,1.4,0,0,1,1.286,1.152,1.68,1.68,0,0,1-.626,1.68c1.33.472,1.16,2.654-.111,3.085-1.053.138-2.118.028-3.176.086a2.62,2.62,0,0,1-.064-.577c.013-1.815-.007-3.631.011-5.446m1.037,1.012c-.015.47-.013.939-.011,1.41a5.5,5.5,0,0,0,1.616-.1A.78.78,0,0,0,43.8,86a14.592,14.592,0,0,0-1.678-.05m0,2.419c-.02.518-.017,1.036-.007,1.553a7.18,7.18,0,0,0,1.826-.087.885.885,0,0,0-.01-1.4,10.775,10.775,0,0,0-1.81-.071" transform="translate(-24.647 -50.962)" fill="#dd127b"/>
        <path id="Path_46014" data-name="Path 46014" d="M53.184,85.2a2.081,2.081,0,0,1,2.951.816,2.853,2.853,0,0,1,.149.686c-.336.011-.672.038-1.008.016-.13-.29-.236-.635-.552-.774a1.471,1.471,0,0,0-1.28.243c0,.224-.1.535.152.668.72.458,1.686.4,2.323,1.006a1.845,1.845,0,0,1-.527,2.92,3.609,3.609,0,0,1-1.864.06,2.188,2.188,0,0,1-1.323-1.89c.332-.036.662-.07.994-.1.111.4.278.879.71,1.029a1.221,1.221,0,0,0,1.386-.346c.14-.282.143-.728-.188-.882-.574-.333-1.284-.316-1.848-.684a1.61,1.61,0,0,1-.076-2.771" transform="translate(-31.322 -50.948)" fill="#dd127b"/>
      </g>
    </g>
  </g>
</svg>
