<svg xmlns="http://www.w3.org/2000/svg" width="104" height="52" viewBox="0 0 104 52">
  <g id="viettelmoney" transform="translate(-0.5)">
    <g id="boundingbox" transform="translate(0.5)" fill="rgba(255,0,0,0.1)" stroke="red" stroke-width="1" stroke-dasharray="4 4" opacity="0">
      <rect width="104" height="52" stroke="none"/>
      <rect x="0.5" y="0.5" width="103" height="51" fill="none"/>
    </g>
    <g id="viettelmoney-2" data-name="viettelmoney" transform="translate(5.447 6.908)">
      <path id="Union_36" data-name="Union 36" d="M3.414,8.6,0,2H1.252A1.274,1.274,0,0,1,2.4,2.743L4.56,7.3c.054.106.151.283.235.283s.186-.177.236-.283L7.184,2.741A1.266,1.266,0,0,1,8.33,2H9.579l-3.413,6.6A1.315,1.315,0,0,1,4.8,9.231v0H4.763A1.368,1.368,0,0,1,3.414,8.6Zm43.943.546a4.066,4.066,0,0,1-2.4-.524,1.947,1.947,0,0,1-.9-1.808V.9a.583.583,0,0,1,.585-.582h.808A.584.584,0,0,1,46.04.9V6.083a1.627,1.627,0,0,0,.524,1.538,3.04,3.04,0,0,0,1.537.311h.489v.636a.581.581,0,0,1-.582.581Zm-9.664.007h0a3.418,3.418,0,0,1-2.733-.9,3.87,3.87,0,0,1-.643-2.6c0-1.339.089-2.322,1.065-3a6.209,6.209,0,0,1,3.345-.675,6.768,6.768,0,0,1,2.957.455,2.32,2.32,0,0,1,1.267,2.32,1.276,1.276,0,0,1-.423,1.079,1.475,1.475,0,0,1-.964.273H36.358a4.205,4.205,0,0,0,.119.984c.253.77,1.078.851,1.807.851H42.66v.636a.582.582,0,0,1-.17.412.6.6,0,0,1-.191.126.571.571,0,0,1-.223.044Zm-.93-5.49a1.461,1.461,0,0,0-.4,1.227v.728c0-.4.579-.728,1.293-.728h2.812c.389,0,.44-.229.44-.418a1.148,1.148,0,0,0-.575-.957,3.3,3.3,0,0,0-1.688-.324h-.083A2.642,2.642,0,0,0,36.764,3.66ZM26.547,9.149a4.065,4.065,0,0,1-2.4-.525,1.942,1.942,0,0,1-.9-1.808v-3.6H22.6a.583.583,0,0,1-.584-.582V2h1.234V.9a.583.583,0,0,1,.584-.583h.809a.575.575,0,0,1,.223.045.575.575,0,0,1,.315.315A.574.574,0,0,1,25.225.9V2h4.124V.9a.591.591,0,0,1,.044-.222.583.583,0,0,1,.315-.315.584.584,0,0,1,.223-.045h.81A.583.583,0,0,1,31.325.9V1.994h2.5V2.63a.581.581,0,0,1-.582.582H31.328V6.081a1.631,1.631,0,0,0,.523,1.538,3.041,3.041,0,0,0,1.537.31h.489v.636a.582.582,0,0,1-.045.223.557.557,0,0,1-.126.188.563.563,0,0,1-.189.126.577.577,0,0,1-.223.045h-.649a4.065,4.065,0,0,1-2.4-.525,1.946,1.946,0,0,1-.894-1.808v-3.6H25.229v2.87a1.629,1.629,0,0,0,.524,1.538,3.042,3.042,0,0,0,1.538.311h.489v.636a.579.579,0,0,1-.582.581Zm-10.233,0a3.418,3.418,0,0,1-2.733-.9,3.892,3.892,0,0,1-.637-2.6c0-1.339.091-2.316,1.067-2.99a6.211,6.211,0,0,1,3.345-.675,6.768,6.768,0,0,1,2.957.454,2.32,2.32,0,0,1,1.266,2.321,1.275,1.275,0,0,1-.422,1.078l0-.006a1.477,1.477,0,0,1-.964.273h-5.2a4.139,4.139,0,0,0,.118.984c.253.77,1.079.851,1.808.851h4.372v.636a.569.569,0,0,1-.044.222.582.582,0,0,1-.127.19.593.593,0,0,1-.188.126.58.58,0,0,1-.223.044Zm-.921-5.49a1.458,1.458,0,0,0-.405,1.227v.728c0-.4.579-.728,1.293-.728h2.812c.389,0,.439-.229.439-.418a1.15,1.15,0,0,0-.574-.957,3.307,3.307,0,0,0-1.691-.324h-.083A2.636,2.636,0,0,0,15.393,3.66Zm-4.959,5.49a.581.581,0,0,1-.583-.581V2.582A.583.583,0,0,1,10.434,2h.81a.581.581,0,0,1,.584.581V8.568a.578.578,0,0,1-.171.412.6.6,0,0,1-.189.126.58.58,0,0,1-.223.044ZM9.851,2V.583A.588.588,0,0,1,10.022.17a.614.614,0,0,1,.189-.126A.6.6,0,0,1,10.435,0h.809a.584.584,0,0,1,.413.17.589.589,0,0,1,.127.189.581.581,0,0,1,.044.224V.743a.583.583,0,0,1-.584.583h-.4A.947.947,0,0,0,9.861,2Z" transform="translate(38.624 7.908)" fill="#e03"/>
      <path id="Union_37" data-name="Union 37" d="M43.717,9.493l1.342-2.336L41.147.027h.967a1.689,1.689,0,0,1,1.507.909L45.972,5.52,48.516.833A1.564,1.564,0,0,1,49.888.024l1.04,0L45.69,9.493ZM14.486,6.522a3.322,3.322,0,0,1-1.1-2.876A3.279,3.279,0,0,1,14.5.8,6.217,6.217,0,0,1,18.059,0a6.222,6.222,0,0,1,3.565.8,3.274,3.274,0,0,1,1.11,2.85h0a3.323,3.323,0,0,1-1.1,2.876,6.233,6.233,0,0,1-3.576.8A6.22,6.22,0,0,1,14.486,6.522Zm1.5-4.754a2.477,2.477,0,0,0-.6,1.878,2.519,2.519,0,0,0,.6,1.9,3.022,3.022,0,0,0,2.073.561,3.01,3.01,0,0,0,2.073-.561,2.524,2.524,0,0,0,.6-1.9,2.473,2.473,0,0,0-.6-1.878,3.042,3.042,0,0,0-2.073-.554A3.043,3.043,0,0,0,15.986,1.769ZM11.4,7.188h-.82V2.89a1.636,1.636,0,0,0-.43-1.243,2.017,2.017,0,0,0-1.41-.4H7.229V6.116A1.077,1.077,0,0,1,6.144,7.183H5.289V1.243H2.438q-.5,0-.5.4V6.115a1.083,1.083,0,0,1-.085.411,1.082,1.082,0,0,1-.588.578,1.075,1.075,0,0,1-.414.079H0V1.243Q0,.027,1.493.027H9.1a4.8,4.8,0,0,1,2.52.553,2.047,2.047,0,0,1,.9,1.891V6.084a1.11,1.11,0,0,1-.332.783,1.123,1.123,0,0,1-.786.321Zm18.26,0V2.89a1.632,1.632,0,0,0-.432-1.243,2.011,2.011,0,0,0-1.409-.4H26.043c-.333,0-.5.135-.5.4V7.183H23.605V1.243Q23.605.027,25.1.027h3.083A4.809,4.809,0,0,1,30.7.58a2.049,2.049,0,0,1,.9,1.891V7.183Zm6.292-.058h0a3.384,3.384,0,0,1-2.707-.895,3.807,3.807,0,0,1-.637-2.575c0-1.322.083-2.3,1.054-2.963A6.149,6.149,0,0,1,36.968.024a6.711,6.711,0,0,1,2.925.454,2.3,2.3,0,0,1,1.254,2.3,1.272,1.272,0,0,1-.418,1.068,1.47,1.47,0,0,1-.953.267H34.627a4.182,4.182,0,0,0,.118.974c.251.761,1.069.841,1.788.841h4.331v.627a.573.573,0,0,1-.17.407.572.572,0,0,1-.187.123.564.564,0,0,1-.22.044ZM35.03,1.692a1.448,1.448,0,0,0-.4,1.214l0,.722c0-.4.575-.722,1.282-.722h2.782c.384,0,.434-.226.434-.413a1.133,1.133,0,0,0-.567-.948,3.276,3.276,0,0,0-1.672-.32H36.8A2.612,2.612,0,0,0,35.03,1.692Z" transform="translate(38.624 20.767)"/>
      <path id="Path_45773" data-name="Path 45773" d="M19.129,33.64A14.548,14.548,0,1,0,4.553,19.092,14.562,14.562,0,0,0,19.129,33.64Z" transform="translate(0 0)" fill="#e03"/>
      <path id="Union_38" data-name="Union 38" d="M1.883,18.233a1.872,1.872,0,0,1-1.331-.551A1.877,1.877,0,0,1,0,16.354V1.88A1.883,1.883,0,0,1,1.883,0H3.852A.471.471,0,0,1,4.32.471v1.4a.47.47,0,0,1-.135.332.477.477,0,0,1-.332.139H.794V15.888H3.852a.475.475,0,0,1,.333.138.47.47,0,0,1,.137.331v1.406a.479.479,0,0,1-.035.179.464.464,0,0,1-.1.152.455.455,0,0,1-.152.1.464.464,0,0,1-.181.036Zm5.148,0a.47.47,0,0,1-.47-.47v-1.4a.47.47,0,0,1,.47-.47H10.09V2.341H7.031A.474.474,0,0,1,6.7,2.2a.469.469,0,0,1-.137-.331V.471A.47.47,0,0,1,7.031,0H9a1.891,1.891,0,0,1,.722.143A1.879,1.879,0,0,1,10.887,1.88V16.352a1.887,1.887,0,0,1-.552,1.331A1.9,1.9,0,0,1,9,18.232Z" transform="translate(13.688 9.977)" fill="#fff"/>
    </g>
  </g>
</svg>
