<svg xmlns="http://www.w3.org/2000/svg" xmlns:xlink="http://www.w3.org/1999/xlink" viewBox="0 0 94 32.44"><defs><style>.cls-1{fill:#1f2b7b;}.cls-2{fill:#00c2f3;}.cls-3{fill:url(#radial-gradient);}</style><radialGradient id="radial-gradient" cx="88.56" cy="-0.47" r="10.26" gradientTransform="translate(4.49 1.55) scale(0.9 0.9)" gradientUnits="userSpaceOnUse"><stop offset="0" stop-color="#00c2f3"/><stop offset="1" stop-color="#1f2b7b"/></radialGradient></defs><g id="Layer_2" data-name="Layer 2"><g id="Layer_1-2" data-name="Layer 1"><path class="cls-1" d="M31.23,25.71a.12.12,0,0,0,.09.05h1a.12.12,0,0,0,.11-.07.13.13,0,0,0,0-.12l-1-1.3a.14.14,0,0,0-.1-.05H30.27a.11.11,0,0,0-.11.07.11.11,0,0,0,0,.12Z"/><path class="cls-1" d="M54.9,24.64a.12.12,0,0,0,.13.06,1.84,1.84,0,0,1,.47-.07.29.29,0,0,1,.19,0s0,0,0,0,0,0,0,0l-.21.11a1.72,1.72,0,0,0-.31.16.6.6,0,0,0-.19.24.93.93,0,0,0-.07.4.11.11,0,0,0,.11.12h.65a.12.12,0,0,0,.11-.12l.12-.07a2,2,0,0,0,.55-.34.74.74,0,0,0,.19-.54c0-.41-.19-.9-1.08-.9a2.35,2.35,0,0,0-.89.17.13.13,0,0,0-.06.07.11.11,0,0,0,0,.1Z"/><path class="cls-1" d="M72.79,24.43a.74.74,0,0,0-.36-.09.73.73,0,0,0-.51.2.69.69,0,0,0,0,1,.73.73,0,0,0,1.24-.5.72.72,0,0,0-.1-.36A.84.84,0,0,0,72.79,24.43Z"/><path class="cls-1" d="M74.47,25.76h1a.12.12,0,0,0,.1-.05l.46-.63.46.63a.12.12,0,0,0,.09.05h1a.12.12,0,0,0,.1-.07.12.12,0,0,0,0-.13l-1.06-1.3a.15.15,0,0,0-.09,0h-1a.15.15,0,0,0-.09,0l-1.06,1.3a.13.13,0,0,0,0,.13A.14.14,0,0,0,74.47,25.76Z"/><path class="cls-1" d="M12.29,25.76h1a.12.12,0,0,0,.1-.05l.46-.63.46.63a.11.11,0,0,0,.09.05h1a.12.12,0,0,0,.11-.07.15.15,0,0,0,0-.13l-1.06-1.3a.18.18,0,0,0-.1,0h-1a.13.13,0,0,0-.09,0l-1.06,1.3a.13.13,0,0,0,0,.13A.12.12,0,0,0,12.29,25.76Z"/><path class="cls-1" d="M5.33,24.61H4.1a.14.14,0,0,0-.14.13v3.49L1.37,24.66a.16.16,0,0,0-.11-.05H.14a.13.13,0,0,0-.14.13v5.92a.14.14,0,0,0,.14.14H1.36a.14.14,0,0,0,.14-.14V27.2l2.59,3.54a.17.17,0,0,0,.11.06H5.33a.13.13,0,0,0,.13-.14V24.74A.13.13,0,0,0,5.33,24.61Z"/><path class="cls-1" d="M10.79,26.3H9.6a.13.13,0,0,0-.13.13v.16a2.08,2.08,0,0,0-1.23-.4,1.78,1.78,0,0,0-1.42.66,2.62,2.62,0,0,0,0,3.21,1.79,1.79,0,0,0,1.42.67,2.09,2.09,0,0,0,1.23-.41v.13a.82.82,0,0,1-.21.67,1.86,1.86,0,0,1-1.47-.05,4.49,4.49,0,0,1-.92-.42.12.12,0,0,0-.13,0,.16.16,0,0,0-.08.1l-.07.89a.11.11,0,0,0,0,.12,3.65,3.65,0,0,0,2.1.68,2.22,2.22,0,0,0,1.57-.53,2,2,0,0,0,.61-1.59V26.43A.13.13,0,0,0,10.79,26.3ZM9,27.57a2,2,0,0,1,.46.28v1.24a1.7,1.7,0,0,1-.46.29A.83.83,0,0,1,8,29.23a1.23,1.23,0,0,1-.21-.76,1.34,1.34,0,0,1,.1-.56.74.74,0,0,1,.25-.34.67.67,0,0,1,.4-.11A1.43,1.43,0,0,1,9,27.57Z"/><path class="cls-1" d="M44.26,26.3H43.07a.13.13,0,0,0-.13.13v.16a2.05,2.05,0,0,0-1.23-.4,1.78,1.78,0,0,0-1.42.66,2.62,2.62,0,0,0,0,3.21,1.79,1.79,0,0,0,1.42.67,2.09,2.09,0,0,0,1.23-.41v.13a.82.82,0,0,1-.21.67,1.86,1.86,0,0,1-1.47-.05,4.75,4.75,0,0,1-.92-.42.12.12,0,0,0-.13,0,.12.12,0,0,0-.07.1l-.08.89a.11.11,0,0,0,0,.12,3.65,3.65,0,0,0,2.11.68,2.25,2.25,0,0,0,1.57-.53,2,2,0,0,0,.6-1.59V26.43A.13.13,0,0,0,44.26,26.3Zm-1.78,1.27a2,2,0,0,1,.46.28v1.24a1.7,1.7,0,0,1-.46.29.83.83,0,0,1-1.06-.15,1.23,1.23,0,0,1-.21-.76,1.52,1.52,0,0,1,.1-.56.69.69,0,0,1,.26-.34.65.65,0,0,1,.4-.11A1.42,1.42,0,0,1,42.48,27.57Z"/><path class="cls-1" d="M16.05,26.3H14.87a.13.13,0,0,0-.14.13v.17a2,2,0,0,0-1.22-.42,1.75,1.75,0,0,0-1.42.69,2.62,2.62,0,0,0-.54,1.68,2.86,2.86,0,0,0,.24,1.18,2.1,2.1,0,0,0,.69.86,1.75,1.75,0,0,0,1,.32,2,2,0,0,0,1.22-.42v.17a.14.14,0,0,0,.14.14h1.18a.14.14,0,0,0,.14-.14V26.43A.13.13,0,0,0,16.05,26.3Zm-3,2.25a1.44,1.44,0,0,1,.21-.83.63.63,0,0,1,.54-.27,1.25,1.25,0,0,1,.5.12,1.52,1.52,0,0,1,.46.3v1.35a1.23,1.23,0,0,1-.29.22,2.14,2.14,0,0,1-.35.16h0a.8.8,0,0,1-.72-.08.78.78,0,0,1-.26-.37A1.8,1.8,0,0,1,13,28.55Z"/><path class="cls-1" d="M20.58,26.36a2,2,0,0,0-1.61,0,2.43,2.43,0,0,0-.54.31v-.23a.13.13,0,0,0-.14-.13H17.11a.13.13,0,0,0-.14.13v4.23a.14.14,0,0,0,.14.14h1.18a.14.14,0,0,0,.14-.14V27.83a1.56,1.56,0,0,1,.94-.37.54.54,0,0,1,.41.14.67.67,0,0,1,.14.46v2.6a.14.14,0,0,0,.14.14h1.18a.14.14,0,0,0,.14-.14V27.9a2,2,0,0,0-.22-.95A1.38,1.38,0,0,0,20.58,26.36Z"/><path class="cls-1" d="M27.05,26.18a2.23,2.23,0,0,0-1.38.48V24.74a.13.13,0,0,0-.13-.13H24.35a.13.13,0,0,0-.13.13v5.92a.13.13,0,0,0,.13.14h1.19a.13.13,0,0,0,.13-.14V27.83a1.53,1.53,0,0,1,.93-.37.6.6,0,0,1,.42.15.58.58,0,0,1,.16.45v2.6a.13.13,0,0,0,.13.14h1.18a.14.14,0,0,0,.14-.14V27.9a1.74,1.74,0,0,0-.45-1.28A1.57,1.57,0,0,0,27.05,26.18Z"/><path class="cls-1" d="M33.78,26.3H32.59a.13.13,0,0,0-.13.13v.17a2,2,0,0,0-1.23-.42,1.73,1.73,0,0,0-1.41.69,2.57,2.57,0,0,0-.55,1.68,2.86,2.86,0,0,0,.24,1.18,2.1,2.1,0,0,0,.69.86,1.77,1.77,0,0,0,1,.32,2,2,0,0,0,1.23-.42v.17a.13.13,0,0,0,.13.14h1.19a.13.13,0,0,0,.13-.14V26.43A.13.13,0,0,0,33.78,26.3Zm-2.94,1.64a.85.85,0,0,1,.26-.37.65.65,0,0,1,.39-.12,1.26,1.26,0,0,1,.51.12,1.65,1.65,0,0,1,.46.3v1.35a1.48,1.48,0,0,1-.29.22,2.68,2.68,0,0,1-.36.16h0a.72.72,0,0,1-1-.45,1.8,1.8,0,0,1-.09-.6A1.63,1.63,0,0,1,30.84,27.94Z"/><path class="cls-1" d="M38.31,26.36h0a2,2,0,0,0-1.62,0,2.43,2.43,0,0,0-.54.31v-.23A.13.13,0,0,0,36,26.3H34.83a.13.13,0,0,0-.13.13v4.23a.13.13,0,0,0,.13.14H36a.13.13,0,0,0,.13-.14V27.83a1.61,1.61,0,0,1,1-.37.53.53,0,0,1,.4.14.62.62,0,0,1,.15.46v2.6a.13.13,0,0,0,.13.14H39a.13.13,0,0,0,.13-.14V27.9a1.88,1.88,0,0,0-.22-.95A1.41,1.41,0,0,0,38.31,26.36Z"/><path class="cls-1" d="M51.61,27.46a1.43,1.43,0,0,0,.48-1.13,1.62,1.62,0,0,0-.52-1.25,1.88,1.88,0,0,0-1.29-.47H47.56a.13.13,0,0,0-.13.13v5.92a.13.13,0,0,0,.13.14h3a2,2,0,0,0,1.4-.52,1.75,1.75,0,0,0,.57-1.34,1.58,1.58,0,0,0-.91-1.48ZM49,28.23h1.39a.6.6,0,0,1,.45.18.73.73,0,0,1,0,.94.63.63,0,0,1-.45.17H49Zm1.43-1.38A.5.5,0,0,1,50,27H49V25.88h1a.49.49,0,0,1,.38.15.64.64,0,0,1,0,.82Z"/><path class="cls-1" d="M57.52,26.3H56.34a.13.13,0,0,0-.14.13v.17A2,2,0,0,0,55,26.18a1.74,1.74,0,0,0-1.42.69A2.63,2.63,0,0,0,53,28.55a2.6,2.6,0,0,0,.55,1.67,1.75,1.75,0,0,0,1.42.69,2,2,0,0,0,1.22-.42v.17a.14.14,0,0,0,.14.14h1.18a.13.13,0,0,0,.13-.14V26.43A.13.13,0,0,0,57.52,26.3Zm-3,2.25a1.43,1.43,0,0,1,.22-.83.63.63,0,0,1,.54-.27,1.25,1.25,0,0,1,.5.12,1.52,1.52,0,0,1,.46.3v1.35a1.77,1.77,0,0,1-.46.31h0a.87.87,0,0,1-.9,0,.78.78,0,0,1-.26-.37A1.79,1.79,0,0,1,54.48,28.55Z"/><path class="cls-1" d="M62.05,26.36a2,2,0,0,0-1.61,0,2.5,2.5,0,0,0-.55.31v-.23a.13.13,0,0,0-.13-.13H58.58a.13.13,0,0,0-.14.13v4.23a.14.14,0,0,0,.14.14h1.18a.13.13,0,0,0,.13-.14V27.83a1.61,1.61,0,0,1,1-.37.52.52,0,0,1,.4.14.62.62,0,0,1,.15.46v2.6a.14.14,0,0,0,.14.14h1.18a.13.13,0,0,0,.13-.14V27.9a2,2,0,0,0-.21-.95A1.43,1.43,0,0,0,62.05,26.36Z"/><path class="cls-1" d="M71.12,24.61H69.76a.14.14,0,0,0-.13.09L68.3,28.78,67,24.7a.14.14,0,0,0-.13-.09H65.48a.14.14,0,0,0-.11.06.16.16,0,0,0,0,.12l2.1,5.92a.14.14,0,0,0,.13.09H69a.14.14,0,0,0,.13-.09l2.1-5.92a.13.13,0,0,0,0-.12A.14.14,0,0,0,71.12,24.61Z"/><rect class="cls-1" x="71.7" y="26.3" width="1.45" height="4.5" rx="0.14"/><path class="cls-1" d="M76.41,31.12a.74.74,0,0,0-.36-.09.73.73,0,0,0-.51.2.69.69,0,0,0,0,1,.75.75,0,0,0,1,0,.7.7,0,0,0,.22-.51.75.75,0,0,0-.1-.36A.81.81,0,0,0,76.41,31.12Z"/><path class="cls-1" d="M76.06,26.18a2.13,2.13,0,0,0-1.65.69,2.53,2.53,0,0,0,0,3.36,2.21,2.21,0,0,0,1.66.68,2.83,2.83,0,0,0,1.77-.6.14.14,0,0,0,0-.15l-.28-.75a.18.18,0,0,0-.07-.08.14.14,0,0,0-.11,0,2.73,2.73,0,0,1-1.23.34.88.88,0,0,1-.6-.21,1,1,0,0,1-.3-.5H78.1a.14.14,0,0,0,.14-.12c0-.08,0-.15,0-.22a2.64,2.64,0,0,0-.58-1.77A2,2,0,0,0,76.06,26.18ZM75.33,28a.93.93,0,0,1,.23-.37.77.77,0,0,1,.52-.19.64.64,0,0,1,.69.56Z"/><path class="cls-1" d="M82.14,30.45l-.25-.79a.1.1,0,0,0-.07-.08.12.12,0,0,0-.1,0,1.73,1.73,0,0,1-.53.1c-.29,0-.41-.12-.41-.41V27.48h1a.13.13,0,0,0,.13-.13v-.92a.13.13,0,0,0-.13-.13h-1v-1a.13.13,0,0,0-.13-.13H79.46a.13.13,0,0,0-.13.13v1l-.71.15a.13.13,0,0,0-.1.13v.75a.13.13,0,0,0,.13.13h.68v1.94a1.41,1.41,0,0,0,.43,1.13,1.64,1.64,0,0,0,1.08.36,2.75,2.75,0,0,0,1.23-.3A.14.14,0,0,0,82.14,30.45Z"/><path class="cls-1" d="M12.06,10.24a3.4,3.4,0,0,1-1.56,1.33,5.06,5.06,0,0,1,2.33,1.54,4,4,0,0,1,.82,2.43A4.35,4.35,0,0,1,12,19.27a8.06,8.06,0,0,1-4.66,1.21H.7a.69.69,0,0,1-.51-.18A.69.69,0,0,1,0,19.79V4.12a.67.67,0,0,1,.19-.51A.66.66,0,0,1,.7,3.42H7.1q5.55,0,5.55,4.74A3.85,3.85,0,0,1,12.06,10.24Zm-5-.05a1.56,1.56,0,0,0,1.25-.51A1.91,1.91,0,0,0,8.76,8.4a1.5,1.5,0,0,0-.49-1.12A1.59,1.59,0,0,0,7.1,6.8H3.41v3.39ZM8.56,17a1.56,1.56,0,0,0,1.25-.51,1.87,1.87,0,0,0,.43-1.28,1.5,1.5,0,0,0-.49-1.12,1.59,1.59,0,0,0-1.17-.48H3.41V17Z"/><path class="cls-1" d="M46.26,10.27A3.4,3.4,0,0,1,44.7,11.6,5.06,5.06,0,0,1,47,13.14a4,4,0,0,1,.82,2.43,4.35,4.35,0,0,1-1.61,3.73,8.06,8.06,0,0,1-4.66,1.21H34.9a.64.64,0,0,1-.7-.7V4.15a.65.65,0,0,1,.7-.7h6.4q5.55,0,5.55,4.74A3.87,3.87,0,0,1,46.26,10.27Zm-5,0a1.56,1.56,0,0,0,1.25-.51A1.91,1.91,0,0,0,43,8.43a1.49,1.49,0,0,0-.49-1.12,1.59,1.59,0,0,0-1.17-.48H37.61v3.39Zm1.48,6.83A1.56,1.56,0,0,0,44,16.54a1.89,1.89,0,0,0,.43-1.28A1.5,1.5,0,0,0,44,14.14a1.59,1.59,0,0,0-1.17-.48H37.61v3.39Z"/><path class="cls-1" d="M57.36,20.51a.44.44,0,0,1-.42-.45v-.85h0a2.21,2.21,0,0,1-1.2,1,3.81,3.81,0,0,1-1.59.34,4.06,4.06,0,0,1-3.5-1.6,5.31,5.31,0,0,1-1.09-3.52,4.72,4.72,0,0,1,1.12-3.5,4.34,4.34,0,0,1,3.47-1.62,3.62,3.62,0,0,1,1.58.35,2.34,2.34,0,0,1,1.21.93h0v-.83a.44.44,0,0,1,.42-.45h2a.44.44,0,0,1,.42.45v9.34a.44.44,0,0,1-.42.45Zm-1.1-7a2.24,2.24,0,0,0-1.72-.73,2.12,2.12,0,0,0-1.7.77,2.71,2.71,0,0,0-.66,1.86,2.62,2.62,0,0,0,.68,1.82,2.3,2.3,0,0,0,3.41,0,2.72,2.72,0,0,0,.67-1.86A2.69,2.69,0,0,0,56.26,13.52Zm.65,5.69a2.88,2.88,0,0,1-1.2,1,3.81,3.81,0,0,1-1.59.34"/><path class="cls-1" d="M69,20.51a.46.46,0,0,1-.48-.45V14.93a2.78,2.78,0,0,0-.32-1.48,1.33,1.33,0,0,0-1.29-.62,1.73,1.73,0,0,0-1.37.88,3,3,0,0,0-.65,1.7v4.65a.47.47,0,0,1-.49.45H62a.47.47,0,0,1-.49-.45V10.75a.46.46,0,0,1,.49-.44h2.11a.45.45,0,0,1,.48.44v.84h0a3.35,3.35,0,0,1,3-1.28,4.51,4.51,0,0,1,2.83.88,3.05,3.05,0,0,1,1,1.5,5.83,5.83,0,0,1,.24,1.79v5.58a.46.46,0,0,1-.48.45Z"/><path class="cls-1" d="M79,15.32,82,19.84a.42.42,0,0,1-.35.66H79.35a.41.41,0,0,1-.36-.21l-2.62-4.47h0v4.25a.43.43,0,0,1-.43.43h-2a.42.42,0,0,1-.42-.43V7.25a.42.42,0,0,1,.42-.42h2a.42.42,0,0,1,.43.42V14.3h0L79,10.45a.42.42,0,0,1,.34-.17h2.3a.43.43,0,0,1,.33.7l-2.87,3.83A.44.44,0,0,0,79,15.32Z"/><path class="cls-1" d="M19.19,12.9l3.28,6.9a1.13,1.13,0,0,0,2.08,0l3.32-6.94L32,4.29a.93.93,0,0,0,.1-.37c0-.33-.21-.5-.63-.5H28.81a.87.87,0,0,0-.87.55l-4.43,9.48L19.1,4a.87.87,0,0,0-.87-.55H15.62c-.42,0-.63.17-.63.5a.93.93,0,0,0,.1.37Z"/><path class="cls-2" d="M94,5.78H87.47L84.21.12a.94.94,0,0,1,.92,0L93.54,5A.91.91,0,0,1,94,5.78Z"/><path class="cls-1" d="M87.47,5.78H94a.89.89,0,0,1-.46.79l-8.41,4.86a.89.89,0,0,1-.92,0Z"/><path class="cls-3" d="M84.21.12l3.26,5.66-3.26,5.65a.9.9,0,0,1-.46-.79V.92A.92.92,0,0,1,84.21.12Z"/></g></g></svg>