<svg xmlns="http://www.w3.org/2000/svg" xmlns:xlink="http://www.w3.org/1999/xlink" width="104" height="52" viewBox="0 0 104 52">
  <defs>
    <clipPath id="clip-path">
      <rect id="Rectangle_5871" data-name="Rectangle 5871" width="104" height="26.373" transform="translate(0 0)" fill="none"/>
    </clipPath>
  </defs>
  <g id="vimass" transform="translate(-0.5)">
    <g id="boundingbox" transform="translate(0.5)" fill="rgba(255,0,0,0.1)" stroke="red" stroke-width="1" stroke-dasharray="4 4" opacity="0">
      <rect width="104" height="52" stroke="none"/>
      <rect x="0.5" y="0.5" width="103" height="51" fill="none"/>
    </g>
    <g id="vimass-2" data-name="vimass" transform="translate(0.5 12.813)">
      <g id="Group_18336" data-name="Group 18336" transform="translate(0 0)" clip-path="url(#clip-path)">
        <path id="Path_45714" data-name="Path 45714" d="M118.5,27.094c-.245-2.9-.475-5.792-.738-8.685-.15-1.645-.747-2.314-2.134-2.47a4.524,4.524,0,0,0-1.325.045,2.019,2.019,0,0,0-1.6,1.251,16.437,16.437,0,0,0-.691,2.143c-.484,1.726-.961,3.453-1.476,5.3-.33-1.26-.62-2.4-.928-3.535-.319-1.18-.567-2.379-.962-3.538a2.327,2.327,0,0,0-1.036-1.385,2.715,2.715,0,0,0-4.132,2.152c-.118,1.277-.249,2.554-.378,3.83q-.42,4.181-.845,8.362c-.021.2-.018.329.257.324.977-.016,1.953-.013,2.93,0,.226,0,.263-.093.277-.287.042-.6.107-1.2.157-1.807.212-2.526.422-5.053.634-7.6.128.087.129.213.159.32.451,1.617.886,3.24,1.35,4.854a38.911,38.911,0,0,0,1.115,3.769,1.352,1.352,0,0,0,1.245.914,1.468,1.468,0,0,0,1.432-.785,4.031,4.031,0,0,0,.373-.99q1.107-3.89,2.216-7.778c.03-.105.018-.238.163-.282.1,1.314.192,2.623.291,3.933.137,1.794.283,3.588.412,5.383.018.249.066.359.353.354.962-.02,1.924-.018,2.886,0,.3.006.321-.1.294-.361-.117-1.144-.2-2.292-.3-3.438" transform="translate(-50.569 -7.831)" fill="#2b72cb"/>
        <path id="Path_45715" data-name="Path 45715" d="M149.665,30.3c-.023-2.849-.011-5.7-.013-8.546a8.939,8.939,0,0,0-.156-1.761A4.816,4.816,0,0,0,146,15.969a5.313,5.313,0,0,0-5.677,1.364,5.191,5.191,0,0,0-1.384,3.505c-.048,1.578-.011,3.159-.011,4.738h-.019c0,1.624.007,3.248-.007,4.871,0,.291.081.375.372.369.9-.018,1.806-.026,2.708,0,.391.012.518-.077.515-.5-.021-2.893-.009-5.786-.013-8.679a5.651,5.651,0,0,1,.091-1.1,1.659,1.659,0,0,1,1.714-1.367,1.588,1.588,0,0,1,1.663,1.3,10.1,10.1,0,0,1,.1,1.764c.018.282-.083.348-.351.342-.74-.017-1.48,0-2.22-.011-.231,0-.307.065-.3.3.012.8.019,1.595,0,2.391-.008.3.114.336.364.331.7-.013,1.392.018,2.086-.014.367-.017.433.115.429.447-.017,1.461,0,2.923-.016,4.383,0,.339.094.421.422.412.888-.023,1.777-.031,2.663,0,.415.015.547-.077.543-.521" transform="translate(-68.694 -7.757)" fill="#2b72cb"/>
        <path id="Path_45716" data-name="Path 45716" d="M66.741,29.631a2.419,2.419,0,0,0,1.4,1.46,2.982,2.982,0,0,0,4.218-2.079c1.052-4.107,2.068-8.224,3.107-12.335.074-.293-.007-.349-.286-.345-.976.014-1.953.017-2.928,0-.315-.006-.452.064-.526.406C71,20.061,70.26,23.379,69.5,26.819c-.067-.254-.106-.395-.14-.536-.763-3.194-1.531-6.386-2.28-9.583-.069-.294-.18-.375-.468-.369-.932.016-1.864.024-2.8,0-.4-.012-.453.1-.359.468.8,3.154,1.573,6.315,2.375,9.468a29.878,29.878,0,0,0,.909,3.366" transform="translate(-31.361 -8.074)" fill="#2b72cb"/>
        <path id="Path_45717" data-name="Path 45717" d="M170.844,30.95a3.852,3.852,0,0,0,3.135-3.063,3.569,3.569,0,0,0-1.645-4.087c-1.274-.831-2.5-1.729-3.751-2.6a3.227,3.227,0,0,1-.481-.389.5.5,0,0,1,.181-.909,2.9,2.9,0,0,1,1.131-.185c1.183-.008,2.367-.015,3.55,0,.28,0,.389-.06.383-.363q-.029-1.328,0-2.656c.007-.3-.1-.364-.383-.362-1.3.013-2.6.009-3.906.005a8.51,8.51,0,0,0-1.717.18,3.5,3.5,0,0,0-3.093,2.872,3.829,3.829,0,0,0,1.514,3.871c1.146.86,2.317,1.687,3.475,2.531a4.28,4.28,0,0,1,.982.888.53.53,0,0,1-.267.908,3.365,3.365,0,0,1-1.223.168c-1.376,0-2.752.011-4.127,0-.257,0-.368.048-.362.337q.027,1.35,0,2.7c-.005.284.1.344.359.34.843-.014,1.686-.005,2.689-.005a16.836,16.836,0,0,0,3.554-.18" transform="translate(-81.199 -8.078)" fill="#2b72cb"/>
        <path id="Path_45718" data-name="Path 45718" d="M194.294,23.8c-1.274-.831-2.5-1.729-3.751-2.6a3.2,3.2,0,0,1-.481-.389.5.5,0,0,1,.181-.909,2.911,2.911,0,0,1,1.131-.185c1.184-.008,2.367-.015,3.551,0,.28,0,.389-.06.383-.363q-.029-1.328,0-2.656c.007-.3-.1-.364-.383-.362-1.3.013-2.6.009-3.905.005a8.506,8.506,0,0,0-1.717.18,3.5,3.5,0,0,0-3.093,2.872,3.829,3.829,0,0,0,1.514,3.871c1.146.86,2.317,1.687,3.475,2.531a4.292,4.292,0,0,1,.982.888.531.531,0,0,1-.267.908,3.375,3.375,0,0,1-1.223.168c-1.376,0-2.752.011-4.128,0-.257,0-.368.048-.362.337q.027,1.35,0,2.7c-.006.284.1.344.359.34.843-.014,1.686-.005,2.689-.005a16.838,16.838,0,0,0,3.554-.18,3.852,3.852,0,0,0,3.135-3.063,3.569,3.569,0,0,0-1.645-4.087" transform="translate(-92.059 -8.078)" fill="#2b72cb"/>
        <path id="Path_45719" data-name="Path 45719" d="M94.3,35.006c-.016-2.775-.009-5.55-.009-8.325V25.091a2.887,2.887,0,0,1-3.609-.066c0,3.441,0,6.789,0,10.138,0,.268.139.272.335.271.947,0,1.895-.016,2.841.006.341.008.448-.075.446-.434" transform="translate(-44.845 -12.376)" fill="#2c72cb"/>
        <path id="Path_45720" data-name="Path 45720" d="M92.6,19.889a1.768,1.768,0,1,0-1.77-1.789,1.723,1.723,0,0,0,1.77,1.789" transform="translate(-44.918 -8.087)" fill="#2b72cb"/>
        <path id="Path_45721" data-name="Path 45721" d="M28.573,19.521c0-.222-.056-.322-.3-.314-.414.015-.829.019-1.242,0-.267-.013-.327.1-.319.338.014.442,0,.885,0,1.328,0,.257-.1.452-.372.45s-.362-.207-.36-.459c0-.443-.009-.886.005-1.328.008-.252-.086-.332-.336-.328-.755.013-1.509.01-2.264,0a3.6,3.6,0,0,1,0-7.206c.755-.007,1.509-.009,2.264,0,.252,0,.341-.084.333-.334-.015-.428,0-.856-.006-1.284,0-.261.042-.5.358-.5s.382.221.378.49c-.006.413.018.827-.009,1.239-.021.322.1.409.406.389a8.131,8.131,0,0,1,1.065,0c.32.022.4-.1.4-.407-.014-1.4-.006-2.8-.007-4.206a2.234,2.234,0,0,0-2.514-2.55c-.308,0-.4-.084-.4-.4.019-1.062.009-2.125.007-3.188A1.113,1.113,0,0,0,24.172.045Q13.048,2.434,1.925,4.827A2.236,2.236,0,0,0,0,7.241Q0,15.61,0,23.979A2.191,2.191,0,0,0,2.4,26.372q5.927,0,11.854,0,6.016,0,12.032,0a2.164,2.164,0,0,0,2.279-2.112c.034-1.579.006-3.158.013-4.738M25.6,6.639c.073,0,.147,0,.221,0h.442a.394.394,0,0,1,.452.423c.006.323,0,.646,0,.969a.369.369,0,0,1-.369.412c-.241,0-.36-.171-.372-.408a1.746,1.746,0,0,1,0-.308c.035-.287-.077-.391-.371-.381s-.714.112-.714-.348.419-.345.714-.36m-5.123,0c.369.007.738,0,1.106,0s.738,0,1.106,0c.251,0,.457.08.468.353s-.2.364-.448.363q-1.129,0-2.257,0c-.253,0-.46-.086-.447-.364s.216-.357.471-.352m-4.9,0c.766,0,1.533,0,2.3,0,.237,0,.407.108.411.36s-.176.35-.411.351c-.383,0-.766,0-1.149,0s-.767,0-1.15,0c-.236,0-.431-.083-.438-.331-.009-.265.179-.385.438-.385m-4.915,0c.795-.007,1.589-.008,2.383,0A.338.338,0,0,1,13.416,7c0,.262-.168.355-.405.355-.383,0-.765,0-1.147,0H10.672c-.22,0-.383-.092-.393-.324a.346.346,0,0,1,.384-.386m-4.822,0q1.149,0,2.3,0c.239,0,.411.118.413.362s-.174.352-.415.351c-.383,0-.766,0-1.148,0H5.839c-.23,0-.424-.07-.432-.332-.009-.278.178-.382.433-.382m-3.984.4a.36.36,0,0,1,.382-.393c.353-.011.707-.013,1.059,0a.356.356,0,0,1,.386.389c-.015.222-.189.316-.406.319a1.188,1.188,0,0,1-.22,0c-.4-.068-.539.1-.479.487a.908.908,0,0,1-.01.307.339.339,0,0,1-.379.3.323.323,0,0,1-.325-.3c-.014-.2,0-.41,0-.616H1.856c0-.162,0-.323,0-.485m.725,4.8q0,.254,0,.507a.345.345,0,0,1-.382.386.34.34,0,0,1-.342-.381q0-1.036,0-2.071a.343.343,0,0,1,.381-.386.341.341,0,0,1,.343.381c0,.353,0,.705,0,1.058,0,.169,0,.338,0,.506M1.854,15.6c0-.325,0-.649,0-.973,0-.258.1-.448.371-.446.245,0,.358.173.357.416q0,1.018,0,2.034c0,.248-.125.4-.371.4s-.36-.167-.357-.414c0-.339,0-.678,0-1.017m.725,5.343a.344.344,0,0,1-.342.382.344.344,0,0,1-.38-.387q-.005-1.035,0-2.069a.336.336,0,0,1,.341-.379.342.342,0,0,1,.382.384c.005.352,0,.7,0,1.056s0,.675,0,1.013m.78,3.621c-.2.018-.411,0-.618,0v.008c-.162,0-.324.007-.486,0a.376.376,0,0,1-.4-.422c0-.323,0-.646,0-.97,0-.244.121-.408.364-.406s.361.168.362.41a2.412,2.412,0,0,1,0,.308c-.034.266.067.381.343.353a1.837,1.837,0,0,1,.441.009.352.352,0,0,1,.328.358.336.336,0,0,1-.332.349m4.8.01c-.4.008-.8,0-1.2,0s-.769.006-1.153,0c-.233,0-.42-.11-.416-.362s.181-.364.418-.365c.783,0,1.567-.006,2.35,0a.358.358,0,0,1,.393.387c-.008.226-.177.334-.394.338m4.856,0c-.4.009-.8,0-1.2,0-.369,0-.739,0-1.108,0-.252,0-.452-.1-.441-.378.011-.247.193-.351.429-.352.768,0,1.537,0,2.305,0,.235,0,.414.115.422.361s-.177.361-.41.366m4.849,0q-1.152.005-2.3,0c-.234,0-.425-.1-.425-.353,0-.267.194-.378.45-.378h1.152c.369,0,.738,0,1.107,0,.254,0,.445.1.442.38,0,.258-.193.348-.423.35m-6.447-1.653a7.416,7.416,0,0,1-7.494-7.336,7.413,7.413,0,0,1,7.5-7.286,7.4,7.4,0,0,1,7.484,7.289,7.4,7.4,0,0,1-7.488,7.333m11.35,1.652c-.4.006-.8,0-1.2,0-.384,0-.769,0-1.153,0-.239,0-.419-.117-.413-.363a.372.372,0,0,1,.42-.365c.783,0,1.567-.006,2.35,0a.363.363,0,1,1-.006.724m3.951-.878c0,.147,0,.294,0,.441a.391.391,0,0,1-.434.44c-.339.005-.678.006-1.016,0-.216-.005-.382-.109-.393-.336-.012-.25.157-.362.39-.39a.3.3,0,0,1,.088,0c.491.086.712-.088.622-.607a.383.383,0,0,1,.27-.451.329.329,0,0,1,.36.1.41.41,0,0,1,.113.322c0,.081,0,.161,0,.242s0,.162,0,.243" transform="translate(0 0)" fill="#2c72cb"/>
        <path id="Path_45722" data-name="Path 45722" d="M16.593,52.173q-5.927,0-11.854,0,5.927,0,11.854,0,6.016,0,12.032,0-6.016.005-12.032,0" transform="translate(-2.344 -25.8)" fill="#2c72cb"/>
        <path id="Path_45723" data-name="Path 45723" d="M49.23,25.155c-.959.016-1.921.006-2.881.007s-1.891-.009-2.837,0a2.887,2.887,0,0,0-.015,5.767c1.921.013,3.843,0,5.763.009.282,0,.379-.066.376-.364q-.021-2.52,0-5.04c0-.328-.114-.386-.408-.381m-5.5,3.744a.856.856,0,0,1-.82-.869.846.846,0,0,1,.851-.834.827.827,0,0,1,.811.864.836.836,0,0,1-.842.839" transform="translate(-20.154 -12.44)" fill="#2b72cb"/>
        <path id="Path_45724" data-name="Path 45724" d="M49.048,25.162c.96,0,1.921.009,2.881-.007-.96.016-1.921.006-2.881.006s-1.891-.008-2.837,0c.946-.011,1.891,0,2.837,0" transform="translate(-22.853 -12.44)" fill="#2b72cb"/>
        <path id="Path_45725" data-name="Path 45725" d="M22.325,25.65c-.607.013-1.214.015-1.82,0-.247-.007-.337.1-.387.318-.073.316-.173.625-.262.937l-.941,3.3-.1,0c-.041-.141-.085-.281-.124-.422-.348-1.264-.7-2.527-1.038-3.793-.055-.207-.11-.345-.368-.338-.621.015-1.243.013-1.865,0-.25-.005-.255.09-.192.288.615,1.922,1.2,3.852,1.842,5.766a1.614,1.614,0,0,0,1.847,1.184,1.592,1.592,0,0,0,1.8-1.191c.627-1.906,1.211-3.825,1.822-5.736.075-.234.048-.317-.216-.312" transform="translate(-7.515 -12.684)" fill="#2b72cb"/>
      </g>
    </g>
  </g>
</svg>
