<svg xmlns="http://www.w3.org/2000/svg" xmlns:xlink="http://www.w3.org/1999/xlink" width="104" height="52" viewBox="0 0 104 52">
  <defs>
    <clipPath id="clip-path">
      <rect id="Rectangle_5518" data-name="Rectangle 5518" width="80.371" height="30.119" fill="none"/>
    </clipPath>
  </defs>
  <g id="bank_14" data-name="bank 14" transform="translate(-2322 -1654)">
    <g id="vinid" transform="translate(2321.5 1654)">
      <g id="boundingbox" transform="translate(0.5)" fill="rgba(255,0,0,0.1)" stroke="red" stroke-width="1" stroke-dasharray="4 4" opacity="0">
        <rect width="104" height="52" stroke="none"/>
        <rect x="0.5" y="0.5" width="103" height="51" fill="none"/>
      </g>
      <g id="Group_10531" data-name="Group 10531" transform="translate(12.5 11)">
        <g id="Group_10530" data-name="Group 10530" transform="translate(0 0)" clip-path="url(#clip-path)">
          <path id="Path_19642" data-name="Path 19642" d="M26.33,2.228s-8.635,24.048-9.5,25.849a3.382,3.382,0,0,1-3.419,2.042,3.486,3.486,0,0,1-3.1-1.706C9.113,26.612.846,6.7.1,3.929A3.1,3.1,0,0,1,2.919.043,3.884,3.884,0,0,1,7.248,2.806C8.717,6.852,15.191,21.8,15.191,21.8S19.755,9.323,22.946,1.232A1.741,1.741,0,0,1,25.093.147,1.609,1.609,0,0,1,26.33,2.228M45.55,25.134c1.554,0,2.276-.717,2.276-2.25l-.037-6.919c0-2.015-.417-3.457-1.246-4.276a5.794,5.794,0,0,0-4.257-1.565,5.883,5.883,0,0,0-4.378,1.74l-.332.343-.129-.461a2.067,2.067,0,0,0-2.184-1.622,1.981,1.981,0,0,0-2.268,2.27V22.881a1.972,1.972,0,0,0,2.268,2.253,1.974,1.974,0,0,0,2.273-2.253V15.726a4.511,4.511,0,0,1,.49-2.171,2.905,2.905,0,0,1,2.645-1.4,2.1,2.1,0,0,1,2.164,1.113,7.373,7.373,0,0,1,.431,2.789l.015,6.822A1.973,1.973,0,0,0,45.55,25.134Zm-17.375,0a1.976,1.976,0,0,0,2.261-2.273V12.409a1.973,1.973,0,0,0-2.261-2.267A1.978,1.978,0,0,0,25.9,12.409V22.862a1.982,1.982,0,0,0,2.273,2.273M28.17,9.191c2.019,0,2.261-1.021,2.261-1.785S30.189,5.62,28.17,5.62c-2.048,0-2.281,1.021-2.281,1.785s.233,1.785,2.281,1.785" transform="translate(0 0)" fill="#9f1d26"/>
          <path id="Path_19643" data-name="Path 19643" d="M72.7,26.212c1.7,0,2.5-1.034,2.5-3.258v-15c0-2.224-.8-3.26-2.5-3.26-1.724,0-2.521,1.036-2.521,3.26v15c0,2.224.8,3.258,2.521,3.258m7.381,0a2.228,2.228,0,0,1-2.291-2.523V7.217a2.2,2.2,0,0,1,2.33-2.5l6-.019a25.391,25.391,0,0,1,3.154.183A11.643,11.643,0,0,1,92,5.57,9.119,9.119,0,0,1,94.52,7.022a9.306,9.306,0,0,1,2.86,3.62,11.423,11.423,0,0,1,.945,4.666,13.81,13.81,0,0,1-.315,2.922,11.382,11.382,0,0,1-.976,2.717,9.557,9.557,0,0,1-1.645,2.3c-1.952,1.965-4.728,2.962-8.254,2.962ZM85.154,6.373a3.61,3.61,0,0,0-1.578.255,1.232,1.232,0,0,0-.648.9,8.454,8.454,0,0,0-.109,1.651V21.408a9.878,9.878,0,0,0,.119,1.857,1.4,1.4,0,0,0,.712.985,3.436,3.436,0,0,0,1.687.305,7.545,7.545,0,0,0,3.31-.7A6.554,6.554,0,0,0,91.062,21.9a8.563,8.563,0,0,0,1.447-2.846,11.937,11.937,0,0,0,.48-3.422A12.45,12.45,0,0,0,92.5,12.1,9.088,9.088,0,0,0,91.052,9.16a7.031,7.031,0,0,0-2.474-2.042A7.636,7.636,0,0,0,85.154,6.373Z" transform="translate(-17.955 -1.201)" fill="#222d45"/>
        </g>
      </g>
    </g>
  </g>
</svg>
