<svg xmlns="http://www.w3.org/2000/svg" xmlns:xlink="http://www.w3.org/1999/xlink" width="104" height="52" viewBox="0 0 104 52">
	<defs>
		<clipPath id="clip-path">
			<rect id="Rectangle_11099" data-name="Rectangle 11099" width="49.014" height="30" fill="none"/>
		</clipPath>
	</defs>
	<g id="ting" transform="translate(-2301 6206)">
		<g id="boundingbox" transform="translate(2301 -6206)" fill="rgba(255,0,0,0.1)" stroke="red" stroke-width="1" stroke-dasharray="4 4" opacity="0">
			<rect width="104" height="52" stroke="none"/>
			<rect x="0.5" y="0.5" width="103" height="51" fill="none"/>
		</g>
		<g id="ting-2" data-name="ting" transform="translate(2328.493 -6194)">
			<g id="Group_20999" data-name="Group 20999" transform="translate(0 0)" clip-path="url(#clip-path)">
				<path id="Path_46015" data-name="Path 46015" d="M66.631,14.184q-1.87.013-3.74,0c-.174,0-.217.047-.214.217.01.681.005,1.361,0,2.042,0,.06.037.134-.046.189-.045-.076-.085-.149-.128-.22a4.714,4.714,0,0,0-3.038-2.31,6.984,6.984,0,0,0-6.844,2.086,7.56,7.56,0,0,0-2.11,6.18,8.01,8.01,0,0,0,2.628,5.467,6.723,6.723,0,0,0,6.069,1.722,4.938,4.938,0,0,0,3.366-2.391,9.464,9.464,0,0,1-.221,3.089,4.076,4.076,0,0,1-.875,1.544,4.458,4.458,0,0,1-7.371-1.587.313.313,0,0,0-.357-.242c-1.277.011-2.554,0-3.832.017-.218,0-.279-.047-.278-.273.008-3.48.018-6.96,0-10.44A5.146,5.146,0,0,0,47.978,15.4a5.507,5.507,0,0,0-8.209.721c-.146.192-.279.394-.423.6a.362.362,0,0,1-.027-.229c0-.7-.007-1.392,0-2.088,0-.169-.038-.219-.214-.218q-1.881.012-3.763,0c-.178,0-.211.053-.211.219q.007,7.687,0,15.374c0,.186.056.226.231.225,1.277-.007,2.555-.009,3.832,0,.211,0,.25-.065.249-.259q-.01-4.062,0-8.123c0-.229,0-.459.018-.688a2.932,2.932,0,0,1,3.128-2.926,2.63,2.63,0,0,1,2.633,2.068,5.205,5.205,0,0,1,.125,1.3q0,4.188,0,8.375c0,.2.051.257.254.255,1.178-.01,2.355,0,3.534,0,.482,0,.47,0,.595.455a8.661,8.661,0,0,0,5.157,5.92,9.146,9.146,0,0,0,6.727.083,7.235,7.235,0,0,0,4.114-3.531,9.5,9.5,0,0,0,1.125-4.561c.015-2.983,0-5.966,0-8.948,0-1.667,0-3.335,0-5,0-.179-.043-.23-.227-.229M62.21,22.739a3.478,3.478,0,0,1-3.566,2.882A3.55,3.55,0,0,1,54.967,22.3a4.051,4.051,0,0,1,.822-3.169,3.558,3.558,0,0,1,3.828-1.182,3.415,3.415,0,0,1,2.609,2.836,4.661,4.661,0,0,1-.016,1.957" transform="translate(-17.843 -7.055)" fill="#5032e4"/>
				<path id="Path_46016" data-name="Path 46016" d="M10.121,21.945a14.028,14.028,0,0,1-1.467-.02A1.429,1.429,0,0,1,7.18,20.474a3.539,3.539,0,0,1-.025-.389c0-1.9,0-3.808,0-5.713,0-.192.055-.244.245-.242.91.009,1.82,0,2.73.008.168,0,.226-.037.221-.215-.013-.436,0-.872,0-1.308,0-.7,0-1.392,0-2.088,0-.163-.047-.214-.207-.2-.183.014-.367,0-.55,0H5.6l-.013-.042c.031-.017.06-.037.092-.052a2.371,2.371,0,0,0,1.386-1.87,12.951,12.951,0,0,0,.1-1.853c0-.183-.05-.234-.232-.232-1.07.008-2.141,0-3.212,0-.454,0-.447,0-.456.457A17.579,17.579,0,0,1,3.217,8.8,1.6,1.6,0,0,1,1.481,10.33c-.421,0-.842.009-1.262,0-.172,0-.22.045-.219.218q.012,1.686,0,3.372c0,.17.045.224.219.222.8-.008,1.591,0,2.386-.009.22,0,.282.057.281.279q-.012,3.59,0,7.181a4.807,4.807,0,0,0,.489,2.218A4.255,4.255,0,0,0,6.9,26.062a31.908,31.908,0,0,0,3.277.074c.163,0,.165-.077.164-.2,0-1.262-.005-2.524,0-3.785,0-.184-.065-.21-.225-.209" transform="translate(0 -3.19)" fill="#5032e4"/>
				<path id="Path_46017" data-name="Path 46017" d="M27.47,14.5q-1.9.011-3.808,0c-.2,0-.252.052-.252.253q0,.954,0,1.909,0,2.864,0,5.729v3.842q0,1.921,0,3.842c0,.17.031.237.221.236q1.927-.013,3.853,0c.18,0,.232-.047.232-.23q-.007-7.673,0-15.345c0-.2-.068-.236-.25-.235" transform="translate(-11.889 -7.363)" fill="#5032e4"/>
				<path id="Path_46018" data-name="Path 46018" d="M24.565,0a3.09,3.09,0,0,0-3.072,3.109,3.083,3.083,0,0,0,3.125,3.028A3.069,3.069,0,1,0,24.565,0" transform="translate(-10.916 0)" fill="#fdc701"/>
			</g>
		</g>
	</g>
</svg>
