<svg xmlns="http://www.w3.org/2000/svg" width="24" height="24" viewBox="0 0 24 24"><rect width="24" height="24" fill="rgba(255,255,255,0)"/><path d="M544.091,1140.278a10,10,0,1,0,10,10A10.029,10.029,0,0,0,544.091,1140.278Zm2.434,14.736a.8.8,0,0,1-1.125.059l-4.683-4.241a.794.794,0,0,1-.062-1.122.744.744,0,0,1,.062-.063l4.641-4.167a.8.8,0,1,1,1.06,1.187l-3.693,3.317a.353.353,0,0,0-.026.5l.026.026,3.736,3.379h.005A.8.8,0,0,1,546.525,1155.014Z" transform="translate(-532.091 -1138.278)" fill="#252a31"/><style type="text/css" media="screen">path{vector-effect:non-scaling-stroke}</style></svg>